<svg id="圖層_1" data-name="圖層 1" xmlns="http://www.w3.org/2000/svg" viewBox="0 0 296 89"><defs><style>.cls-1{fill:#3d2700;}</style></defs><title>subTitle</title><path class="cls-1" d="M49.91,16.93a2.75,2.75,0,0,1-.47,1.83,2.23,2.23,0,0,1-1.74.54h-8a19.14,19.14,0,0,1-.4,3.5A15.61,15.61,0,0,1,38.2,26c-.34.62-.68,1-1,1.08a1.27,1.27,0,0,1-1.1-.24,1.46,1.46,0,0,1-.55-.85,1.67,1.67,0,0,1,.39-1.33A7.24,7.24,0,0,0,37,21.85a24.08,24.08,0,0,0,.31-4.11V13.11A7.11,7.11,0,0,1,37.37,12a1.59,1.59,0,0,1,.33-.73,1.27,1.27,0,0,1,.66-.38,4.57,4.57,0,0,1,1.09-.11H47.7a5.19,5.19,0,0,1,1.16.1,1.19,1.19,0,0,1,.66.36,1.5,1.5,0,0,1,.31.72,7.29,7.29,0,0,1,.08,1.17Zm.58-7a1.24,1.24,0,0,1-.9.67,1.73,1.73,0,0,1-1.21-.55c-.29-.23-.55-.44-.78-.64s-.46-.39-.69-.56V9c0,.53-.1.85-.31,1a1.81,1.81,0,0,1-.84.17H41.51a1,1,0,0,1-.65-.23,1.23,1.23,0,0,1-.36-.56c-.43.32-.87.62-1.33.9s-.92.54-1.4.8a1.73,1.73,0,0,1-1.43.26,1.44,1.44,0,0,1-.68-1.93,2,2,0,0,1,1-.85A15.12,15.12,0,0,0,39.32,7,22.71,22.71,0,0,0,42,4.83a2.32,2.32,0,0,1,1.56-.72,1.82,1.82,0,0,1,.63.13,4.22,4.22,0,0,1,.66.35l1.26.82,1.33.87,1.3.88c.42.29.79.56,1.13.82a2.2,2.2,0,0,1,.78.94A1.15,1.15,0,0,1,50.49,10Zm-10.8,4.08h7.77v-.87a.5.5,0,0,0-.07-.33.5.5,0,0,0-.33-.07h-7c-.17,0-.28,0-.32.1a1,1,0,0,0-.06.42ZM47,17.24q.48,0,.48-.48l.08-.77H39.76l-.07,1.25Zm3.29,7.25a5.79,5.79,0,0,1-.09,1.13,1.42,1.42,0,0,1-.35.68,1.4,1.4,0,0,1-.7.35,5.71,5.71,0,0,1-1.11.09H42a2.43,2.43,0,0,1-1.74-.49,2.45,2.45,0,0,1-.49-1.76v-1.8a5.7,5.7,0,0,1,.1-1.21,1.5,1.5,0,0,1,.34-.74,1.42,1.42,0,0,1,.69-.36,5.53,5.53,0,0,1,1.1-.09h6a5.26,5.26,0,0,1,1,.09,1.51,1.51,0,0,1,.7.36,1.67,1.67,0,0,1,.38.71,4.52,4.52,0,0,1,.12,1.14ZM43.91,6.9a.65.65,0,0,0-.3-.12.43.43,0,0,0-.25.12l-.58.51-.57.52h3.38c-.24-.16-.49-.33-.77-.49S44.25,7.09,43.91,6.9Zm3.82,15.74a.25.25,0,0,0,0-.17s-.09,0-.2,0h-5q-.24,0-.24.27v1.65a.39.39,0,0,0,0,.23s.11.06.24.06h4.92c.11,0,.18,0,.2-.06a.41.41,0,0,0,0-.23Zm10,.77a7,7,0,0,1-.29,2.21,2.17,2.17,0,0,1-.93,1.22,2.88,2.88,0,0,1-1.63.35,10.57,10.57,0,0,1-2.43-.45c-.77-.22-1.23-.5-1.37-.84a1.77,1.77,0,0,1,.12-1.36,1.18,1.18,0,0,1,.77-.81,2.27,2.27,0,0,1,1.27.13,7.55,7.55,0,0,0,1,.3.78.78,0,0,0,.56,0,.54.54,0,0,0,.22-.42,4.83,4.83,0,0,0,0-.84V5.7a1.61,1.61,0,0,1,.31-1.06,1.28,1.28,0,0,1,1-.36,1.4,1.4,0,0,1,1,.32,1.51,1.51,0,0,1,.33,1.1Zm-3.82-3.58a1.42,1.42,0,0,1-.34,1.11,1.6,1.6,0,0,1-1.81,0,1.55,1.55,0,0,1-.3-1.11V7.74c0-.6.1-1,.3-1.12a1.87,1.87,0,0,1,1.8,0c.23.15.35.52.35,1.12Z"/><path class="cls-1" d="M65.25,25.93a1.27,1.27,0,0,1-1.42,1.46,1.35,1.35,0,0,1-1.1-.36,1.76,1.76,0,0,1-.29-1.1v-9.1a2.14,2.14,0,0,1-1.2,1,1.43,1.43,0,0,1-1.15-.36,1.19,1.19,0,0,1-.67-1,3.28,3.28,0,0,1,.79-1.62,24.56,24.56,0,0,0,2.53-4.32A26.8,26.8,0,0,0,64.31,6a2.92,2.92,0,0,1,.63-1.35A1.2,1.2,0,0,1,66,4.38,1.33,1.33,0,0,1,67.16,5a2.22,2.22,0,0,1,0,1.6v0q-.41,1.59-.87,2.88c-.32.87-.67,1.72-1.07,2.55ZM72.88,6.56a2.92,2.92,0,0,1-.1.35l-.09.32h8.59a1.7,1.7,0,0,1,1.13.31,1.5,1.5,0,0,1,.33,1.11,1.57,1.57,0,0,1-.31,1.1,1.52,1.52,0,0,1-1.15.34H75.06v3.19h5.57a1.41,1.41,0,0,1,1.06.31A1.61,1.61,0,0,1,82,14.67a1.91,1.91,0,0,1-.26,1.08c-.16.26-.53.39-1.09.39H75.06v3.55h6.1a1.51,1.51,0,0,1,1.07.29,1.48,1.48,0,0,1,.3,1.08,1.69,1.69,0,0,1-.29,1.1,1.39,1.39,0,0,1-1.08.34h-6.1V26a1.28,1.28,0,0,1-.42,1.13,1.68,1.68,0,0,1-1,.29,1.58,1.58,0,0,1-1-.29A1.37,1.37,0,0,1,72.3,26V10.09h-.52a27.65,27.65,0,0,1-1.12,2.53,28,28,0,0,1-1.45,2.51c-.43.67-.86,1-1.29,1.09a1.38,1.38,0,0,1-1.11-.3,1.71,1.71,0,0,1-.63-1,2.39,2.39,0,0,1,.65-1.43A20.69,20.69,0,0,0,68,11.65c.34-.59.64-1.19.92-1.79A18.11,18.11,0,0,0,69.62,8c.2-.65.39-1.33.55-2a2.5,2.5,0,0,1,.5-1.22,1.29,1.29,0,0,1,1.11-.25,1.49,1.49,0,0,1,1.15.69,2.18,2.18,0,0,1-.05,1.42Z"/><path class="cls-1" d="M101.9,6.87a3.34,3.34,0,0,1,2.08.59,2.2,2.2,0,0,1,.77,1.88V23.86a3,3,0,0,1-.53,1.95,2.25,2.25,0,0,1-1.84.65H88.17a2.24,2.24,0,0,1-1.89-.69,3.25,3.25,0,0,1-.51-2V9.34a5.74,5.74,0,0,1,.09-1.1,1.71,1.71,0,0,1,.39-.77A1.57,1.57,0,0,1,87,7a4.79,4.79,0,0,1,1.32-.15h4.82a6.51,6.51,0,0,0,.3-.75,3.77,3.77,0,0,0,.18-.64,1.65,1.65,0,0,1,.64-1.07,1.62,1.62,0,0,1,1.24-.08,1.8,1.8,0,0,1,1,.54,1.57,1.57,0,0,1,.08,1.23c0,.13-.07.26-.1.39a2.78,2.78,0,0,1-.12.38ZM88.6,12.32h13.25V10.16a.62.62,0,0,0-.12-.42.78.78,0,0,0-.55-.13H89.1q-.41,0-.45.15a1.81,1.81,0,0,0-.05.47Zm0,5.74h13.25V15H88.6Zm12.65,5.64c.29,0,.46-.08.51-.22a1.36,1.36,0,0,0,.09-.53V20.74H88.6v2.31a.91.91,0,0,0,.1.45c.06.13.23.2.5.2Z"/><path class="cls-1" d="M130.58,21.2a13.71,13.71,0,0,1-.22,2.62,3.63,3.63,0,0,1-.77,1.69,3.15,3.15,0,0,1-1.51.92,9.7,9.7,0,0,1-2.42.34l-2.69.06h-2.55c-1.61,0-3.24,0-4.87-.07a22.2,22.2,0,0,1-3-.29,3.93,3.93,0,0,1-1.85-.78,3,3,0,0,1-1-1.57,10.58,10.58,0,0,1-.28-2.67V16.54a8.61,8.61,0,0,1,.12-1.58,1.77,1.77,0,0,1,.5-1,2.08,2.08,0,0,1,1-.51,9,9,0,0,1,1.74-.14h12c.16,0,.26,0,.3-.1a.37.37,0,0,0,.06-.21V8.82a.46.46,0,0,0-.06-.23c0-.07-.14-.11-.3-.11H110.3a1.65,1.65,0,0,1-1.16-.31A1.67,1.67,0,0,1,108.83,7a1.71,1.71,0,0,1,.31-1.11,1.5,1.5,0,0,1,1.16-.36h14.44a7.45,7.45,0,0,1,1.74.16,2,2,0,0,1,1,.53,1.88,1.88,0,0,1,.48,1,8.73,8.73,0,0,1,.12,1.59V13a8.73,8.73,0,0,1-.12,1.59,1.92,1.92,0,0,1-.48,1,2,2,0,0,1-1,.53,8,8,0,0,1-1.74.16h-11.9c-.26,0-.38.1-.38.31v5a4.86,4.86,0,0,0,.12,1.21,1.21,1.21,0,0,0,.45.68,2.2,2.2,0,0,0,.94.33,14.29,14.29,0,0,0,1.53.1c1.4.05,2.73.08,4,.08l2.8,0c1,0,1.91,0,2.89-.07a6,6,0,0,0,1.21-.14,1.61,1.61,0,0,0,.75-.41,1.65,1.65,0,0,0,.38-.82,7.2,7.2,0,0,0,.11-1.37,2,2,0,0,1,.36-1.35,1.43,1.43,0,0,1,1.13-.4,1.3,1.3,0,0,1,1.12.42A2.45,2.45,0,0,1,130.58,21.2Z"/><path class="cls-1" d="M133.1,10.28a1.21,1.21,0,0,1-1.06-.4,1.69,1.69,0,0,1-.29-1A1.86,1.86,0,0,1,132,7.8c.17-.24.54-.35,1.1-.35h3.21V5.58a1.24,1.24,0,0,1,.4-1.08,1.62,1.62,0,0,1,1-.29,1.75,1.75,0,0,1,1,.29,1.22,1.22,0,0,1,.42,1.08V7.45h3.15a1.31,1.31,0,0,1,1.1.35,1.71,1.71,0,0,1,.26,1.06,1.69,1.69,0,0,1-.28,1,1.26,1.26,0,0,1-1.08.4h-3.15V13.4h1.32a6.48,6.48,0,0,1,1.29.1,1.69,1.69,0,0,1,.8.36.72.72,0,0,1,0-.59,9.2,9.2,0,0,1,.42-.85c.21-.4.42-.86.63-1.36s.4-1,.57-1.61.33-1.15.47-1.76.24-1.22.32-1.83a2.17,2.17,0,0,1,.44-1.41,1.74,1.74,0,0,1,2.11.14,2.16,2.16,0,0,1,.19,1.49c0,.11,0,.22,0,.31a.89.89,0,0,1-.06.31h5.57a1.4,1.4,0,0,1,1.05.35,1.52,1.52,0,0,1,.32,1,1.52,1.52,0,0,1-.32,1,1.3,1.3,0,0,1-1.05.39h0a39.56,39.56,0,0,1-1,6.39,23.25,23.25,0,0,1-1.77,4.82c.35.51.67.95,1,1.32s.58.69.86,1,.56.55.84.79l.85.72a2.42,2.42,0,0,1,.93,1.19,1.5,1.5,0,0,1-.33,1.14,1.34,1.34,0,0,1-1,.59,2.11,2.11,0,0,1-1.41-.66A25.25,25.25,0,0,1,150.2,25a19.71,19.71,0,0,1-1.43-1.66,13.75,13.75,0,0,1-1.61,2.09,15.14,15.14,0,0,1-1.49,1.37,1.88,1.88,0,0,1-1.51.55,1.67,1.67,0,0,1-1.06-.84A1,1,0,0,1,143,25.5a2.94,2.94,0,0,1,1-1.06,9.71,9.71,0,0,0,1.65-1.54,16.51,16.51,0,0,0,1.47-2.11,24.42,24.42,0,0,1-1.16-3,32.69,32.69,0,0,1-.9-3.4,1.11,1.11,0,0,1-.82.45,1.91,1.91,0,0,1-.81-.23l-.28-.18-.23-.18a4.46,4.46,0,0,1,.27,1.8v7.58a7.68,7.68,0,0,1-.1,1.29,1.72,1.72,0,0,1-.38.84,1.65,1.65,0,0,1-.81.46,4.93,4.93,0,0,1-1.35.15h-5.62a5.86,5.86,0,0,1-1.32-.13,1.5,1.5,0,0,1-.78-.45,1.71,1.71,0,0,1-.37-.84,7,7,0,0,1-.1-1.32V16.09a7.23,7.23,0,0,1,.1-1.35,1.6,1.6,0,0,1,.37-.82,1.4,1.4,0,0,1,.78-.41,6.79,6.79,0,0,1,1.34-.11h1.37V10.28Zm7.22,6.14a.26.26,0,0,0,0-.18.45.45,0,0,0-.21,0h-4.64a.38.38,0,0,0-.2,0,.46.46,0,0,0,0,.23v6.89c0,.11,0,.18.06.2a.63.63,0,0,0,.3,0h4.4c.17,0,.28,0,.32-.08a.91.91,0,0,0,.06-.42Zm6.5-5.92a36.36,36.36,0,0,0,.8,3.84,27.12,27.12,0,0,0,1.12,3.4,20.29,20.29,0,0,0,1-3.43,40.24,40.24,0,0,0,.66-4.82h-3.29Z"/><path class="cls-1" d="M168.52,6h8.35a1.41,1.41,0,0,1,.94.25,1.19,1.19,0,0,1,.26.86,1.16,1.16,0,0,1-.26.86,1.42,1.42,0,0,1-.94.24h-8.35v.89h5.23a2.9,2.9,0,0,1,1.74.41,1.69,1.69,0,0,1,.57,1.48v.92a1.66,1.66,0,0,1-.57,1.48,3.07,3.07,0,0,1-1.74.39h-5.23v1h5.4a7.24,7.24,0,0,1,1.16.07,1.3,1.3,0,0,1,.7.31,1.28,1.28,0,0,1,.34.71,8,8,0,0,1,.08,1.23v.72h1.13a1.41,1.41,0,0,1,.91.26,1,1,0,0,1,.31.85,1,1,0,0,1-.31.86,1.47,1.47,0,0,1-.91.24H176.2v.79a6.29,6.29,0,0,1-.09,1.18,1.66,1.66,0,0,1-.35.73,1.22,1.22,0,0,1-.7.37,5.18,5.18,0,0,1-1.14.1h-5.4v1.2a4.93,4.93,0,0,1-.13,1.19,2.14,2.14,0,0,1-.47.91,2.2,2.2,0,0,1-.91.58,4.66,4.66,0,0,1-1.47.2c-.4,0-.85,0-1.36-.06a10.72,10.72,0,0,1-1.78-.32,1.87,1.87,0,0,1-1-.59,1.36,1.36,0,0,1-.13-1.14q.4-1.08,1.83-.72a12.44,12.44,0,0,0,1.36.3,6.62,6.62,0,0,0,.84.06.38.38,0,0,0,.38-.19,1.76,1.76,0,0,0,.08-.6v-.82h-7.15a1.71,1.71,0,0,1-.88-.2,1,1,0,0,1-.32-.86c0-.44.11-.73.32-.86a1.72,1.72,0,0,1,.88-.19h7.15V20.07H157a1.41,1.41,0,0,1-.87-.24,1,1,0,0,1-.33-.86,1,1,0,0,1,.33-.85,1.35,1.35,0,0,1,.87-.26h8.81v-1H158.7a1.49,1.49,0,0,1-.91-.22,1.14,1.14,0,0,1-.29-.9.81.81,0,0,1,.33-.77,1.68,1.68,0,0,1,.87-.19h7.06v-1h-5.45a3,3,0,0,1-1.75-.39,1.73,1.73,0,0,1-.53-1.48V11a1.77,1.77,0,0,1,.53-1.48,2.85,2.85,0,0,1,1.75-.41h5.45V8.24H157a1.36,1.36,0,0,1-.94-.24,1.16,1.16,0,0,1-.26-.86,1.19,1.19,0,0,1,.26-.86A1.36,1.36,0,0,1,157,6h8.74V5.46a1.08,1.08,0,0,1,.37-1,1.71,1.71,0,0,1,1-.27,1.67,1.67,0,0,1,1,.27,1.08,1.08,0,0,1,.37,1Zm-7.87,5.76a.22.22,0,0,0,.08.18.74.74,0,0,0,.37.06h4.66v-.91H161.1c-.3,0-.45.09-.45.26Zm12.72-.43a.19.19,0,0,0-.1-.18.72.72,0,0,0-.36-.06h-4.39V12h4.39c.31,0,.46-.07.46-.21Zm-4.85,5.54v1h5v-.67c0-.19-.14-.29-.41-.29ZM173,21.13a.73.73,0,0,0,.39-.07.42.42,0,0,0,.09-.32v-.67h-5v1.06Z"/><path class="cls-1" d="M192,12.82c-.5.71-1,1-1.57.89v9.48a2.77,2.77,0,0,1-.56,2,2.6,2.6,0,0,1-1.93.59h-4.83a2.58,2.58,0,0,1-1.92-.59,2.87,2.87,0,0,1-.55-2V9.82a2.92,2.92,0,0,1,.55-1.94,2.46,2.46,0,0,1,1.92-.62h1.11c.05-.21.09-.42.13-.63s.08-.43.11-.67A1.9,1.9,0,0,1,185,4.68a1.46,1.46,0,0,1,1.16-.28c.56.08.91.27,1.05.58a2.6,2.6,0,0,1,.1,1.41c0,.15-.07.29-.1.43l-.09.44h.79a2.49,2.49,0,0,1,1.93.62,2.81,2.81,0,0,1,.56,1.94v.27a22,22,0,0,0,1.13-1.95,11.94,11.94,0,0,0,.94-2.49,1.82,1.82,0,0,1,.66-1.21,1.44,1.44,0,0,1,1.19-.11,1.15,1.15,0,0,1,.91.69,2,2,0,0,1,0,1.32,8,8,0,0,0-.23.77h3.91a3.63,3.63,0,0,1,1.41.25,2.4,2.4,0,0,1,.94.7,3,3,0,0,1,.54,1.06,6.58,6.58,0,0,1,.23,1.33c0,.86,0,1.81,0,2.83s0,2-.07,3-.08,2-.14,2.84-.13,1.63-.2,2.22a16.22,16.22,0,0,1-.53,2.85,4.86,4.86,0,0,1-.88,1.75,2.87,2.87,0,0,1-1.35.87,5.65,5.65,0,0,1-1.87.2,16.89,16.89,0,0,1-1.68-.24,14,14,0,0,1-2.14-.65,2.28,2.28,0,0,1-1.26-.88A1.53,1.53,0,0,1,192,24a1.24,1.24,0,0,1,.79-.83,2.33,2.33,0,0,1,1.44.23,10.23,10.23,0,0,0,2,.66,1.71,1.71,0,0,0,1.33-.19,2.28,2.28,0,0,0,.8-1.26,14.06,14.06,0,0,0,.48-2.54c.11-.92.19-2.13.23-3.65s.06-3.43.06-5.71a.77.77,0,0,0-.24-.63,1.37,1.37,0,0,0-.84-.19h-4.25a13.69,13.69,0,0,1-.87,1.46C192.59,11.86,192.26,12.34,192,12.82Zm-4.33-2a.85.85,0,0,0-.16-.6,1.09,1.09,0,0,0-.75-.17H184a.49.49,0,0,0-.47.21,1.53,1.53,0,0,0-.1.63v4.15h4.24Zm0,7h-4.24V22a.88.88,0,0,0,.19.66,1,1,0,0,0,.67.18H187c.32,0,.51-.06.58-.17a1.29,1.29,0,0,0,.09-.57Zm9.75.89a1.86,1.86,0,0,1,.27,1.46,1.48,1.48,0,0,1-.77.79,1.21,1.21,0,0,1-1.25.07,2.45,2.45,0,0,1-.89-1.24,21.92,21.92,0,0,0-1.11-2.37c-.38-.71-.8-1.45-1.27-2.22A1.91,1.91,0,0,1,192,14a1.23,1.23,0,0,1,.55-.93,1.57,1.57,0,0,1,1.15-.27c.36.07.68.38,1,.92.43.82.87,1.64,1.32,2.47S196.94,17.91,197.37,18.78Z"/><path class="cls-1" d="M206,22.26a1.06,1.06,0,0,1,.75-.59,1.23,1.23,0,0,1,.93.23.75.75,0,0,1,.43.81,3.37,3.37,0,0,1-.45,1.08,10.5,10.5,0,0,1-1,1.39c-.32.37-.69.76-1.1,1.16a1.79,1.79,0,0,1-1,.36,1,1,0,0,1-.91-.63,1,1,0,0,1,.05-.92,3.61,3.61,0,0,1,.64-.81l.88-.92A5.93,5.93,0,0,0,206,22.26Zm10.56-9a1.75,1.75,0,0,1,.87.19.74.74,0,0,1,.33.7.86.86,0,0,1-.33.74,1.49,1.49,0,0,1-.87.24H204.93a1.49,1.49,0,0,1-.87-.23.82.82,0,0,1-.33-.73.78.78,0,0,1,.33-.71,1.75,1.75,0,0,1,.87-.2h4.51a1.4,1.4,0,0,1-.08-.53,1.19,1.19,0,0,1,.1-.45H207a2.16,2.16,0,0,1-1.53-.48,2.59,2.59,0,0,1-.52-1.88V7.38A5.54,5.54,0,0,1,205,6.19a1.53,1.53,0,0,1,.36-.72,1.29,1.29,0,0,1,.64-.35A4.1,4.1,0,0,1,207,5h7.43a2.19,2.19,0,0,1,1.64.5,2.8,2.8,0,0,1,.45,1.86V9.94a2.72,2.72,0,0,1-.47,1.88,2.21,2.21,0,0,1-1.62.48H211.7c0,.09.1.24.17.43a5.2,5.2,0,0,0,.21.55ZM207,21.39a5,5,0,0,1-.94-.08,1.44,1.44,0,0,1-.62-.3,1.38,1.38,0,0,1-.36-.6,3.48,3.48,0,0,1-.12-1V18.15a3.69,3.69,0,0,1,.11-1,1.36,1.36,0,0,1,.33-.62,1.18,1.18,0,0,1,.61-.31,4.22,4.22,0,0,1,.94-.09h7.56a2.46,2.46,0,0,1,1.49.4,1.92,1.92,0,0,1,.55,1.64V19.4A2,2,0,0,1,216,21a2.59,2.59,0,0,1-1.54.38h-2.06V24.8a2.58,2.58,0,0,1-.55,1.75,2.43,2.43,0,0,1-2,.58,8.17,8.17,0,0,1-1.16-.11,4.75,4.75,0,0,1-.86-.25,1,1,0,0,1-.62-.6,1.25,1.25,0,0,1,0-.87,1,1,0,0,1,.54-.67,1.33,1.33,0,0,1,.83,0,1.82,1.82,0,0,0,1,.14c.19-.06.28-.26.28-.58V21.39Zm7-14.18c0-.24-.09-.36-.26-.36h-6.1a.27.27,0,0,0-.2.05s-.06.12-.06.28V8H214Zm0,2.23h-6.62v.7c0,.22.13.33.41.33h5.78a.67.67,0,0,0,.32-.06c.07,0,.11-.15.11-.32Zm0,9a.57.57,0,0,0-.07-.36.33.33,0,0,0-.24-.07h-6c-.22,0-.33.14-.33.41v.77c0,.28.11.43.33.43h5.88c.18,0,.29,0,.34-.11A.81.81,0,0,0,214,19Zm1.37,7.18-.87-1c-.22-.27-.43-.49-.62-.69a1.67,1.67,0,0,1-.56-.92.79.79,0,0,1,.34-.8.92.92,0,0,1,.8-.34,1.4,1.4,0,0,1,.72.46q.6.6,1,1c.24.28.49.6.76,1a1.34,1.34,0,0,1,.34.69,3.92,3.92,0,0,1,.35-.38,2.5,2.5,0,0,1,.52-.38c.47-.34.95-.7,1.41-1.1a19.16,19.16,0,0,0,1.42-1.34c.48-.5,1-1.07,1.47-1.69s1-1.34,1.55-2.14a2.91,2.91,0,0,1,1-1.08,1.19,1.19,0,0,1,1.08.05,1.23,1.23,0,0,1,.77.91,2.2,2.2,0,0,1-.46,1.54c-.57.89-1.14,1.7-1.7,2.41s-1.13,1.36-1.69,1.94a20.33,20.33,0,0,1-1.76,1.62,20.69,20.69,0,0,1-1.9,1.4,2,2,0,0,1-1.24.39,1.25,1.25,0,0,1-.92-.75,1.29,1.29,0,0,1-.17-.65s0,0-.05.06l-.07.06a1,1,0,0,1-.73.29A1.27,1.27,0,0,1,215.37,25.57Zm10-14.47a1.36,1.36,0,0,1,.69,1.05,2.52,2.52,0,0,1-.69,1.35,19.15,19.15,0,0,1-2.6,2.66,18.63,18.63,0,0,1-3,2.09,1.76,1.76,0,0,1-1.45.32,1.36,1.36,0,0,1-.8-.78,1.38,1.38,0,0,1,0-1.16,2.18,2.18,0,0,1,.94-.78,15.57,15.57,0,0,0,2.64-1.72,12.53,12.53,0,0,0,2.21-2.36,2.56,2.56,0,0,1,1-.94A1.16,1.16,0,0,1,225.42,11.1Zm-.26-6.24a1.41,1.41,0,0,1,.73,1,2.3,2.3,0,0,1-.73,1.44,23.86,23.86,0,0,1-2.23,2.36,22.14,22.14,0,0,1-2.69,2.08,2.81,2.81,0,0,1-1.4.58,1.09,1.09,0,0,1-1-.67c-.29-.5-.36-.89-.2-1.18a2.7,2.7,0,0,1,1-.91,18.58,18.58,0,0,0,2.48-1.81,13.43,13.43,0,0,0,1.84-2,3.26,3.26,0,0,1,1.19-1.08,1.07,1.07,0,0,1,1,.24Z"/><path class="cls-1" d="M250.6,13.59a1.46,1.46,0,0,1-.28.94,1.24,1.24,0,0,1-1,.36H229.07a1.2,1.2,0,0,1-1-.36,1.58,1.58,0,0,1-.25-.94,1.67,1.67,0,0,1,.25-1,1.2,1.2,0,0,1,1-.36h4.56c-.08-.23-.15-.45-.23-.67a7.4,7.4,0,0,0-.25-.7,2.3,2.3,0,0,1-.21-1.1,1,1,0,0,1,.33-.7h-3c-.92,0-1.37-.43-1.37-1.3a1.49,1.49,0,0,1,.3-1,1.34,1.34,0,0,1,1.07-.36h7.22l-.07-.14a1.64,1.64,0,0,1-.1-1.16,1.69,1.69,0,0,1,2.05-.9,1.68,1.68,0,0,1,.81,1c.06.22.13.42.19.6s.14.38.22.6H248c.91,0,1.37.43,1.37,1.3a1.41,1.41,0,0,1-.34,1,1.34,1.34,0,0,1-1,.36h-2.55a1.25,1.25,0,0,1,.14.66,3.12,3.12,0,0,1-.18.9c-.12.3-.22.6-.31.88s-.2.52-.29.73h4.46a1.24,1.24,0,0,1,1,.36A1.54,1.54,0,0,1,250.6,13.59Zm-2.93,10.75a2.82,2.82,0,0,1-.51,1.88,2.43,2.43,0,0,1-1.84.57H232.87a2.33,2.33,0,0,1-1.83-.57,3,3,0,0,1-.48-1.88V18.18a2.56,2.56,0,0,1,.48-1.79,2.56,2.56,0,0,1,1.83-.49h12.45a2.67,2.67,0,0,1,1.84.49,2.45,2.45,0,0,1,.51,1.79Zm-2.88-5.61c0-.15-.09-.22-.29-.22H233.78c-.23,0-.34.09-.34.27V20h11.35Zm0,3.84H233.44v1.34c0,.18.11.27.34.27h10.7a.48.48,0,0,0,.24-.05c.05,0,.07-.11.07-.24Zm-8.4-10.44s0,0,0,.07,0,0,0,.05h5.4a6.2,6.2,0,0,0,.57-1.23c.15-.41.28-.84.41-1.27a2.92,2.92,0,0,1,.26-.67h-7.77a.93.93,0,0,1,.2.3c.06.12.11.24.16.37.13.42.25.81.37,1.18S236.26,11.7,236.39,12.13Z"/><path class="cls-1" d="M256.29,19.45l-1.06,2.76a2.23,2.23,0,0,1-.6.92,1.63,1.63,0,0,1-1.13.35,1.68,1.68,0,0,1-1.18-.41c-.3-.27-.34-.73-.11-1.39l4.94-14.42a1.36,1.36,0,0,1,.52-.69,2,2,0,0,1,2.13,0,1.36,1.36,0,0,1,.52.69l5,14.47a1.24,1.24,0,0,1-.15,1.33,1.68,1.68,0,0,1-1.19.42,1.44,1.44,0,0,1-1.1-.32,2.34,2.34,0,0,1-.56-.83l-1.15-2.88Zm4.29-2.71-1.84-6-1.85,6Z"/><path class="cls-1" d="M267.21,8.1a3.59,3.59,0,0,1,.08-.82.84.84,0,0,1,.33-.48,1.55,1.55,0,0,1,.68-.23,9,9,0,0,1,1.16-.06h3.39a11.41,11.41,0,0,1,2.68.27,4,4,0,0,1,1.78.88,3.55,3.55,0,0,1,1,1.65,8.59,8.59,0,0,1,.31,2.51,8.56,8.56,0,0,1-.33,2.54,3.89,3.89,0,0,1-2.82,2.71,9.63,9.63,0,0,1-2.63.31h-2.52v4.85a1.25,1.25,0,0,1-.36.87,1.61,1.61,0,0,1-1.2.38,1.54,1.54,0,0,1-1.2-.41,1.26,1.26,0,0,1-.36-.84Zm3.12,6.6h2.52A2.65,2.65,0,0,0,275,14a3.39,3.39,0,0,0,.56-2.18,3.66,3.66,0,0,0-.2-1.3,2.08,2.08,0,0,0-.57-.8,2,2,0,0,0-.84-.41,4.9,4.9,0,0,0-1-.11h-2.52Z"/><path class="cls-1" d="M280.26,8.1a3,3,0,0,1,.09-.82.78.78,0,0,1,.32-.48,1.59,1.59,0,0,1,.69-.23,8.91,8.91,0,0,1,1.16-.06h3.38a11.35,11.35,0,0,1,2.68.27,4.07,4.07,0,0,1,1.79.88,3.64,3.64,0,0,1,1,1.65,9,9,0,0,1,.31,2.51,8.22,8.22,0,0,1-.34,2.54,3.85,3.85,0,0,1-2.82,2.71,9.58,9.58,0,0,1-2.63.31h-2.52v4.85a1.25,1.25,0,0,1-.36.87,1.61,1.61,0,0,1-1.2.38,1.54,1.54,0,0,1-1.2-.41,1.26,1.26,0,0,1-.36-.84Zm3.12,6.6h2.52A2.63,2.63,0,0,0,288,14a3.33,3.33,0,0,0,.57-2.18,3.43,3.43,0,0,0-.21-1.3A1.91,1.91,0,0,0,287,9.33a4.93,4.93,0,0,0-1.06-.11h-2.52Z"/><path class="cls-1" d="M22.72,53.17a3.52,3.52,0,0,1-.53,2.09,2.08,2.08,0,0,1-1.75.74,4.43,4.43,0,0,1-1.85-.38,1.5,1.5,0,0,1-.87-.84,1.78,1.78,0,0,1,0-1.16,1.68,1.68,0,0,1,.67-.91,1.62,1.62,0,0,1,1.28.15c.14.06.24.07.3,0a.6.6,0,0,0,.08-.38V47.94l-.29.18-.26.13,0,0c-1,.58-1.66.4-2.06-.53a1.4,1.4,0,0,1-.12-1.2,2.29,2.29,0,0,1,1.08-.86l.83-.43.8-.48V39.92H18.71a1.41,1.41,0,0,1-1-.3,1.41,1.41,0,0,1-.3-1,1.39,1.39,0,0,1,.3-1,1.41,1.41,0,0,1,1-.3h1.37V34.42a1.42,1.42,0,0,1,.36-1.09,1.44,1.44,0,0,1,1-.32c.87,0,1.3.47,1.3,1.41V37.3h.7a1.36,1.36,0,0,1,1,.3,1.39,1.39,0,0,1,.3,1,1.41,1.41,0,0,1-.3,1,1.36,1.36,0,0,1-1,.3h-.7v2.76a1.35,1.35,0,0,1,2,.26,1.26,1.26,0,0,1,.29.92,1.88,1.88,0,0,1-.75,1.1h0l-.78.67c-.25.21-.5.41-.76.6Zm11.09,1.7a1.17,1.17,0,0,1-.42,1,1.43,1.43,0,0,1-.88.31,1.33,1.33,0,0,1-.85-.31,1.22,1.22,0,0,1-.4-1V53.1H26.15a1.57,1.57,0,0,1-1-.27,1,1,0,0,1-.31-.81,1.09,1.09,0,0,1,.31-.89,1.57,1.57,0,0,1,1-.27h5.11v-1.1H28.58a6,6,0,0,1-1.25-.1,1.4,1.4,0,0,1-.76-.37,1.51,1.51,0,0,1-.38-.78,6.71,6.71,0,0,1-.11-1.34V43.52a6.2,6.2,0,0,1,.11-1.28,1.52,1.52,0,0,1,.39-.78,1.5,1.5,0,0,1,.77-.4A5.88,5.88,0,0,1,28.58,41h2.68V39.87H28.62a2,2,0,0,1-1.06-.19c-.19-.13-.28-.4-.28-.82a1.53,1.53,0,0,1-1,.27,1.53,1.53,0,0,1-1-.28,1.34,1.34,0,0,1-.32-1V36.66a3,3,0,0,1,.68-2.2,2.92,2.92,0,0,1,2.15-.68h9.62a3.24,3.24,0,0,1,2.24.64,2.56,2.56,0,0,1,.69,1.95,3.87,3.87,0,0,1-.17,1.09,9.14,9.14,0,0,1-.43,1.24,1.27,1.27,0,0,1-.72.78,1.57,1.57,0,0,1-1.05-.14.76.76,0,0,1-.36-.16.7.7,0,0,1-.38.56,2.44,2.44,0,0,1-.94.13H33.81V41h2.78a6.56,6.56,0,0,1,1.3.11,1.51,1.51,0,0,1,.77.38,1.67,1.67,0,0,1,.36.78,7.68,7.68,0,0,1,.09,1.3v3.65A7.25,7.25,0,0,1,39,48.43a1.58,1.58,0,0,1-.38.79,1.48,1.48,0,0,1-.76.42,5.65,5.65,0,0,1-1.29.12H33.81v1.1H38.9a1.57,1.57,0,0,1,1,.27,1.09,1.09,0,0,1,.31.89,1,1,0,0,1-.31.81,1.57,1.57,0,0,1-1,.27H33.81Zm-6.24-17a2,2,0,0,1,1.05-.19h2.64v-.65a2.93,2.93,0,0,1,.06-.61,1,1,0,0,1,.26-.47h-3.8a.18.18,0,0,0-.18.11,1.15,1.15,0,0,0,0,.3Zm1,6.41h2.73V43.09H28.77c-.11,0-.18,0-.21,0a.56.56,0,0,0,0,.24Zm0,3.07c0,.13,0,.21.06.23a.7.7,0,0,0,.32,0h2.35v-1.3H28.53ZM33.45,36a1.47,1.47,0,0,1,.36,1.08v.65h2.45a2,2,0,0,1,.91.17.33.33,0,0,1,0-.12l0-.1a2.14,2.14,0,0,0,.18-.43l.21-.57a.89.89,0,0,0,.05-.47c0-.14-.11-.21-.22-.21Zm.36,7.11v1.22h2.83v-1a.22.22,0,0,0-.06-.18.88.88,0,0,0-.3,0Zm2.83,3.26H33.81v1.3H36.3a.52.52,0,0,0,.29,0,.38.38,0,0,0,0-.24Z"/><path class="cls-1" d="M45.78,41.46q.75.6.75,1.11a1.63,1.63,0,0,1-.39,1,1.26,1.26,0,0,1-.72.55c-.25.07-.6-.08-1-.45l-.62-.49-.48-.36-.43-.29-.46-.28a1.54,1.54,0,0,1-.72-.83,1.4,1.4,0,0,1,.24-1.16c.43-.69,1-.78,1.82-.29l.62.41.48.32.44.33Zm1,7c-.22.68-.44,1.3-.66,1.89s-.43,1.13-.66,1.64-.45,1-.68,1.5-.48,1-.73,1.45a1.35,1.35,0,0,1-.86.78,1.19,1.19,0,0,1-1-.15c-.72-.45-.74-1.24-.07-2.38.45-.77.88-1.61,1.31-2.53a21.19,21.19,0,0,0,1.11-3.11,2.24,2.24,0,0,1,.59-1.13,1,1,0,0,1,1-.07,1.13,1.13,0,0,1,.78.7A2.12,2.12,0,0,1,46.79,48.46Zm-.38-12.84a1.82,1.82,0,0,1,.74,1,1.59,1.59,0,0,1-.41,1.07,1,1,0,0,1-.84.53,1.83,1.83,0,0,1-1-.48c-.36-.27-.68-.52-1-.73l-1-.69a1.88,1.88,0,0,1-.75-.9,1,1,0,0,1,.2-1.06,1.21,1.21,0,0,1,1.85-.29l1.13.75C45.71,35.08,46.06,35.34,46.41,35.62ZM63.54,39.8a1,1,0,0,1-.24.79,1,1,0,0,1-.72.22.89.89,0,0,1-.64-.22,1,1,0,0,1-.24-.79V38.55c0-.21-.06-.31-.17-.31H59.68a2.32,2.32,0,0,1,.43.24,3.41,3.41,0,0,1,.55.46c.15.14.29.29.44.45a1,1,0,0,1,.34.59.63.63,0,0,1-.22.49.82.82,0,0,1-.64.24,1.26,1.26,0,0,1-.64-.38l-.38-.39c-.13-.12-.26-.24-.38-.33-.55-.4-.64-.79-.27-1.18a.88.88,0,0,1,.24-.19h-.67a.22.22,0,0,0-.19.12.48.48,0,0,0-.07.26v1.23c0,.41-.07.67-.21.75a1.1,1.1,0,0,1-.61.14,1.94,1.94,0,0,1-.41,0,1.5,1.5,0,0,0,.12.34c0,.09.1.2.15.31H63c.61,0,.91.33.91,1a.79.79,0,0,1-.91.89H59.13v1h2.81a1.62,1.62,0,0,1,1.17.39A1.75,1.75,0,0,1,63.52,46v1c0,1.15-.53,1.73-1.58,1.73H50.1c0,1.15-.14,2.22-.27,3.21a17.74,17.74,0,0,1-.64,2.88A1.76,1.76,0,0,1,48.53,56a1.31,1.31,0,0,1-1,.07.87.87,0,0,1-.7-.51A2.23,2.23,0,0,1,47,54.18c.16-.5.29-1,.41-1.52s.2-1.06.27-1.64.13-1.22.17-1.92.06-1.48.06-2.36V43a2.32,2.32,0,0,1,.13-.86,1.28,1.28,0,0,1,.35-.52,1.14,1.14,0,0,1,.52-.24,3.37,3.37,0,0,1,.66-.06h5.28v0a1.25,1.25,0,0,1-.08-.69,1.1,1.1,0,0,1-.64.16,1.24,1.24,0,0,1-.66-.15c-.17-.11-.26-.36-.26-.76V38.46a.32.32,0,0,0-.07-.2q-.07-.09-.12-.09H51.18a1.08,1.08,0,0,1,.39.24l.48.39q.21.18.48.45a.82.82,0,0,1,.37.57.62.62,0,0,1-.25.51.69.69,0,0,1-.59.24.88.88,0,0,1-.56-.39l-.35-.32a3.39,3.39,0,0,0-.45-.35c-.52-.4-.6-.78-.21-1.15a.86.86,0,0,1,.29-.19h-.63q-.24,0-.24.36V40A.82.82,0,0,1,49,41a1.07,1.07,0,0,1-.71-.2A1,1,0,0,1,48,40V38.17a1.92,1.92,0,0,1,.43-1.44,1.6,1.6,0,0,1,1.13-.41h4.06a1.27,1.27,0,0,1,1,.42,2.29,2.29,0,0,1,.35,1.43v1.7a1,1,0,0,1,0,.31.79.79,0,0,1,.39-.19,1.84,1.84,0,0,1,.93-.07V38.26a2,2,0,0,1,.42-1.44,1.55,1.55,0,0,1,1.12-.4H62a1.64,1.64,0,0,1,1.12.42,1.84,1.84,0,0,1,.46,1.42Zm-8.16-5a1.18,1.18,0,0,1-.21.7.83.83,0,0,1-.7.28H49a.85.85,0,0,1-.71-.28,1.13,1.13,0,0,1-.23-.7c0-.69.31-1,.94-1h5.49C55.08,33.73,55.38,34.07,55.38,34.76Zm-5.25,9.5h2.3v-1h-2c-.21,0-.31.15-.31.43Zm2.3,2.81V46h-2.3v1.08Zm3.67,6.55a1.08,1.08,0,0,1-.07.84,1.37,1.37,0,0,1-.79.48,10,10,0,0,1-1.34.47,18.18,18.18,0,0,1-1.8.4,1.28,1.28,0,0,1-1.2-.25,2.83,2.83,0,0,1-.36-1.74V50a.93.93,0,0,1,.33-.8,1.13,1.13,0,0,1,1.42,0,1,1,0,0,1,.33.84v0h2.64a.72.72,0,0,1,.66.29,1.18,1.18,0,0,1,.21.72c0,.67-.29,1-.87,1H52.62V53c0,.27.05.45.14.52a.55.55,0,0,0,.46,0,4.32,4.32,0,0,0,.54-.13,3,3,0,0,0,.35-.11l.28-.1.35-.14a1.49,1.49,0,0,1,.9,0A.78.78,0,0,1,56.1,53.62Zm-1.46-9.36h2.3v-1h-2.3Zm0,2.81h2.3V46h-2.3Zm9.41-12.29a.91.91,0,0,1-.28.72,1,1,0,0,1-.73.27h-6.1a.87.87,0,0,1-.69-.27,1,1,0,0,1-.24-.72c0-.68.31-1,.93-1H63a1,1,0,0,1,.73.28A1,1,0,0,1,64.05,34.78Zm.36,18.51a6.37,6.37,0,0,1-.19,1.34,1.46,1.46,0,0,1-.44.73,1.5,1.5,0,0,1-.73.34,8.46,8.46,0,0,1-1.07.13l-.74,0H59.57l-.71,0a4.14,4.14,0,0,1-1.15-.27A1.8,1.8,0,0,1,57,55a2.42,2.42,0,0,1-.37-.91,6.82,6.82,0,0,1-.11-1.29V49.93a.81.81,0,0,1,.37-.79,1.61,1.61,0,0,1,.74-.2,1.12,1.12,0,0,1,.64.22.86.86,0,0,1,.32.77v.12H62.7a.72.72,0,0,1,.66.29,1.18,1.18,0,0,1,.21.72c0,.67-.29,1-.87,1H58.58v.72a1.5,1.5,0,0,0,.14.77.76.76,0,0,0,.62.29,17,17,0,0,0,2.26,0,1.31,1.31,0,0,0,.62-.14c.12-.08.18-.27.2-.56s.13-.7.31-.82a1.15,1.15,0,0,1,.74-.16,1.17,1.17,0,0,1,.75.25A1.11,1.11,0,0,1,64.41,53.29ZM59.13,46v1.08h1.92a.19.19,0,0,0,.19-.14,1.16,1.16,0,0,0,0-.34v-.26c0-.23-.08-.34-.24-.34Z"/><path class="cls-1" d="M79.65,45.73a2.81,2.81,0,0,1-.47,1.83,2.23,2.23,0,0,1-1.74.54h-8A19.14,19.14,0,0,1,69,51.6a15.58,15.58,0,0,1-1,3.2,2,2,0,0,1-1,1.08,1.25,1.25,0,0,1-1.09-.24,1.42,1.42,0,0,1-.55-.85,1.65,1.65,0,0,1,.38-1.33,7.24,7.24,0,0,0,1.08-2.81A23.1,23.1,0,0,0,67,46.54V41.91a6,6,0,0,1,.09-1.13,1.48,1.48,0,0,1,.32-.73,1.27,1.27,0,0,1,.66-.38,4.63,4.63,0,0,1,1.09-.11h8.26a5.1,5.1,0,0,1,1.15.1,1.12,1.12,0,0,1,.66.36,1.41,1.41,0,0,1,.31.72,6.17,6.17,0,0,1,.09,1.17Zm.57-7a1.21,1.21,0,0,1-.9.67,1.76,1.76,0,0,1-1.21-.55c-.29-.23-.55-.44-.78-.64s-.46-.39-.68-.56v.07c0,.53-.11.85-.31,1a1.81,1.81,0,0,1-.84.17H71.25a1,1,0,0,1-.65-.23,1.09,1.09,0,0,1-.36-.56c-.43.32-.88.62-1.33.9s-.93.54-1.41.8a1.7,1.7,0,0,1-1.42.26,1.38,1.38,0,0,1-.76-.88,1.41,1.41,0,0,1,.07-1,2,2,0,0,1,1-.85,14.42,14.42,0,0,0,2.63-1.46,21.22,21.22,0,0,0,2.7-2.19,2.36,2.36,0,0,1,1.56-.72A1.87,1.87,0,0,1,74,33a5.34,5.34,0,0,1,.66.35l1.26.82,1.33.87,1.3.88c.41.29.79.56,1.12.82a2.2,2.2,0,0,1,.78.94A1.15,1.15,0,0,1,80.22,38.77Zm-10.8,4.08H77.2V42a.5.5,0,0,0-.07-.33.52.52,0,0,0-.34-.07h-7c-.18,0-.29,0-.33.1a1,1,0,0,0-.06.42ZM76.72,46q.48,0,.48-.48l.07-.77H69.5L69.42,46ZM80,53.29a5,5,0,0,1-.1,1.13,1.34,1.34,0,0,1-.35.68,1.37,1.37,0,0,1-.69.35,5.82,5.82,0,0,1-1.12.09h-6a1.85,1.85,0,0,1-2.23-2.25v-1.8a6.57,6.57,0,0,1,.09-1.21,1.51,1.51,0,0,1,.35-.74,1.43,1.43,0,0,1,.68-.36,5.64,5.64,0,0,1,1.11-.09h6a5.3,5.3,0,0,1,1.06.09,1.42,1.42,0,0,1,.69.36,1.58,1.58,0,0,1,.39.71A4.52,4.52,0,0,1,80,51.39ZM73.65,35.7a.65.65,0,0,0-.3-.12.41.41,0,0,0-.25.12l-.58.51-.58.52h3.39c-.24-.16-.5-.33-.77-.49Zm3.81,15.74a.34.34,0,0,0,0-.17.3.3,0,0,0-.21-.05h-5q-.24,0-.24.27v1.65a.41.41,0,0,0,0,.23.35.35,0,0,0,.24.06h4.92c.12,0,.18,0,.21-.06a.56.56,0,0,0,0-.23Zm10,.77a6.76,6.76,0,0,1-.29,2.21,2.2,2.2,0,0,1-.92,1.22,2.9,2.9,0,0,1-1.63.35,10.55,10.55,0,0,1-2.44-.45c-.77-.22-1.22-.5-1.37-.84a1.87,1.87,0,0,1,.12-1.36,1.22,1.22,0,0,1,.77-.81,2.27,2.27,0,0,1,1.27.13,7.6,7.6,0,0,0,1,.3.75.75,0,0,0,.55,0,.54.54,0,0,0,.23-.42,6.08,6.08,0,0,0,0-.84V34.5a1.56,1.56,0,0,1,.31-1.06,1.27,1.27,0,0,1,1-.36,1.43,1.43,0,0,1,1,.32,1.55,1.55,0,0,1,.32,1.1Zm-3.81-3.58a1.45,1.45,0,0,1-.34,1.11,1.32,1.32,0,0,1-.89.28,1.3,1.3,0,0,1-.92-.28,1.55,1.55,0,0,1-.3-1.11V36.54c0-.6.1-1,.3-1.12a1.54,1.54,0,0,1,.92-.23,1.6,1.6,0,0,1,.88.23c.23.15.35.52.35,1.12Z"/><path class="cls-1" d="M94,44.82h.82a4.19,4.19,0,0,1,1,.09.92.92,0,0,1,.55.37,1.5,1.5,0,0,1,.2.77,6.58,6.58,0,0,1-.07,1.26,15.59,15.59,0,0,1-.31,1.74c-.13.54-.27,1-.43,1.5a6.2,6.2,0,0,0,2,1.68,6,6,0,0,0,2.82.6H111a1.45,1.45,0,0,1,1.07.31,1.63,1.63,0,0,1,.27,1.06c0,.85-.45,1.27-1.34,1.27H100.5a11.9,11.9,0,0,1-2-.15,8.11,8.11,0,0,1-1.6-.46,5.74,5.74,0,0,1-1.32-.76,9.4,9.4,0,0,1-1.17-1.05,14.88,14.88,0,0,1-1.12,1.38A7.5,7.5,0,0,1,92,55.57a2,2,0,0,1-1.2.41,1.09,1.09,0,0,1-.91-.58,1.44,1.44,0,0,1-.18-1,1.52,1.52,0,0,1,.71-1,8.22,8.22,0,0,0,2.16-2.17,10.12,10.12,0,0,0,1.17-2.78c.13-.43.15-.69.07-.79a1.09,1.09,0,0,0-.52-.24h-.75a5,5,0,0,1-1.31-.13,1,1,0,0,1-.63-.4.89.89,0,0,1-.09-.66,3.46,3.46,0,0,1,.38-.92l1.39-2.66a.81.81,0,0,0,.13-.47c0-.11-.17-.16-.44-.16H90.78a1.33,1.33,0,0,1-1-.26,1.46,1.46,0,0,1-.24-1,1.72,1.72,0,0,1,.24-1,1.13,1.13,0,0,1,1-.33h2.91a2.47,2.47,0,0,1,1.46.39,1.36,1.36,0,0,1,.55,1.17,1.93,1.93,0,0,1-.15.71l-.28.63Zm1-6.84a.91.91,0,0,1-1,.32,4,4,0,0,1-1.2-.68c-.37-.31-.72-.58-1-.81l-1.17-.87A1.72,1.72,0,0,1,90,35a1.19,1.19,0,0,1,.36-1q.8-1,2.16,0c.41.31.81.59,1.19.87s.76.58,1.16.93a1.88,1.88,0,0,1,.7,1.09A1.49,1.49,0,0,1,95.06,38Zm16.15,2.4a1.22,1.22,0,0,1,.9.33,1.37,1.37,0,0,1,.32,1,1.35,1.35,0,0,1-.32.93,1.18,1.18,0,0,1-.9.34H97a1.1,1.1,0,0,1-.82-.31,1.35,1.35,0,0,1-.31-1,1.44,1.44,0,0,1,.25-.86,1,1,0,0,1,.66-.41l-.14-.08a.49.49,0,0,1-.14-.11,1.37,1.37,0,0,1-.57-.9,1.74,1.74,0,0,1,.49-1.19c.23-.29.42-.56.59-.82a7,7,0,0,0,.47-.8c.14-.28.28-.57.41-.88s.25-.64.38-1A2,2,0,0,1,99,33.54a1.2,1.2,0,0,1,1.08,0,1.22,1.22,0,0,1,.75.7,1.72,1.72,0,0,1,0,1H103v-.93a1.28,1.28,0,0,1,.38-1,1.58,1.58,0,0,1,1-.3,1.53,1.53,0,0,1,1,.3,1.28,1.28,0,0,1,.38,1v.93H110a1.38,1.38,0,0,1,1,.3,1.31,1.31,0,0,1,.34,1,1.15,1.15,0,0,1-1.3,1.3h-4.25v2.52Zm-.51,8.92a3.67,3.67,0,0,1-.39,2,1.47,1.47,0,0,1-1.31.59H99.21a1.45,1.45,0,0,1-1.32-.63,3.74,3.74,0,0,1-.41-2v-2.9a2.78,2.78,0,0,1,.18-1.09,1.66,1.66,0,0,1,.48-.66,1.68,1.68,0,0,1,.7-.33,4.46,4.46,0,0,1,.85-.08h8.83a2,2,0,0,1,2.18,2.4Zm-12-9.86a2.39,2.39,0,0,1-.93.94H103V37.86H99.66a8,8,0,0,1-.42.73C99.09,38.84,98.91,39.12,98.7,39.44Zm1.49,9.29a.66.66,0,0,0,0,.32.21.21,0,0,0,.17.06h7.32c.14,0,.23,0,.26-.09a1,1,0,0,0,.05-.36V47.22a.64.64,0,0,0-.05-.3c0-.06-.12-.09-.26-.09h-7.27a.27.27,0,0,0-.22.07,1,1,0,0,0,0,.39Z"/><path class="cls-1" d="M130.79,37a11.74,11.74,0,0,1,2.11.15,2.34,2.34,0,0,1,1.23.54,1.86,1.86,0,0,1,.55,1.12,11.48,11.48,0,0,1,.1,1.91c0,1.25,0,2.46,0,3.63s-.06,2.22-.1,3.18-.08,1.76-.13,2.44a10.67,10.67,0,0,1-.17,1.46,8.34,8.34,0,0,1-.62,1.81,4.26,4.26,0,0,1-1,1.29,3.61,3.61,0,0,1-1.4.78,6.4,6.4,0,0,1-2,.27,14.35,14.35,0,0,1-1.73-.11,16.93,16.93,0,0,1-2.13-.44,2.15,2.15,0,0,1-1.32-.74,1.33,1.33,0,0,1,0-1.23c.27-.95,1-1.25,2.16-.91.35.11.66.2.92.26s.51.11.75.14a3.72,3.72,0,0,0,.64.06l.64,0a2,2,0,0,0,1.52-.53,2.94,2.94,0,0,0,.69-1.44c0-.24.07-.67.11-1.29s.08-1.36.12-2.25.07-1.89.1-3,.06-2.28.08-3.49a.69.69,0,0,0-.18-.53,1.59,1.59,0,0,0-.93-.17h-5.57a41.24,41.24,0,0,1-.81,5.16,17.42,17.42,0,0,1-1.5,4.15,15.31,15.31,0,0,1-2.47,3.46,22.91,22.91,0,0,1-3.71,3.09c-1.06.66-1.83.52-2.33-.4a1.51,1.51,0,0,1,.7-2.07,15.76,15.76,0,0,0,3-2.41A13.08,13.08,0,0,0,120.18,48a15.93,15.93,0,0,0,1.38-3.61,28.42,28.42,0,0,0,.76-4.44h-5.57a1.54,1.54,0,0,1-1.13-.34,1.52,1.52,0,0,1-.33-1.1,1.56,1.56,0,0,1,.36-1.09,1.4,1.4,0,0,1,1.1-.4h5.79c0-.22,0-.45,0-.67s0-.45,0-.67v-.48c0-.15,0-.3,0-.46a1.58,1.58,0,0,1,.34-1.21,1.83,1.83,0,0,1,2.32,0,2.35,2.35,0,0,1,.31,1.41c0,.36,0,.73,0,1.09s0,.71,0,1Z"/><path class="cls-1" d="M146.13,33a1.74,1.74,0,0,1,.85.6,1.15,1.15,0,0,1,.06,1.1l-6.48,19.83a1.06,1.06,0,0,1-.78.75,2,2,0,0,1-1.12-.06,2.42,2.42,0,0,1-.43-.21,1.71,1.71,0,0,1-.36-.35,1.51,1.51,0,0,1-.2-.45.94.94,0,0,1,0-.52l6.48-19.88a1.23,1.23,0,0,1,.74-.87A1.83,1.83,0,0,1,146.13,33Z"/><path class="cls-1" d="M155.87,38.7c.47.56,1,1.14,1.55,1.75s1.06,1.14,1.48,1.61a2.42,2.42,0,0,1,.7,1.3,1.2,1.2,0,0,1-.54,1,1.12,1.12,0,0,1-1.09.34,2.35,2.35,0,0,1-1-.94l-.59-.74c-.22-.27-.44-.57-.68-.89v3.7a1.32,1.32,0,0,1-.39,1.08,1.78,1.78,0,0,1-2,0,1.32,1.32,0,0,1-.39-1.08v-3c-.29.39-.59.77-.9,1.16s-.63.75-.95,1.1a2.12,2.12,0,0,1-1.15.83.93.93,0,0,1-1-.42,2.06,2.06,0,0,1-.33-.64,1.06,1.06,0,0,1,0-.53,1.52,1.52,0,0,1,.22-.49c.12-.16.26-.33.44-.53.56-.6,1.16-1.3,1.82-2.07a16,16,0,0,0,1.75-2.53h-2.47a1.59,1.59,0,0,1-1.08-.28,1.44,1.44,0,0,1-.29-1,1.54,1.54,0,0,1,.29-1,1.48,1.48,0,0,1,1.08-.31h2.59V34.35a1.29,1.29,0,0,1,.39-1.1,1.89,1.89,0,0,1,2,0,1.29,1.29,0,0,1,.39,1.1V36h2.16a1.52,1.52,0,0,1,1.1.31,1.54,1.54,0,0,1,.29,1,1.44,1.44,0,0,1-.29,1,1.64,1.64,0,0,1-1.1.28Zm-3.62,9.12a1.12,1.12,0,0,1,.93.6,1.78,1.78,0,0,1,.08,1.27,19,19,0,0,1-.81,2.54,21.88,21.88,0,0,1-1.09,2.31,1.18,1.18,0,0,1-1.92.45,1,1,0,0,1-.59-.79,2.33,2.33,0,0,1,.42-1.18,10,10,0,0,0,.85-1.78,17.41,17.41,0,0,0,.64-2.18,2.17,2.17,0,0,1,.52-1.08A1.11,1.11,0,0,1,152.25,47.82ZM167,51.25a10.47,10.47,0,0,1-.18,2.12,3.11,3.11,0,0,1-.6,1.36,2.39,2.39,0,0,1-1.09.73,5.42,5.42,0,0,1-1.63.25c-.93,0-1.9,0-2.92,0s-2.07-.06-3.18-.12a3.89,3.89,0,0,1-1.46-.33,2.38,2.38,0,0,1-.91-.73,2.69,2.69,0,0,1-.47-1.06,6,6,0,0,1-.13-1.32V48.92a1.15,1.15,0,0,1,.37-1,1.43,1.43,0,0,1,.92-.3,1.56,1.56,0,0,1,.93.3,1.09,1.09,0,0,1,.42,1V52c0,.46.08.76.25.88a1.62,1.62,0,0,0,.88.22l1.4,0H161c.47,0,.89,0,1.29,0l.92,0a1.08,1.08,0,0,0,.86-.42,2.6,2.6,0,0,0,.22-1.38,1.89,1.89,0,0,1,.25-1.16,1.21,1.21,0,0,1,1-.38,1.38,1.38,0,0,1,1,.37A1.48,1.48,0,0,1,167,51.25Zm-4.48-1.37a1.91,1.91,0,0,1,.4,1.25,1.21,1.21,0,0,1-.55.84,1.35,1.35,0,0,1-1.11.27,1.47,1.47,0,0,1-.9-.82l-.46-.8-.36-.62c-.11-.19-.23-.38-.35-.55s-.26-.37-.42-.58a1.52,1.52,0,0,1-.42-1,1.35,1.35,0,0,1,.61-.86,1.18,1.18,0,0,1,1.83.32c.22.28.41.54.56.76l.42.63c.13.19.25.38.36.56S162.35,49.67,162.5,49.88Zm7.6-5.28a3,3,0,0,1-.52,2,2.51,2.51,0,0,1-1.9.58h-5.47a2.41,2.41,0,0,1-1.89-.58,3.14,3.14,0,0,1-.49-2V36.34a3.06,3.06,0,0,1,.49-1.93,2.41,2.41,0,0,1,1.89-.59h5.47a2.55,2.55,0,0,1,1.9.58,2.85,2.85,0,0,1,.52,1.94Zm-2.66-8a.36.36,0,0,0-.06-.25.33.33,0,0,0-.23-.06h-4.29a.47.47,0,0,0-.3.06.36.36,0,0,0-.06.25v.91h4.94Zm0,3.24H162.5v1.22h4.94Zm0,3.55H162.5v.91a.47.47,0,0,0,.06.3s.14.06.32.06h4.22c.23,0,.34-.12.34-.36ZM169,48.63c.38.58.76,1.18,1.14,1.81a24.54,24.54,0,0,1,1.14,2.25,1.74,1.74,0,0,1,.2,1.05,1.21,1.21,0,0,1-.71.77,1.18,1.18,0,0,1-1.11.12,1.42,1.42,0,0,1-.78-.84l-.48-1c-.15-.3-.29-.58-.44-.86s-.29-.54-.45-.82-.35-.58-.55-.9a2.44,2.44,0,0,1-.51-1.28,1,1,0,0,1,.55-.79,1.5,1.5,0,0,1,1.06-.24A1.54,1.54,0,0,1,169,48.63Z"/><path class="cls-1" d="M179.46,35.48a42.07,42.07,0,0,1-1.56,4.75l0,14.33c0,1-.41,1.49-1.22,1.49a1.28,1.28,0,0,1-1-.36,1.9,1.9,0,0,1-.27-1.13V45.2l-.15.22c-.43.7-.83,1.08-1.2,1.15a1.29,1.29,0,0,1-1.05-.31,1.26,1.26,0,0,1-.63-1,3.2,3.2,0,0,1,.7-1.6,22.42,22.42,0,0,0,2.3-4.19,30.27,30.27,0,0,0,1.47-4.55,3.3,3.3,0,0,1,.5-1.4,1.19,1.19,0,0,1,1.18-.35,1.15,1.15,0,0,1,1,.69A2.94,2.94,0,0,1,179.46,35.48Zm5.6-2.16a1.16,1.16,0,0,1,.48,1.2h4.84a1.86,1.86,0,0,1,1.44.53,1.69,1.69,0,0,1,.48,1.17,1.45,1.45,0,0,1-.19.7,2.52,2.52,0,0,1-.53.67l-.34.3a3.57,3.57,0,0,1-.38.3h1.59a2.47,2.47,0,0,1,1.64.42,2.12,2.12,0,0,1,.47,1.6v1.44a2,2,0,0,1-.47,1.55,2.47,2.47,0,0,1-1.64.42h-5.09a10.19,10.19,0,0,1,1.06,1.21,8.78,8.78,0,0,1,.76,1.26c.61-.27,1.22-.57,1.83-.88a19.16,19.16,0,0,0,1.82-1.07,2.37,2.37,0,0,1,1.12-.42.91.91,0,0,1,.78.47,1.21,1.21,0,0,1,.26,1,1.67,1.67,0,0,1-.74.75,15.31,15.31,0,0,1-1.35.84,14.56,14.56,0,0,0,.82,2.74A13.63,13.63,0,0,0,195,51.92a2.59,2.59,0,0,1,.54,1.37,1.18,1.18,0,0,1-.35.86,1.24,1.24,0,0,1-1.09.33c-.41-.08-.81-.44-1.21-1.1A14.1,14.1,0,0,1,191.7,51a19.78,19.78,0,0,1-.86-3.19l-.41.19-.43.2a9.69,9.69,0,0,1,.36,1.78,17.57,17.57,0,0,1,.1,1.79q0,4.23-3.56,4.23-.69,0-1.35-.06a7.92,7.92,0,0,1-1.29-.23,1.67,1.67,0,0,1-.9-.53,1.11,1.11,0,0,1,0-1,1,1,0,0,1,.68-.74,2,2,0,0,1,1.19.14,2.5,2.5,0,0,0,.68.17,7.34,7.34,0,0,0,.81,0,1,1,0,0,0,.87-.47,3.22,3.22,0,0,0,.42-1.24,8.63,8.63,0,0,0,0-1.61,25.65,25.65,0,0,1-3.43,2.26,29.05,29.05,0,0,1-3.81,1.73,2.4,2.4,0,0,1-1.37.23,1,1,0,0,1-.65-.81,1.08,1.08,0,0,1,.06-1,1.83,1.83,0,0,1,1-.58,20.67,20.67,0,0,0,3.74-1.56,27.34,27.34,0,0,0,3.94-2.59c-.05-.13-.1-.25-.16-.37l-.18-.37c-.46.35-.92.68-1.38,1s-.94.6-1.44.88-1.05.55-1.63.82-1.22.54-1.91.8a2.27,2.27,0,0,1-1.37.18,1,1,0,0,1-.6-.78,1.17,1.17,0,0,1,.07-.9,2,2,0,0,1,1.06-.64,19.33,19.33,0,0,0,3.16-1.31,24.38,24.38,0,0,0,2.86-1.79,3.88,3.88,0,0,0-.57-.6,11.23,11.23,0,0,1-2.1,1.26,13.81,13.81,0,0,1-2.61.93,2.27,2.27,0,0,1-1.26,0,.87.87,0,0,1-.58-.87,1.73,1.73,0,0,1,0-.49.73.73,0,0,1,.15-.36.93.93,0,0,1,.37-.28,4.77,4.77,0,0,1,.66-.24,17.35,17.35,0,0,0,2.15-.67,8.81,8.81,0,0,0,1.54-.79h-1.34a2.68,2.68,0,0,1-1.66-.41,2,2,0,0,1-.5-1.56V40.21a4.19,4.19,0,0,1,.07-.84,1.07,1.07,0,0,1-1-.6,1.21,1.21,0,0,1-.18-1.05,1.52,1.52,0,0,1,.68-.82,9.09,9.09,0,0,0,.88-.63c.29-.24.59-.49.87-.75s.56-.54.82-.82.49-.56.7-.83a1.86,1.86,0,0,1,1.1-.78A1.17,1.17,0,0,1,185.06,33.32Zm2.18,4.87a7.26,7.26,0,0,0,.61-.48l.64-.53a.22.22,0,0,0,.09-.26c0-.1-.08-.14-.16-.14h-4.66l-.77.74c-.25.24-.51.46-.77.67h5Zm-4.44,3.07a.45.45,0,0,0,.1.34.65.65,0,0,0,.43.1H186V40.14h-2.66a.7.7,0,0,0-.42.08.4.4,0,0,0-.11.32Zm9.14-.64c0-.2,0-.32-.14-.39a.78.78,0,0,0-.41-.09h-2.81V41.7h2.81a.68.68,0,0,0,.45-.11.53.53,0,0,0,.1-.37Z"/><path class="cls-1" d="M213.88,37a11.82,11.82,0,0,1,2.11.15,2.34,2.34,0,0,1,1.23.54,1.92,1.92,0,0,1,.55,1.12,10.62,10.62,0,0,1,.09,1.91q0,1.88,0,3.63c0,1.16-.06,2.22-.1,3.18s-.08,1.76-.13,2.44a10.67,10.67,0,0,1-.17,1.46,8.91,8.91,0,0,1-.62,1.81,4.26,4.26,0,0,1-1,1.29,3.65,3.65,0,0,1-1.41.78,6.29,6.29,0,0,1-1.95.27,14.35,14.35,0,0,1-1.73-.11,17,17,0,0,1-2.14-.44,2.21,2.21,0,0,1-1.32-.74,1.36,1.36,0,0,1,0-1.23c.27-.95,1-1.25,2.16-.91.35.11.66.2.92.26s.51.11.74.14a3.93,3.93,0,0,0,.65.06l.64,0a2,2,0,0,0,1.52-.53,2.94,2.94,0,0,0,.69-1.44c0-.24.06-.67.1-1.29s.08-1.36.12-2.25.08-1.89.11-3,.06-2.28.07-3.49a.69.69,0,0,0-.18-.53,1.55,1.55,0,0,0-.92-.17h-5.57a41.24,41.24,0,0,1-.81,5.16,18.33,18.33,0,0,1-1.5,4.15,15.36,15.36,0,0,1-2.48,3.46,22.81,22.81,0,0,1-3.7,3.09c-1.06.66-1.84.52-2.33-.4a1.5,1.5,0,0,1,.69-2.07,15.52,15.52,0,0,0,3-2.41A13.08,13.08,0,0,0,203.27,48a15.93,15.93,0,0,0,1.38-3.61,28.42,28.42,0,0,0,.76-4.44h-5.57a1.54,1.54,0,0,1-1.13-.34,1.52,1.52,0,0,1-.33-1.1,1.56,1.56,0,0,1,.36-1.09,1.39,1.39,0,0,1,1.1-.4h5.78c0-.22,0-.45,0-.67s0-.45,0-.67v-.48a3.67,3.67,0,0,0,0-.46A1.63,1.63,0,0,1,206,33.5a1.83,1.83,0,0,1,2.32,0,2.35,2.35,0,0,1,.31,1.41c0,.36,0,.73,0,1.09s0,.71,0,1Z"/><path class="cls-1" d="M232.77,41.62c-.5.71-1,1-1.56.89V52a2.77,2.77,0,0,1-.57,2,2.6,2.6,0,0,1-1.93.59h-4.82A2.58,2.58,0,0,1,222,54a2.82,2.82,0,0,1-.55-2V38.62a2.86,2.86,0,0,1,.55-1.94,2.46,2.46,0,0,1,1.92-.62H225c0-.21.09-.42.13-.63s.08-.43.11-.67a1.86,1.86,0,0,1,.58-1.28A1.44,1.44,0,0,1,227,33.2a1.27,1.27,0,0,1,1.06.58,2.72,2.72,0,0,1,.09,1.41l-.09.43c0,.15-.07.29-.1.44h.79a2.49,2.49,0,0,1,1.93.62,2.81,2.81,0,0,1,.57,1.94v.27c.4-.63.77-1.27,1.13-2a12.56,12.56,0,0,0,.93-2.49,1.82,1.82,0,0,1,.66-1.21,1.44,1.44,0,0,1,1.19-.11,1.14,1.14,0,0,1,.91.69,1.93,1.93,0,0,1,0,1.32c-.08.23-.16.48-.24.77h3.91a3.72,3.72,0,0,1,1.42.25,2.44,2.44,0,0,1,.93.7,3,3,0,0,1,.54,1.06,6,6,0,0,1,.23,1.33c0,.86,0,1.81,0,2.83s0,2-.07,3.05-.08,1.95-.14,2.84-.13,1.63-.19,2.22a17.2,17.2,0,0,1-.53,2.85,4.86,4.86,0,0,1-.89,1.75,2.89,2.89,0,0,1-1.34.87,5.71,5.71,0,0,1-1.88.2,16.89,16.89,0,0,1-1.68-.24A13.55,13.55,0,0,1,234,55a2.28,2.28,0,0,1-1.26-.88,1.48,1.48,0,0,1,.06-1.26,1.26,1.26,0,0,1,.79-.83,2.33,2.33,0,0,1,1.44.23,10.65,10.65,0,0,0,2,.66,1.71,1.71,0,0,0,1.33-.19,2.29,2.29,0,0,0,.81-1.26,15,15,0,0,0,.48-2.54c.11-.92.18-2.13.22-3.65s.06-3.43.06-5.71a.77.77,0,0,0-.24-.63,1.37,1.37,0,0,0-.84-.19h-4.24a13.8,13.8,0,0,1-.88,1.46Zm-4.32-2a.84.84,0,0,0-.17-.6,1.06,1.06,0,0,0-.74-.17h-2.76c-.24,0-.4.07-.47.21a1.52,1.52,0,0,0-.11.63v4.15h4.25Zm0,7H224.2v4.15a.88.88,0,0,0,.19.66,1,1,0,0,0,.67.18h2.72c.32,0,.51-.06.57-.17a1.13,1.13,0,0,0,.1-.57Zm9.74.89a1.92,1.92,0,0,1,.28,1.46,1.54,1.54,0,0,1-.78.79,1.21,1.21,0,0,1-1.25.07,2.51,2.51,0,0,1-.89-1.24,24,24,0,0,0-1.1-2.37c-.39-.71-.81-1.45-1.27-2.22a1.92,1.92,0,0,1-.32-1.23,1.24,1.24,0,0,1,.56-.93,1.56,1.56,0,0,1,1.15-.27,1.63,1.63,0,0,1,1,.92c.43.82.87,1.64,1.32,2.47S237.76,46.71,238.19,47.58Z"/><path class="cls-1" d="M255.76,48.49a2.56,2.56,0,0,1-1.54-.41,1.77,1.77,0,0,1-.55-1.49V45.08a1.59,1.59,0,0,1,.57-1.43,2.69,2.69,0,0,1,1.52-.37h8.16a2.67,2.67,0,0,1,1.63.42,1.68,1.68,0,0,1,.55,1.43v1.34a1.89,1.89,0,0,1-.56,1.59,2.69,2.69,0,0,1-1.62.43h-1.8c.18.32.35.63.53.92a5.45,5.45,0,0,0,.6.85c.21-.12.39-.24.56-.36a4.29,4.29,0,0,0,.48-.36,4.38,4.38,0,0,0,.46-.42l.51-.51c.66-.79,1.25-.92,1.78-.41a1.24,1.24,0,0,1,.54.85c0,.33-.17.73-.64,1.21a10,10,0,0,1-1.06,1,8.6,8.6,0,0,1-1.14.7,9.5,9.5,0,0,0,1,.86c.33.24.67.48,1,.7a1.63,1.63,0,0,1,.77.9,1.31,1.31,0,0,1-.12,1c-.24.45-.5.68-.79.68a2.79,2.79,0,0,1-1.25-.48A11.1,11.1,0,0,1,262,52.71a17.54,17.54,0,0,1-2.31-4.22h-.56c-.36.37-.71.7-1,1s-.64.59-1,.86v2.18a.83.83,0,0,0,.11.47c.07.11.22.12.44,0a1.8,1.8,0,0,1,.36-.13l.3-.09.4-.14c.16-.07.38-.17.65-.31a3.23,3.23,0,0,1,.71-.22.94.94,0,0,1,.45,0,.61.61,0,0,1,.29.26,2.25,2.25,0,0,1,.2.46,1.49,1.49,0,0,1,0,1c-.1.27-.42.51-1,.73a19.16,19.16,0,0,1-2,.72c-.59.18-1.18.33-1.79.46a.92.92,0,0,1-1.1-.42,3.09,3.09,0,0,1-.32-1.5v-1.9l-.64.38-.65.37c-.82.49-1.39.43-1.71-.19a1,1,0,0,1-.14-.51c-.42.35-.86.7-1.34,1s-1,.66-1.42,1-.91.57-1.34.8-.81.41-1.13.54a1.66,1.66,0,0,1-1.3.22,1.23,1.23,0,0,1-.65-.84,1.39,1.39,0,0,1,0-1.2,1.61,1.61,0,0,1,.9-.77l.76-.37c.28-.14.57-.29.89-.47V45.66h-1.25a1,1,0,0,1-.94-.38,1.75,1.75,0,0,1-.26-1A2,2,0,0,1,245,43.2c.15-.24.48-.35,1-.35h1.25V37.57h-1.34a1,1,0,0,1-.93-.4,1.92,1.92,0,0,1-.25-1,2.08,2.08,0,0,1,.22-1.08q.21-.36,1-.36H251a1.1,1.1,0,0,1,1,.36,1.79,1.79,0,0,1,.27,1.08,1.69,1.69,0,0,1-.29,1,1.06,1.06,0,0,1-.94.4h-1.24v5.28H251a1.08,1.08,0,0,1,1,.35,1.78,1.78,0,0,1,.25,1.06,1.67,1.67,0,0,1-.26,1,1.08,1.08,0,0,1-.94.38h-1.24v4.58a.82.82,0,0,1,.19-.19c.09-.08.2-.16.31-.24s.22-.16.31-.24a1.09,1.09,0,0,0,.19-.19,1.1,1.1,0,0,1,1.85.19,1.35,1.35,0,0,1,.27.57,1.75,1.75,0,0,1,0,.56,16.46,16.46,0,0,0,3.19-2.21Zm10.63-6.05h-13c-.47,0-.76-.09-.89-.28a1.26,1.26,0,0,1-.19-.75,1.15,1.15,0,0,1,.19-.77,1.26,1.26,0,0,1,.89-.22h13a1.28,1.28,0,0,1,.88.22,1.15,1.15,0,0,1,.2.77,1.26,1.26,0,0,1-.2.75C267.13,42.35,266.84,42.44,266.39,42.44Zm.27-4.94A1.82,1.82,0,0,1,266,39a2.35,2.35,0,0,1-1.59.53h-9a2.58,2.58,0,0,1-1.5-.4,1.63,1.63,0,0,1-.59-1.45V36a2.19,2.19,0,0,1,.55-1.57,2,2,0,0,1,1.54-.56h9a2.28,2.28,0,0,1,1.53.56,1.94,1.94,0,0,1,.68,1.57Zm-11-.2a.3.3,0,0,0,.07.24.49.49,0,0,0,.33.08h1.13V35.86H256a.59.59,0,0,0-.33.06c-.05,0-.07.13-.07.26Zm8.23,8.09q0-.24-.36-.24h-7.18q-.36,0-.36.24v.87q0,.24.36.24h7.18q.36,0,.36-.24Zm-4.54-7.77h1.47V35.86h-1.47Zm5-1.44c0-.21-.14-.32-.43-.32h-.94v1.76h.94c.29,0,.43-.11.43-.32Z"/><path class="cls-1" d="M269.73,41.38c-.56,0-.93-.11-1.09-.34a1.78,1.78,0,0,1-.26-1,1.82,1.82,0,0,1,.26-1c.16-.25.53-.37,1.09-.37h1V34.47a1.33,1.33,0,0,1,.35-1.1,1.69,1.69,0,0,1,1.05-.27,1.89,1.89,0,0,1,1,.27c.28.17.42.54.42,1.1v4.11h.7a1.32,1.32,0,0,1,1.08.37,1.67,1.67,0,0,1,.28,1,1.64,1.64,0,0,1-.28,1,1.38,1.38,0,0,1-1.08.34h-.7v7.16a3.27,3.27,0,0,1,1.5-.76,1.07,1.07,0,0,1,1,.49,1.64,1.64,0,0,1,.36,1.11,1.72,1.72,0,0,1-.72,1.08c-.52.4-1,.75-1.41,1.06s-.84.6-1.25.87-.81.51-1.22.74-.84.47-1.31.71a2.24,2.24,0,0,1-1.33.36c-.36-.05-.66-.36-.9-.94a1.39,1.39,0,0,1,0-1.2,1.84,1.84,0,0,1,.91-.76c.58-.29,1.08-.56,1.51-.8V41.38Zm17,8.74v2.66a.9.9,0,0,0,.13.53.52.52,0,0,0,.47.19l.65,0a5.15,5.15,0,0,0,.57,0q.44,0,.51-.36a4.91,4.91,0,0,0,.07-.91,1.64,1.64,0,0,1,.29-1,1,1,0,0,1,.93-.34,1.38,1.38,0,0,1,1,.37,2.29,2.29,0,0,1,.26,1.31,7.5,7.5,0,0,1-.13,1.54,2.84,2.84,0,0,1-.39,1,1.49,1.49,0,0,1-.62.55,2.32,2.32,0,0,1-.88.21c-.6,0-1.14.07-1.62.08a15.18,15.18,0,0,1-1.59-.06,2.43,2.43,0,0,1-1.79-.72A3.45,3.45,0,0,1,284.1,53V50.12H282a6.75,6.75,0,0,1-1.66,3.66,8.63,8.63,0,0,1-3.48,2.2,2.87,2.87,0,0,1-1.48.22,1.13,1.13,0,0,1-.8-.8,1.15,1.15,0,0,1,.1-1,1.88,1.88,0,0,1,1.12-.76,6.7,6.7,0,0,0,2.54-1.3,4.19,4.19,0,0,0,1.21-2.18h-.19a8.94,8.94,0,0,1-1.31-.08,1.57,1.57,0,0,1-.77-.33,1.22,1.22,0,0,1-.37-.68,5.35,5.35,0,0,1-.1-1.17V44a8.45,8.45,0,0,1,.07-1.12,1.11,1.11,0,0,1,.34-.68,1.53,1.53,0,0,1,.77-.34,7.93,7.93,0,0,1,1.37-.1h8.37a7.7,7.7,0,0,1,1.32.09,1.56,1.56,0,0,1,.78.31,1.11,1.11,0,0,1,.37.67,5.35,5.35,0,0,1,.1,1.17v3.88a5.35,5.35,0,0,1-.1,1.17,1.16,1.16,0,0,1-.37.68,1.56,1.56,0,0,1-.78.33,9.09,9.09,0,0,1-1.32.08Zm-9.15-13.34a1.73,1.73,0,0,1-1.12-.27,1.13,1.13,0,0,1,0-1.58,1.66,1.66,0,0,1,1.12-.29H282a1.7,1.7,0,0,1,0-.91,1,1,0,0,1,.64-.58,1.73,1.73,0,0,1,1.26-.15c.32.12.59.52.8,1.21,0,.06,0,.13.05.2a1.19,1.19,0,0,0,.07.23h4.68a1.63,1.63,0,0,1,1.13.29,1.22,1.22,0,0,1,0,1.58,1.7,1.7,0,0,1-1.13.27h-1.2a1.07,1.07,0,0,1,0,1,3.29,3.29,0,0,0-.16.44c-.05.15-.11.3-.17.45h2a1.65,1.65,0,0,1,1.13.3,1.06,1.06,0,0,1,.31.78,1.14,1.14,0,0,1-.31.84,1.71,1.71,0,0,1-1.13.28H277.38a1.74,1.74,0,0,1-1.12-.26,1,1,0,0,1-.32-.82,1.11,1.11,0,0,1,.32-.8,1.5,1.5,0,0,1,1.12-.32h1.8c-.11-.39-.2-.68-.28-.88a3.64,3.64,0,0,1-.17-.49.9.9,0,0,1,0-.55Zm10.13,7.6a.73.73,0,0,0-.09-.42.58.58,0,0,0-.41-.1H280a.75.75,0,0,0-.46.09.55.55,0,0,0-.1.36V45h8.33Zm0,2.45h-8.33v.6a.8.8,0,0,0,.1.46c.06.08.22.12.46.12h7a1.14,1.14,0,0,0,.61-.1c.09-.06.13-.25.13-.55Zm-6-8.71.08.32a1.27,1.27,0,0,1,0,.26h3.28c.1-.23.2-.46.29-.7l.34-.84c.06-.14.13-.27.19-.38h-4.73c.1.24.19.46.27.68Z"/><path class="cls-1" d="M9.38,64.23a1.46,1.46,0,0,1,.36.88,1.16,1.16,0,0,1-.24.8.78.78,0,0,1-.15.16l-.14.11h1.87a1,1,0,0,1,.84.26,1.5,1.5,0,0,1,.22.91,1.45,1.45,0,0,1-.22.89,1,1,0,0,1-.84.26H5.49a1,1,0,0,1-.82-.26,1.45,1.45,0,0,1-.21-.89,1.5,1.5,0,0,1,.21-.91,1,1,0,0,1,.82-.26H8.22a.81.81,0,0,1-.28-.32,12.16,12.16,0,0,0-.9-1c-.32-.3-.61-.59-.88-.86a1.33,1.33,0,0,1-.35-.82,1.11,1.11,0,0,1,1.86-.89l.36.36.36.39c.13.14.27.31.42.5S9.15,64,9.38,64.23Zm2,9.46a1.4,1.4,0,0,1-.22.89,1,1,0,0,1-.81.26H6.14a1,1,0,0,1-.81-.26,1.4,1.4,0,0,1-.23-.89,1.32,1.32,0,0,1,.23-.93,1.26,1.26,0,0,1,.81-.2h4.2a1.22,1.22,0,0,1,.81.2A1.33,1.33,0,0,1,11.37,73.69Zm.09-3.07a1.49,1.49,0,0,1-.22.9.94.94,0,0,1-.78.3H6.18a.87.87,0,0,1-.76-.3,1.49,1.49,0,0,1-.22-.9,1.47,1.47,0,0,1,.22-1,1,1,0,0,1,.76-.25h4.28a1,1,0,0,1,.78.25A1.47,1.47,0,0,1,11.46,70.62Zm-.12,11.3a3,3,0,0,1-.43,1.8,1.82,1.82,0,0,1-1.53.58H7.19a1.78,1.78,0,0,1-1.52-.58,3.06,3.06,0,0,1-.42-1.8V78.08a3.12,3.12,0,0,1,.42-1.81,1.76,1.76,0,0,1,1.52-.59H9.38a1.79,1.79,0,0,1,1.53.59,3,3,0,0,1,.43,1.81ZM9.26,78.78a1.2,1.2,0,0,0-.11-.59c-.07-.12-.23-.18-.47-.18H7.91a.55.55,0,0,0-.44.14,1.23,1.23,0,0,0-.11.63V81.2a1.69,1.69,0,0,0,.08.66c.06.09.22.13.47.13h.77c.26,0,.42,0,.48-.14a1.42,1.42,0,0,0,.1-.65Zm17-.32a.7.7,0,0,0,.18.12.9.9,0,0,1,.18.12,1.22,1.22,0,0,1,.26.93,1.35,1.35,0,0,1-.5.78c-.24.19-.5.39-.8.6s-.64.43-1,.67a7.78,7.78,0,0,0,.93.42,9.94,9.94,0,0,0,1,.32,1.44,1.44,0,0,1,1,.57,1.5,1.5,0,0,1,0,1.07c-.1.43-.32.64-.66.64a4.77,4.77,0,0,1-1.38-.26,13.15,13.15,0,0,1-2.27-1,8.14,8.14,0,0,1-1.67-1.24,8.37,8.37,0,0,1-1.26-1.62,16.78,16.78,0,0,1-1-2.12h-.7l-1,1.12a9.89,9.89,0,0,1-1,1v1.27a.35.35,0,0,0,.1.3c.06.06.18.07.36,0a4,4,0,0,0,.45-.1,1.85,1.85,0,0,0,.33-.12l.37-.18.58-.27a1.79,1.79,0,0,1,1.06-.23c.25,0,.46.3.64.73a1,1,0,0,1,0,1,2.41,2.41,0,0,1-1,.67c-.32.15-.62.27-.9.37a8.63,8.63,0,0,1-.86.28l-.93.22c-.32.06-.67.12-1.05.16a2,2,0,0,1-.78,0,.76.76,0,0,1-.48-.32,1.56,1.56,0,0,1-.24-.71,9.07,9.07,0,0,1-.06-1.15v-.34a1.32,1.32,0,0,0-.32.2,1.23,1.23,0,0,1-.31.19,1.72,1.72,0,0,1-1.22.11,1.17,1.17,0,0,1-.72-.86A1,1,0,0,1,11.6,81a1.77,1.77,0,0,1,.92-.58,8.37,8.37,0,0,0,1.66-.93c.54-.39,1-.75,1.41-1.07H13.36a1.17,1.17,0,0,1-.76-.2,1,1,0,0,1-.25-.76.93.93,0,0,1,.25-.73,1.23,1.23,0,0,1,.76-.2h2.3v-.82H13.89a1.12,1.12,0,0,1-.72-.2,1,1,0,0,1-.24-.76.84.84,0,0,1,.24-.68,1.07,1.07,0,0,1,.72-.21h1.77V73H13.5a1.14,1.14,0,0,1-.76-.19,1,1,0,0,1-.22-.77.81.81,0,0,1,.25-.68,1.11,1.11,0,0,1,.73-.21h2.16a2.73,2.73,0,0,1,.1-.48A.68.68,0,0,1,16,70.3H14.85A2.84,2.84,0,0,1,13.31,70c-.3-.21-.45-.66-.45-1.37V68a1.68,1.68,0,0,1,.45-1.37,2.55,2.55,0,0,1,1.54-.36H17.2a3.2,3.2,0,0,1,1.51.27q.48.28.48,1.29v1a1.9,1.9,0,0,1-.11.73.91.91,0,0,1-.32.42,1.51,1.51,0,0,1-.53.21,4.57,4.57,0,0,1-.69.1.74.74,0,0,1,.25.37,3.11,3.11,0,0,1,.11.49h3.52a3,3,0,0,1,.1-.49.67.67,0,0,1,.24-.37,6.22,6.22,0,0,1-.8,0,1.32,1.32,0,0,1-.58-.2,1,1,0,0,1-.35-.45,2.08,2.08,0,0,1-.12-.79v-1c0-.67.16-1.1.47-1.29a3.19,3.19,0,0,1,1.52-.27h2.72a2.53,2.53,0,0,1,1.51.38,1.63,1.63,0,0,1,.5,1.35v.62a1.53,1.53,0,0,1-.5,1.37,2.91,2.91,0,0,1-1.51.31H23.44a.72.72,0,0,1,.22.36,2.75,2.75,0,0,1,.09.5H26a1.09,1.09,0,0,1,.77.22,1.3,1.3,0,0,1,0,1.45A1.22,1.22,0,0,1,26,73H23.75v.91h1.78a1.08,1.08,0,0,1,.75.21.84.84,0,0,1,.23.68,1,1,0,0,1-.23.76,1.14,1.14,0,0,1-.75.2H23.75v.82h2.74a1.45,1.45,0,0,1,.73.15c.17.11.25.34.25.69,0,.7-.33,1-1,1ZM18,63.58a1.45,1.45,0,0,1-.14-.86,1.1,1.1,0,0,1,.65-.7,1.26,1.26,0,0,1,1.11-.14,1.43,1.43,0,0,1,.85.84c.08.14.15.28.21.41s.12.28.2.45h5.52a1.08,1.08,0,0,1,.75.22,1.22,1.22,0,0,1,.21.84,1.11,1.11,0,0,1-.21.77,1.08,1.08,0,0,1-.75.21H13.12a1.11,1.11,0,0,1-.77-.21,1.11,1.11,0,0,1-.21-.77,1.22,1.22,0,0,1,.21-.84,1.11,1.11,0,0,1,.77-.22ZM17.25,68c0-.09-.06-.14-.17-.14H15c-.13,0-.2,0-.2.12v.69c0,.08.07.12.2.12h2.06c.11,0,.17,0,.17-.14Zm.65,6h3.52V73H17.9Zm0,2.67h3.52v-.82H17.9Zm7.53,1.89h-4c.18.36.37.71.57,1.07a4,4,0,0,0,.66.9c.24-.14.49-.3.75-.47s.52-.34.77-.51l.7-.51a4.19,4.19,0,0,0,.51-.43ZM24.66,68c0-.09-.06-.14-.19-.14h-2.4c-.11,0-.17,0-.17.12v.67c0,.1.06.14.17.14h2.4c.13,0,.19,0,.19-.16Z"/><path class="cls-1" d="M29.61,72.61a1.37,1.37,0,0,1-.89-.24,1.16,1.16,0,0,1-.29-.91,1.42,1.42,0,0,1,.28-1,1.29,1.29,0,0,1,.9-.26h1.65a3.6,3.6,0,0,1-.16-.53,7.88,7.88,0,0,0-.22-.87,10.27,10.27,0,0,0-.48-1.24,1.94,1.94,0,0,1-.18-.78,1,1,0,0,1,.2-.54h-.14a1.75,1.75,0,0,1-.91-.18c-.19-.12-.29-.44-.29-1a1.42,1.42,0,0,1,.29-1,1.2,1.2,0,0,1,.91-.3h2.81a1.53,1.53,0,0,1-.21-1.22,1.15,1.15,0,0,1,.59-.65,1.28,1.28,0,0,1,1.85.7h0c.08.16.16.34.25.54s.17.41.25.63h2.62a1.19,1.19,0,0,1,.88.28,1.28,1.28,0,0,1,.29,1,1.22,1.22,0,0,1-.29.94,1.28,1.28,0,0,1-.88.26H38.2a.75.75,0,0,1,.23.49,2.37,2.37,0,0,1-.09.69c-.12.49-.25.94-.38,1.33s-.28.81-.46,1.26a.24.24,0,0,0-.06.09.29.29,0,0,1,0,.1h1.22a1.2,1.2,0,0,1,.9.28,1.31,1.31,0,0,1,.28,1,1.22,1.22,0,0,1-.28.93,1.24,1.24,0,0,1-.9.27h-2.9v1.44H38.2a1.29,1.29,0,0,1,.9.26,1.34,1.34,0,0,1,.28,1,1,1,0,0,1-1.18,1.2H35.73v6.79a2,2,0,0,1-.25,1.14,1.19,1.19,0,0,1-1,.33,1.17,1.17,0,0,1-1-.33,1.88,1.88,0,0,1-.25-1.14V76.47H30.16a1.32,1.32,0,0,1-.89-.23,1.23,1.23,0,0,1-.26-.92,1.48,1.48,0,0,1,.26-1,1.26,1.26,0,0,1,.89-.26h3.12V72.61Zm2.88,6.19a15.49,15.49,0,0,1-.76,1.8A10.94,10.94,0,0,1,30.88,82,2.52,2.52,0,0,1,30,83c-.24.1-.53,0-.89-.24a1.47,1.47,0,0,1-.57-.8,2.13,2.13,0,0,1,.41-1.24c.32-.56.59-1.06.81-1.49a13.16,13.16,0,0,0,.6-1.27c.24-.58.49-.91.76-1a1.18,1.18,0,0,1,1,.15c.38.19.59.41.62.66a2.56,2.56,0,0,1-.19,1.06ZM33.4,69a2.45,2.45,0,0,1,.07,1.2h1.61a1.3,1.3,0,0,1,0-.58,3.24,3.24,0,0,1,.25-.64,10.8,10.8,0,0,0,.72-2.21,1.72,1.72,0,0,1,.21-.53H32.39a1.87,1.87,0,0,1,.17.31c0,.11.1.23.17.36.16.39.29.74.39,1.06A9,9,0,0,1,33.4,69ZM39.21,82a1.17,1.17,0,0,1-.94.1Q37.94,82,37.58,81c-.13-.29-.28-.61-.45-1L36.59,79a2.24,2.24,0,0,1-.35-1.14,1.11,1.11,0,0,1,.54-.78,1.2,1.2,0,0,1,.88-.23c.26.06.52.31.78.76s.53.94.72,1.3A10.56,10.56,0,0,1,39.69,80a2.78,2.78,0,0,1,.25,1.18c0,.32-.26.59-.71.82ZM49.62,75.3A2.71,2.71,0,0,1,49.2,77a2,2,0,0,1-1.42.6v4.3a.24.24,0,0,0,.15.25,1.5,1.5,0,0,0,.49.06.85.85,0,0,0,.35-.06.49.49,0,0,0,.22-.26,2.3,2.3,0,0,0,.11-.59c0-.26,0-.61,0-1.06a2.32,2.32,0,0,1,.23-1.16,1,1,0,0,1,.92-.37c.51,0,.85.13,1,.38a2.93,2.93,0,0,1,.23,1.37,12,12,0,0,1-.15,2.09,3,3,0,0,1-.48,1.28,1.71,1.71,0,0,1-.93.65,5.28,5.28,0,0,1-1.49.18A8.48,8.48,0,0,1,47,84.57a1.83,1.83,0,0,1-.92-.42,1.66,1.66,0,0,1-.49-.86,5.82,5.82,0,0,1-.15-1.47V77.65h-1a15.32,15.32,0,0,1-.41,2,9.76,9.76,0,0,1-.67,1.72,10.62,10.62,0,0,1-1,1.5,12.54,12.54,0,0,1-1.28,1.38A3,3,0,0,1,40,85a1,1,0,0,1-1-.39,1.25,1.25,0,0,1-.41-1,1.68,1.68,0,0,1,.68-1.08,10,10,0,0,0,1.88-2.16,7.89,7.89,0,0,0,1-2.72A2.1,2.1,0,0,1,40.68,77a2.64,2.64,0,0,1-.44-1.65V65.48a6.23,6.23,0,0,1,.11-1.25A1.54,1.54,0,0,1,41.57,63a6.27,6.27,0,0,1,1.36-.12h4a5.78,5.78,0,0,1,1.39.14,1.62,1.62,0,0,1,.83.44,1.72,1.72,0,0,1,.41.82,6.06,6.06,0,0,1,.1,1.22Zm-2.44-9.36a.67.67,0,0,0-.14-.48.66.66,0,0,0-.51-.15H43.36a.94.94,0,0,0-.54.11c-.09.07-.13.24-.13.52v1.22h4.49Zm0,3.5H42.69v1.78h4.49Zm0,4.08H42.69v1.13c0,.27,0,.44.13.51a.87.87,0,0,0,.54.11h3.17a.53.53,0,0,0,.65-.62Z"/><path class="cls-1" d="M53.85,75.63a1.21,1.21,0,0,1-1.11-.43,2.33,2.33,0,0,1,0-2.14,1.25,1.25,0,0,1,1.11-.4h9l-.3-.26-.33-.27a2.44,2.44,0,0,1-.7-.79,1.77,1.77,0,0,1-.23-.87c0-.88.57-1.53,1.7-1.94l2.07-.78c.64-.25,1.32-.5,2.06-.76.42-.14.6-.26.54-.35s-.36-.13-.9-.13H55.65a1.28,1.28,0,0,1-1.09-.41A1.66,1.66,0,0,1,54.23,65a1.56,1.56,0,0,1,.33-1,1.34,1.34,0,0,1,1.09-.4H70.94a2.28,2.28,0,0,1,1.69.62,1.92,1.92,0,0,1,.61,1.42,1.87,1.87,0,0,1-.37,1.11,3.08,3.08,0,0,1-1.14.91l-1.39.67L68.92,69l-1.61.66-1.94.72a.6.6,0,0,0-.41.33c0,.15.06.33.34.56q.78.72,1.44,1.44h7.32a1.23,1.23,0,0,1,1.1.4,2.33,2.33,0,0,1,0,2.14,1.19,1.19,0,0,1-1.1.43h-5.5a8.53,8.53,0,0,1,.29,4.75,5.05,5.05,0,0,1-1.93,3.2,7.21,7.21,0,0,1-4.34,1.12,17.38,17.38,0,0,1-2.42-.18,23.11,23.11,0,0,1-2.78-.58,2.06,2.06,0,0,1-1.08-.68,1.59,1.59,0,0,1-.17-1.2,1.51,1.51,0,0,1,.65-1,2.34,2.34,0,0,1,1.48,0c.93.22,1.77.41,2.51.55a10.1,10.1,0,0,0,2,.22,3.75,3.75,0,0,0,2.31-.6,2.54,2.54,0,0,0,1-1.54,6.24,6.24,0,0,0,.12-2.09,5.54,5.54,0,0,0-.68-2Z"/><path class="cls-1" d="M80.32,66a.56.56,0,0,0,.05.08.41.41,0,0,0,0,.09V63.25a1.45,1.45,0,0,1,.26-1,1.57,1.57,0,0,1,1.79,0,1.51,1.51,0,0,1,.25,1v4.87h1v-4.9a1.42,1.42,0,0,1,.27-1,1.19,1.19,0,0,1,.91-.29,1.11,1.11,0,0,1,.9.29,1.62,1.62,0,0,1,.23,1V66.3c.09-.15.19-.28.28-.41l.7-.82a6.18,6.18,0,0,0,.55-.74,1.66,1.66,0,0,1,.77-.67,1,1,0,0,1,1,.19,1,1,0,0,1,.54.83,1.91,1.91,0,0,1-.37,1c-.3.42-.55.75-.75,1s-.43.51-.69.8a1.73,1.73,0,0,1-.9.58,1.16,1.16,0,0,1-.85-.22,1,1,0,0,1-.26-.24v.53H88a1.41,1.41,0,0,1,1,.25,1.32,1.32,0,0,1,.27,1,1.07,1.07,0,0,1-.29.86,1.58,1.58,0,0,1-1,.22h-.91a2.12,2.12,0,0,1,0,1.47c-.05.17-.1.35-.16.54s-.11.37-.18.56H88a1.17,1.17,0,0,1,.94.31,1.39,1.39,0,0,1,.26.89,1.18,1.18,0,0,1-.29.85,1.22,1.22,0,0,1-.91.3H84.57v1.71h2.9a1.31,1.31,0,0,1,1,.27,1.27,1.27,0,0,1,.27.9,1.08,1.08,0,0,1-.29.84,1.35,1.35,0,0,1-.94.27h-2.9v1.73l1.37-.2c.44-.06.88-.13,1.29-.21a5.58,5.58,0,0,1,.87-.12,1.27,1.27,0,0,1,.58.07.82.82,0,0,1,.38.31,1.85,1.85,0,0,1,.21.63,1.11,1.11,0,0,1-.21,1,2.89,2.89,0,0,1-1.35.47c-1.52.25-3,.48-4.57.67s-3.12.35-4.79.48c-.33,0-.61,0-.84,0a1.26,1.26,0,0,1-.53-.12.91.91,0,0,1-.3-.36,2.29,2.29,0,0,1-.13-.69,1,1,0,0,1,.31-.93,2.77,2.77,0,0,1,1.44-.41c.61-.07,1.22-.12,1.84-.17s1.23-.11,1.84-.19v-2H78.69a1.28,1.28,0,0,1-.93-.29,1.59,1.59,0,0,1,0-1.74,1.34,1.34,0,0,1,1-.25H82V75.34H78.35a1.24,1.24,0,0,1-.93-.3,1.14,1.14,0,0,1-.29-.85,1.39,1.39,0,0,1,.26-.89,1.25,1.25,0,0,1,1-.31h1.3l-.17-.43c-.06-.16-.14-.33-.22-.5a2.25,2.25,0,0,1-.22-1,.91.91,0,0,1,.34-.69H77.63a1.52,1.52,0,0,1-.93-.22,1,1,0,0,1-.29-.86,1.37,1.37,0,0,1,.26-1,1.4,1.4,0,0,1,1-.25h2.79v-.77a.8.8,0,0,1-.2.21,1.88,1.88,0,0,0-.24.18,1,1,0,0,1-.85.21,1.44,1.44,0,0,1-.68-.69,7.93,7.93,0,0,0-.48-.74l-.72-.94c-.56-.66-.55-1.24,0-1.73a1.22,1.22,0,0,1,.89-.36,1.3,1.3,0,0,1,.82.6c.14.19.27.36.39.5l.33.42.28.42Zm4.49,5.35a3.63,3.63,0,0,1,.26-.89H81.16a2,2,0,0,1,.18.3l.18.38.38,1a7.83,7.83,0,0,1,.29.9h2.09q.19-.52.3-.9C84.65,71.84,84.73,71.58,84.81,71.31Zm12.62-4.08h.87a1.29,1.29,0,0,1,1.1.39,2,2,0,0,1,0,2,1.39,1.39,0,0,1-1.1.35h-.87V81.1a10.8,10.8,0,0,1-.12,1.78A2.6,2.6,0,0,1,96.88,84a1.54,1.54,0,0,1-.82.57,4.14,4.14,0,0,1-1.27.16H94.1a7.23,7.23,0,0,1-.74-.08,7.31,7.31,0,0,1-.87-.19c-.32-.09-.7-.21-1.13-.37a1.75,1.75,0,0,1-1-.73,1.47,1.47,0,0,1,0-1.19q.43-1.39,1.92-.84c.45.18.78.3,1,.37l.67.21c.37.09.6.08.71,0a1,1,0,0,0,.15-.62V70H91.17a1.41,1.41,0,0,1-1.11-.35,2,2,0,0,1,0-2,1.32,1.32,0,0,1,1.11-.39h3.69v-4a1.45,1.45,0,0,1,.33-1.12,1.34,1.34,0,0,1,1-.29,1.38,1.38,0,0,1,1,.29,1.5,1.5,0,0,1,.31,1.12ZM94.19,76.5A3.26,3.26,0,0,1,94.42,78a1,1,0,0,1-.71.77,1.26,1.26,0,0,1-1.09,0,2.24,2.24,0,0,1-.83-1.32q-.41-1.2-.78-2.22T90.11,73c-.45-1-.29-1.69.48-2.06a1.26,1.26,0,0,1,1.06-.13,1.8,1.8,0,0,1,.79,1c.19.46.36.88.52,1.24l.43,1.08c.13.36.27.72.39,1.1S94.05,76,94.19,76.5Z"/><path class="cls-1" d="M107.68,64.69a1.63,1.63,0,0,1,.31.77h1.13a1.83,1.83,0,0,1,1.09.28,1.09,1.09,0,0,1,.4.94,1.14,1.14,0,0,1-.4.95,1.7,1.7,0,0,1-1.09.32h-7.27c-1,0-1.47-.42-1.47-1.27a1.11,1.11,0,0,1,.39-.94,1.76,1.76,0,0,1,1.08-.28h2.76c-.27-.31-.53-.59-.77-.84l-.67-.72a1.1,1.1,0,0,1-.23-1,1.51,1.51,0,0,1,.54-.84,1.51,1.51,0,0,1,2,.15q.45.42,1,1C106.8,63.63,107.22,64.11,107.68,64.69Zm2.11,8.61a1,1,0,0,1-.36.86,2,2,0,0,1-1.05.22h-5.86a1.58,1.58,0,0,1-1-.22,1.07,1.07,0,0,1-.29-.86,1.41,1.41,0,0,1,.29-1,1.28,1.28,0,0,1,1-.3h5.86a1.6,1.6,0,0,1,1.05.3A1.22,1.22,0,0,1,109.79,73.3Zm0-3.26c0,.77-.43,1.15-1.3,1.15h-5.9a1.38,1.38,0,0,1-1-.27,1.19,1.19,0,0,1-.29-.88,1.06,1.06,0,0,1,1.25-1.25h5.9a1.42,1.42,0,0,1,1,.29A1.21,1.21,0,0,1,109.77,70Zm.09,11.83a2.65,2.65,0,0,1-.5,1.8,2.3,2.3,0,0,1-1.8.58h-3.94a2.22,2.22,0,0,1-1.78-.58,2.71,2.71,0,0,1-.5-1.8V77.6a2.71,2.71,0,0,1,.5-1.8,2.26,2.26,0,0,1,1.78-.58h3.94a2.34,2.34,0,0,1,1.8.58,2.65,2.65,0,0,1,.5,1.8ZM107,78.56a.93.93,0,0,0-.14-.59.68.68,0,0,0-.55-.18h-1.37a.69.69,0,0,0-.52.15,1,1,0,0,0-.13.62v2.35a1.19,1.19,0,0,0,.11.64c.07.09.25.13.54.13h1.37a.8.8,0,0,0,.56-.14,1,1,0,0,0,.13-.63Zm5.21-12a1.83,1.83,0,0,1-1.28-.24,1.43,1.43,0,0,1-.4-1,1.33,1.33,0,0,1,.36-1.18,2.15,2.15,0,0,1,1.3-.31c.93,0,1.75,0,2.47-.08s1.41-.14,2.08-.24,1.32-.25,2-.42l2.18-.63a1.54,1.54,0,0,1,1.12,0,1.22,1.22,0,0,1,.63,1c.15.82-.26,1.38-1.22,1.68-.35.13-.79.27-1.32.41s-1.13.28-1.8.41v2.57h4a1.2,1.2,0,0,1,1,.37,1.59,1.59,0,0,1,0,1.94,1.2,1.2,0,0,1-1,.37h-4v2.12H120a2.41,2.41,0,0,1,1.72.5,2.73,2.73,0,0,1,.51,1.92v6.1a2.83,2.83,0,0,1-.47,1.89,2.31,2.31,0,0,1-1.76.53h-6.58a2.83,2.83,0,0,1-1.78-.5,2.34,2.34,0,0,1-.64-1.92v-6.1a2.41,2.41,0,0,1,.61-1.92,2.77,2.77,0,0,1,1.81-.5h1.88V71.14h-4.08a1.22,1.22,0,0,1-1-.37,1.63,1.63,0,0,1,0-1.94,1.22,1.22,0,0,1,1-.37h4.08V66.34q-.75.1-1.53.15Zm7.37,10a.7.7,0,0,0-.18-.52.89.89,0,0,0-.64-.18h-4.15a.81.81,0,0,0-.66.22,1.27,1.27,0,0,0-.18.79v3.7a1,1,0,0,0,.21.75.87.87,0,0,0,.66.21h4.12c.36,0,.58-.08.68-.24a1.93,1.93,0,0,0,.14-.87Z"/><path class="cls-1" d="M146.13,74.62a1.27,1.27,0,0,1,1.1.38,1.76,1.76,0,0,1,.27,1.06,1.8,1.8,0,0,1-.27,1.07c-.17.25-.54.37-1.1.37H141.5c.68.68,1.44,1.42,2.25,2.25s1.61,1.67,2.38,2.55a2.19,2.19,0,0,1,.65,1.37,1.36,1.36,0,0,1-.51,1l0,0a1.39,1.39,0,0,1-1.17.42,2.15,2.15,0,0,1-1.31-.93l0,0c-.51-.59-.95-1.1-1.32-1.51s-.71-.8-1-1.13-.63-.65-.94-.95-.66-.62-1-1a2.16,2.16,0,0,1-.75-1.11,1.25,1.25,0,0,1,.32-1h-6.82a1.14,1.14,0,0,1,.53,1,2.6,2.6,0,0,1-.6,1.32l0,0a17.46,17.46,0,0,1-1.92,2.33c-.72.73-1.49,1.46-2.33,2.18a2.45,2.45,0,0,1-1.62.73,1.5,1.5,0,0,1-1-.54,1.31,1.31,0,0,1-.29-1.17A2.8,2.8,0,0,1,126.14,82a14.1,14.1,0,0,0,2-1.72,15.05,15.05,0,0,0,1.62-2l.36-.48a1.82,1.82,0,0,1,.34-.34h-4.59a1.28,1.28,0,0,1-1.1-.37,1.8,1.8,0,0,1-.26-1.07,1.77,1.77,0,0,1,.26-1.06,1.28,1.28,0,0,1,1.1-.38h3.8V68.94h-3.15a1.32,1.32,0,0,1-1.1-.38,1.69,1.69,0,0,1-.29-1.06,1.76,1.76,0,0,1,.29-1.08,1.29,1.29,0,0,1,1.1-.39h3.15V63.2a1.32,1.32,0,0,1,.39-1.08,1.64,1.64,0,0,1,1.05-.31,1.8,1.8,0,0,1,1.05.29,1.22,1.22,0,0,1,.43,1.1V66h7.11V63.25a1.27,1.27,0,0,1,.42-1.08,1.69,1.69,0,0,1,1-.31,1.64,1.64,0,0,1,1,.32,1.3,1.3,0,0,1,.42,1.09V66h2.66a1.29,1.29,0,0,1,1.1.39,1.69,1.69,0,0,1,.29,1.08,1.63,1.63,0,0,1-.29,1.06,1.32,1.32,0,0,1-1.1.38h-2.66v5.68Zm-13.59,0h7.11V68.94h-7.11Z"/><path class="cls-1" d="M154.5,64.64a1.21,1.21,0,0,1,.21.74,1.29,1.29,0,0,1-.21.7H156a1.18,1.18,0,0,1,.92.28,1.33,1.33,0,0,1,.26.92A1,1,0,0,1,156,68.43h-6.17a1.28,1.28,0,0,1-.92-.26,1.26,1.26,0,0,1-.25-.89,1.33,1.33,0,0,1,.25-.92,1.19,1.19,0,0,1,.92-.28h2.62a.53.53,0,0,1-.1-.14c-.22-.42-.45-.8-.68-1.16s-.47-.69-.71-1a1.08,1.08,0,0,1-.25-.87,1.05,1.05,0,0,1,.47-.69,1.59,1.59,0,0,1,1-.26,1,1,0,0,1,.81.43l.33.43.32.47c.11.17.24.36.37.59Zm2.07,17.16a2.77,2.77,0,0,1-.48,1.8,2.18,2.18,0,0,1-1.73.58h-2.74a2.12,2.12,0,0,1-1.71-.58,2.83,2.83,0,0,1-.47-1.8V78.18a2.78,2.78,0,0,1,.47-1.79,2.12,2.12,0,0,1,1.71-.57h2.74a2.18,2.18,0,0,1,1.73.57,2.72,2.72,0,0,1,.48,1.79Zm-.12-8.06a1.25,1.25,0,0,1-.25.87,1.31,1.31,0,0,1-.93.25h-4.58a1.38,1.38,0,0,1-.93-.25,1.16,1.16,0,0,1-.27-.87,1.2,1.2,0,0,1,.27-.93,1.51,1.51,0,0,1,.93-.23h4.58a1.43,1.43,0,0,1,.93.23A1.29,1.29,0,0,1,156.45,73.74Zm.09-3.1a1.15,1.15,0,0,1-.27.86,1.27,1.27,0,0,1-.9.27h-4.61a1.24,1.24,0,0,1-.9-.27,1.15,1.15,0,0,1-.28-.86,1.22,1.22,0,0,1,.28-.92,1.29,1.29,0,0,1,.9-.26h4.61a1.32,1.32,0,0,1,.9.26A1.22,1.22,0,0,1,156.54,70.64Zm-2.42,8.23a1,1,0,0,0-.13-.59.61.61,0,0,0-.52-.18h-1a.64.64,0,0,0-.49.15,1,1,0,0,0-.13.62V81.1a1.22,1.22,0,0,0,.1.64.71.71,0,0,0,.52.13h1a.73.73,0,0,0,.53-.14,1.11,1.11,0,0,0,.12-.63Zm8.38,3.29a.94.94,0,0,1,.14.94,1.53,1.53,0,0,1-.91.74,16.21,16.21,0,0,1-1.66.59c-.57.17-1.25.34-2,.51a1.77,1.77,0,0,1-1.14,0,1,1,0,0,1-.5-.81.89.89,0,0,1,.17-.84,1.59,1.59,0,0,1,.89-.43c.64-.13,1.23-.27,1.76-.42a15.84,15.84,0,0,0,1.6-.54.06.06,0,0,1,0,0h-.53a7.74,7.74,0,0,1-1.33-.09,1.52,1.52,0,0,1-.76-.31,1.16,1.16,0,0,1-.35-.61,5.34,5.34,0,0,1-.08-1V75.44a2,2,0,0,1,.37-1.4,2,2,0,0,1,1.43-.38h8.76a2.38,2.38,0,0,1,1.62.39,2,2,0,0,1,.4,1.44V79.9a4.88,4.88,0,0,1-.08.95,1,1,0,0,1-.3.6,1.35,1.35,0,0,1-.63.33,6.52,6.52,0,0,1-1.08.12,9.17,9.17,0,0,1,1.1.34l1.08.42a1.18,1.18,0,0,1,.79.6,1.22,1.22,0,0,1,0,.8c-.18.67-.75.84-1.73.52l-.77-.26-.63-.23-.62-.2c-.2-.07-.44-.13-.69-.19a1.65,1.65,0,0,1-1-.6.76.76,0,0,1,0-.84,1.45,1.45,0,0,1,.1-.18l.09-.18h-3.79A.6.6,0,0,1,162.5,82.16Zm2.92-16.78v.89h4a1.77,1.77,0,0,1,.78.13c.16.09.23.34.23.74s-.07.65-.23.76a1.29,1.29,0,0,1-.78.17H159.09a1.26,1.26,0,0,1-.76-.17c-.15-.11-.23-.36-.23-.76s.08-.65.23-.74a1.73,1.73,0,0,1,.76-.13H163v-.89h-4.92a1.47,1.47,0,0,1-.75-.14c-.16-.1-.24-.35-.24-.77s.08-.65.24-.77a1.35,1.35,0,0,1,.75-.16H163v-.7a.92.92,0,0,1,.37-.84,1.63,1.63,0,0,1,.9-.24,1.45,1.45,0,0,1,.83.24,1,1,0,0,1,.34.84v.7h5a1.44,1.44,0,0,1,.75.16.9.9,0,0,1,.26.77c0,.42-.08.67-.25.77a1.46,1.46,0,0,1-.73.14Zm5.69,6a4.55,4.55,0,0,1-.08.94,1,1,0,0,1-.3.54,1.18,1.18,0,0,1-.61.26,7,7,0,0,1-1,.06h-9.67a6.28,6.28,0,0,1-1.06-.08,1.45,1.45,0,0,1-.69-.26,1.08,1.08,0,0,1-.39-.54,2.89,2.89,0,0,1-.12-.92v-.92a1.7,1.7,0,0,1,.48-1.4,3,3,0,0,1,1.78-.37h9.36a8.27,8.27,0,0,1,1.07.06,1.8,1.8,0,0,1,.72.24,1,1,0,0,1,.39.54,3.12,3.12,0,0,1,.12,1Zm-11.76-.1c0,.19.15.29.43.29h1.32V70.26h-1.32a1.21,1.21,0,0,0-.33,0c-.07,0-.1.1-.1.23ZM168,75.39c0-.11-.09-.17-.26-.17h-7.16c-.12,0-.2,0-.21,0a.34.34,0,0,0,0,.17V76H168Zm0,2h-7.64v.67H168Zm0,2.11h-7.66v.65c0,.08,0,.12.08.12h7.41c.11,0,.17-.06.17-.19Zm-4.87-8h1.92V70.26h-1.92Zm5.76-1a.3.3,0,0,0-.06-.22,1,1,0,0,0-.4,0H167.1v1.27h1.37a.72.72,0,0,0,.36-.06.24.24,0,0,0,.1-.23Z"/><path class="cls-1" d="M184.77,70.42c-.5.71-1,1-1.56.89v9.48a2.77,2.77,0,0,1-.57,2,2.6,2.6,0,0,1-1.93.59h-4.82a2.58,2.58,0,0,1-1.92-.59,2.82,2.82,0,0,1-.55-2V67.42a2.86,2.86,0,0,1,.55-1.94,2.46,2.46,0,0,1,1.92-.62H177c0-.21.09-.42.13-.63s.08-.43.11-.67a1.86,1.86,0,0,1,.58-1.28A1.44,1.44,0,0,1,179,62a1.27,1.27,0,0,1,1.06.58,2.72,2.72,0,0,1,.09,1.41l-.09.43c0,.15-.07.29-.1.44h.79a2.49,2.49,0,0,1,1.93.62,2.81,2.81,0,0,1,.57,1.94v.27c.4-.63.77-1.27,1.13-2a12.56,12.56,0,0,0,.93-2.49,1.82,1.82,0,0,1,.66-1.21,1.44,1.44,0,0,1,1.19-.11,1.14,1.14,0,0,1,.91.69,1.93,1.93,0,0,1,0,1.32c-.08.23-.16.48-.24.77h3.91a3.72,3.72,0,0,1,1.42.25,2.44,2.44,0,0,1,.93.7,3,3,0,0,1,.54,1.06,6,6,0,0,1,.23,1.33c0,.86,0,1.81,0,2.83s0,2-.07,3.05-.08,1.95-.14,2.84-.13,1.63-.19,2.22a17.2,17.2,0,0,1-.53,2.85,4.86,4.86,0,0,1-.89,1.75,2.89,2.89,0,0,1-1.34.87,5.71,5.71,0,0,1-1.88.2,16.89,16.89,0,0,1-1.68-.24,13.55,13.55,0,0,1-2.13-.65,2.28,2.28,0,0,1-1.26-.88,1.48,1.48,0,0,1,.06-1.26,1.26,1.26,0,0,1,.79-.83A2.33,2.33,0,0,1,187,81a10.65,10.65,0,0,0,2,.66,1.71,1.71,0,0,0,1.33-.19,2.29,2.29,0,0,0,.81-1.26,15,15,0,0,0,.48-2.54c.11-.92.18-2.13.22-3.65s.06-3.43.06-5.71a.77.77,0,0,0-.24-.63,1.37,1.37,0,0,0-.84-.19h-4.24a13.8,13.8,0,0,1-.88,1.46Zm-4.32-2a.84.84,0,0,0-.17-.6,1.06,1.06,0,0,0-.74-.17h-2.76c-.24,0-.4.07-.47.21a1.52,1.52,0,0,0-.11.63v4.15h4.25Zm0,7H176.2v4.15a.88.88,0,0,0,.19.66,1,1,0,0,0,.67.18h2.72c.32,0,.51-.06.57-.17a1.13,1.13,0,0,0,.1-.57Zm9.74.89a1.92,1.92,0,0,1,.28,1.46,1.54,1.54,0,0,1-.78.79,1.21,1.21,0,0,1-1.25.07,2.51,2.51,0,0,1-.89-1.24,24,24,0,0,0-1.1-2.37c-.39-.71-.81-1.45-1.27-2.22a1.92,1.92,0,0,1-.32-1.23,1.24,1.24,0,0,1,.56-.93,1.56,1.56,0,0,1,1.15-.27,1.63,1.63,0,0,1,1,.92c.43.82.87,1.64,1.32,2.47S189.76,75.51,190.19,76.38Z"/><path class="cls-1" d="M201.59,70.57a2,2,0,0,1,.83,1,1.38,1.38,0,0,1-.4,1.19,1.14,1.14,0,0,1-.94.53,2.71,2.71,0,0,1-1.29-.55L198.65,72c-.44-.28-.91-.57-1.43-.87a1.34,1.34,0,0,1-.52-2.11c.46-.76,1.17-.85,2.13-.29.67.38,1.22.71,1.63,1S201.26,70.31,201.59,70.57Zm1.32,6.65c-.49,1.16-1,2.3-1.59,3.39a28.68,28.68,0,0,1-2,3.23,1.7,1.7,0,0,1-1.12.77,1.37,1.37,0,0,1-1.11-.29,1.41,1.41,0,0,1-.57-1,2.36,2.36,0,0,1,.59-1.38,20.75,20.75,0,0,0,1.71-2.73c.54-1,1-2.07,1.46-3.13a2.18,2.18,0,0,1,.76-1.07,1.27,1.27,0,0,1,1.11,0,1.33,1.33,0,0,1,.9.74A1.9,1.9,0,0,1,202.91,77.22ZM203.3,67a1.27,1.27,0,0,1-1,.53,2.67,2.67,0,0,1-1.27-.56l-.71-.49-.57-.38-.58-.37-.71-.44a1.57,1.57,0,0,1-.78-.81,1.74,1.74,0,0,1,.25-1.2,1.06,1.06,0,0,1,.87-.66,2.05,2.05,0,0,1,1.27.35l.83.49c.23.13.45.27.65.41l.6.4.68.5a2.11,2.11,0,0,1,.82,1A1.27,1.27,0,0,1,203.3,67Zm15.14,14.49h-.58V76.57a5.2,5.2,0,0,0-.12-1.23,1.65,1.65,0,0,0-.38-.76,1.43,1.43,0,0,0-.72-.41,4.35,4.35,0,0,0-1.1-.12H206a4.32,4.32,0,0,0-1.11.12,1.43,1.43,0,0,0-.72.41,1.57,1.57,0,0,0-.39.76,6,6,0,0,0-.1,1.23v4.89h-.87a1.19,1.19,0,0,0-1,.33,1.54,1.54,0,0,0-.26,1,1.6,1.6,0,0,0,.26,1,1.16,1.16,0,0,0,1,.35h15.65a1.14,1.14,0,0,0,1-.35,1.6,1.6,0,0,0,.25-1,1.54,1.54,0,0,0-.25-1A1.17,1.17,0,0,0,218.44,81.46ZM217,70.69V65.07a2.29,2.29,0,0,0-.49-1.69,2.36,2.36,0,0,0-1.64-.47h-8.16a2.37,2.37,0,0,0-1.65.47,2.29,2.29,0,0,0-.49,1.69v5.62a2.24,2.24,0,0,0,.49,1.69,2.43,2.43,0,0,0,1.65.44h8.16a2.42,2.42,0,0,0,1.64-.44A2.24,2.24,0,0,0,217,70.69Zm-10.89,6.17a.52.52,0,0,1,.07-.34.5.5,0,0,1,.33-.07h1.16v5h-1.56Zm.76-11.4a.28.28,0,0,1,.36-.36h2.76a2.53,2.53,0,0,0-.19.55c-.08.38-.17.72-.26,1a5.23,5.23,0,0,1-.35.8,4.82,4.82,0,0,1-.49.72c-.19.23-.43.48-.7.76a1.75,1.75,0,0,0-.6,1,1,1,0,0,0,.24.8v0h-.48a.22.22,0,0,1-.29-.29Zm4.9.93a1.24,1.24,0,0,0-.12-1.29h2.74a.38.38,0,0,1,.25.06.36.36,0,0,1,.06.25v5a.36.36,0,0,1-.06.25.38.38,0,0,1-.25.06h-5.21l.08-.07.09-.07c.38-.42.7-.8,1-1.16a8.51,8.51,0,0,0,.71-1.12q.86.81,1.53,1.53a1.79,1.79,0,0,0,.67.52c.21.07.48,0,.8-.3a.92.92,0,0,0,.38-.75,1.54,1.54,0,0,0-.48-.86l-.46-.46-.46-.44c-.17-.15-.36-.32-.57-.49s-.44-.39-.69-.63A.08.08,0,0,1,211.72,66.39Zm-1.78,10.06h1.66v5h-1.66Zm5.14,0c.18,0,.28,0,.31.08a.85.85,0,0,1,.05.35v4.58H214v-5Z"/><path class="cls-1" d="M229.53,72.15h1.94a4.65,4.65,0,0,0,.07-.62,5.5,5.5,0,0,1,.08-.65h-1.44a1.17,1.17,0,0,1-.87-.26,1.24,1.24,0,0,1-.24-.84,1.2,1.2,0,0,1,.24-.84,1.13,1.13,0,0,1,.87-.27H231a.35.35,0,0,1-.07-.12l-.55-1c-.16-.27-.31-.49-.43-.67a1.64,1.64,0,0,1-.36-.8.84.84,0,0,1,.26-.64,1.53,1.53,0,0,1-.88-.31,1,1,0,0,1-.25-.89,1,1,0,0,1,.47-.83,2.48,2.48,0,0,1,1.16-.23c.69,0,1.52,0,2.48-.08s1.92-.12,2.9-.2,1.9-.18,2.78-.29,1.59-.23,2.12-.34a1.61,1.61,0,0,1,1.2,0,1.15,1.15,0,0,1,.43,1,1,1,0,0,1-.28.89,2.47,2.47,0,0,1-1,.41h0a1.27,1.27,0,0,1,.77.76,1.54,1.54,0,0,1-.2,1.08c-.19.37-.38.73-.58,1.08s-.43.73-.69,1.13h1.27q1.23,0,1.23,1.11a1.24,1.24,0,0,1-.25.84,1.31,1.31,0,0,1-.93.26h-7.37a5.78,5.78,0,0,0-.06.65,2.77,2.77,0,0,1-.06.62h8.43a1.08,1.08,0,0,1,.86.29,1.23,1.23,0,0,1,.24.82,1.31,1.31,0,0,1-.23.84,1.07,1.07,0,0,1-.87.28h-8.81c0,.13-.08.3-.13.51s-.1.39-.13.55h6.72a2.52,2.52,0,0,1,1.45.35,1.25,1.25,0,0,1,.49,1.11,3.07,3.07,0,0,1-.48,1.49A10.55,10.55,0,0,1,240.45,80,17.39,17.39,0,0,1,239,81.39a17.21,17.21,0,0,0,1.68.71q.84.3,1.68.54c.91.19,1.32.65,1.23,1.37a1,1,0,0,1-.63.92,1.68,1.68,0,0,1-1.15,0h0a25.87,25.87,0,0,1-2.73-.88A13.25,13.25,0,0,1,236.9,83a15.94,15.94,0,0,1-2.7,1.24,21.31,21.31,0,0,1-3,.8,2.35,2.35,0,0,1-1.33,0,1,1,0,0,1-.47-.9,1.1,1.1,0,0,1,.25-.89,2.47,2.47,0,0,1,1.31-.48,15.9,15.9,0,0,0,2-.52,12.22,12.22,0,0,0,1.9-.78,9.35,9.35,0,0,1-1.28-1.49c-.39-.56-.76-1.15-1.12-1.77a13.43,13.43,0,0,1-1.29,2.37,17.67,17.67,0,0,1-1.75,2.14,2.6,2.6,0,0,1-1.29.83.9.9,0,0,1-1-.37,2.07,2.07,0,0,1-1.76.64h-2.25a3.89,3.89,0,0,1-1-.12,1.26,1.26,0,0,1-.66-.42,1.77,1.77,0,0,1-.33-.81,6.68,6.68,0,0,1-.1-1.29V65.82a6.67,6.67,0,0,1,.09-1.2,1.64,1.64,0,0,1,.31-.77,1.32,1.32,0,0,1,.65-.42,3.65,3.65,0,0,1,1.09-.13h2.25a3.84,3.84,0,0,1,1.11.13,1.26,1.26,0,0,1,.66.43,1.85,1.85,0,0,1,.31.78,6.62,6.62,0,0,1,.08,1.18V81a.47.47,0,0,0,.1-.1l.1-.09a11.36,11.36,0,0,0,2-2.76,15.4,15.4,0,0,0,1.27-3.63h-1.53a1.13,1.13,0,0,1-.87-.27,1.29,1.29,0,0,1-.24-.85,1.2,1.2,0,0,1,.24-.84A1.13,1.13,0,0,1,229.53,72.15Zm-6.1-.19h1.78v-5.4a1.08,1.08,0,0,0-.09-.54c-.05-.09-.19-.13-.42-.13h-.76a.48.48,0,0,0-.4.13.94.94,0,0,0-.11.54Zm1.78,2.59h-1.78v5.93a.94.94,0,0,0,.11.54.48.48,0,0,0,.4.13h.74c.22,0,.37,0,.43-.13a1,1,0,0,0,.1-.54Zm7.53-7.17a1.21,1.21,0,0,1,.15,1.29h2.35a1.09,1.09,0,0,1-.14-.31c-.13-.27-.26-.55-.4-.83s-.29-.58-.47-.9a2.78,2.78,0,0,1-.26-.72.71.71,0,0,1,.12-.53q-.63.06-1.29.06l-1.26,0a6,6,0,0,1,.39.59Zm1.78,10.17a9.09,9.09,0,0,0,2.42,2.59,9.54,9.54,0,0,0,1.2-1,10.56,10.56,0,0,0,1-1.09q.18-.27.12-.36c0-.07-.14-.1-.33-.1ZM237,67.38a1.22,1.22,0,0,1,0,1.29h.77l.52-.87c.16-.27.31-.52.44-.76l.37-.72c.12-.24.24-.5.37-.79s.15-.3.22-.41a1.62,1.62,0,0,1,.19-.29c-.51.08-1.13.15-1.86.22l-2.17.19.14.19c.18.32.34.63.5.94S236.79,67,237,67.38Z"/><path class="cls-1" d="M253.65,84a.79.79,0,0,1-.13.44,1,1,0,0,1-.33.29,1.84,1.84,0,0,1-.41.16,1.71,1.71,0,0,1-.36,0,1.74,1.74,0,0,1-.78-.2.74.74,0,0,1-.42-.73v-1.9h-5.83a.9.9,0,0,1-.72-.32,1.21,1.21,0,0,1-.26-.76,1,1,0,0,1,.26-.72,1,1,0,0,1,.72-.24h5.83V79.3h-3.33a3.56,3.56,0,0,1-1-.12,1.16,1.16,0,0,1-.61-.39,1.54,1.54,0,0,1-.3-.7,5.09,5.09,0,0,1-.09-1V75a2.92,2.92,0,0,1,.43-1.81,2,2,0,0,1,1.59-.52h3.33v-.89h-5.08a1,1,0,0,1-.64-.18.91.91,0,0,1-.23-.73c0-.65.29-1,.87-1h5.08v-.24a.88.88,0,0,1,.36-.75h-5.85a1.21,1.21,0,0,1-.89-.25,1.1,1.1,0,0,1-.24-.78,1.26,1.26,0,0,1,.22-.78c.14-.2.44-.3.91-.3h5.4v-.93h-4a1.35,1.35,0,0,1-.91-.21,1.12,1.12,0,0,1-.22-.83,1.28,1.28,0,0,1,.22-.85c.14-.17.44-.25.91-.25h4v-.79a.79.79,0,0,1,.41-.79,1.88,1.88,0,0,1,.93-.22,1.81,1.81,0,0,1,.95.22.82.82,0,0,1,.37.79v.79h3.53a1.38,1.38,0,0,1,.92.23,1.08,1.08,0,0,1,.26.83,1.17,1.17,0,0,1-.24.85,1.38,1.38,0,0,1-.92.23h-3.55v.93h5.64q-.07-.81-.12-1.59c0-.52-.05-1-.05-1.5a2.86,2.86,0,0,1,.24-1.37,1,1,0,0,1,.87-.46,1.13,1.13,0,0,1,1,.31,2,2,0,0,1,.37,1.23c0,.56,0,1.12,0,1.69s0,1.13,0,1.69h4.49a1.06,1.06,0,0,1,.89.31,1.42,1.42,0,0,1,.21.8,1.08,1.08,0,0,1-.24.7,1.05,1.05,0,0,1-.86.3h-4.32a2,2,0,0,1,0,.23,1,1,0,0,0,0,.23c.08,1.1.2,2.24.38,3.4s.36,2.22.55,3.18q.36-.95.69-2t.54-2.19c0-.16.09-.33.14-.5a1.77,1.77,0,0,1,.2-.46.9.9,0,0,1,.35-.29,1.14,1.14,0,0,1,.6,0,1.35,1.35,0,0,1,.94.61,1.62,1.62,0,0,1,.05,1.35c-.32,1.2-.69,2.38-1.11,3.52a25.63,25.63,0,0,1-1.46,3.3q.25.6.48,1a4.48,4.48,0,0,0,.38.64c.23.32.4.36.53.14a3.75,3.75,0,0,0,.17-1.56,1.73,1.73,0,0,1,.24-1.14,1.06,1.06,0,0,1,.93-.3,1,1,0,0,1,.92.52,3.44,3.44,0,0,1,.16,1.5,18.44,18.44,0,0,1-.28,2.37,5.58,5.58,0,0,1-.47,1.42,1.66,1.66,0,0,1-.59.67,1.42,1.42,0,0,1-.67.17A2.92,2.92,0,0,1,264,84a6.3,6.3,0,0,1-1.6-2.32c-.28.42-.59.82-.91,1.21s-.65.78-1,1.14a1.92,1.92,0,0,1-1.14.62,1,1,0,0,1-.93-.33,1.14,1.14,0,0,1-.33-1,2.48,2.48,0,0,1,.69-1.16,16.85,16.85,0,0,0,1.36-1.52,15.16,15.16,0,0,0,1.21-1.79q-.32-1-.57-2c-.18-.66-.34-1.36-.47-2.09s-.26-1.52-.36-2.36-.2-1.79-.28-2.81c0-.11,0-.23,0-.36s0-.26,0-.39h-6.36a.89.89,0,0,1,.41.75v.24h5c.58,0,.87.33.87,1s-.29.91-.87.91h-5v.89H257a2.06,2.06,0,0,1,1.6.51A2.83,2.83,0,0,1,259,75v2.09a2.74,2.74,0,0,1-.43,1.74,2.05,2.05,0,0,1-1.61.51h-3.31v.77h4.73a1.14,1.14,0,0,1,.73.23.88.88,0,0,1,.27.71,1.21,1.21,0,0,1-.27.77.92.92,0,0,1-.73.33h-4.73Zm-5.5-8.81h3.07v-.79h-2.78c-.19,0-.29.11-.29.33Zm0,2c0,.22.1.34.29.34h2.78v-.77h-3.07Zm5.5-2.83v.79h3v-.46c0-.22-.1-.33-.29-.33Zm3,2.4h-3v.77h2.71c.19,0,.29-.12.29-.34ZM266,64.64a1.44,1.44,0,0,1,.37.94,1.09,1.09,0,0,1-.44.72,1,1,0,0,1-.91.32,1.65,1.65,0,0,1-.84-.59c-.28-.33-.52-.63-.75-.87l-.69-.76c-.64-.64-.68-1.22-.1-1.75s1.15-.41,1.87.31c.27.27.54.55.79.84S265.75,64.37,266,64.64Z"/><path class="cls-1" d="M269.75,75a4,4,0,0,1,.17-1.27h-.17a1.25,1.25,0,0,1-.85-.29,1.21,1.21,0,0,1-.35-1v-.89c0-1,.3-1.66.89-1.92V65.19a5.64,5.64,0,0,1,.12-1.27,1.47,1.47,0,0,1,1.2-1.2A5.64,5.64,0,0,1,272,62.6h2.88a5.58,5.58,0,0,1,1.27.12,1.69,1.69,0,0,1,.8.41,1.6,1.6,0,0,1,.4.79,5.64,5.64,0,0,1,.12,1.27v4.35a1.14,1.14,0,0,1,.84.57,3.12,3.12,0,0,1,.24,1.39,3.22,3.22,0,0,1,0,.58c0,.16-.08.35-.15.58a1.08,1.08,0,0,1-.51.79,1.1,1.1,0,0,1-.74,0,2.67,2.67,0,0,1,.34,1.47v7.27a2.89,2.89,0,0,1-.18,1.07,2.24,2.24,0,0,1-.47.73,1.83,1.83,0,0,1-.63.42,1.91,1.91,0,0,1-.69.13h-.31l-.47,0a3.5,3.5,0,0,1-.48-.06,1.67,1.67,0,0,1-.35-.08,1.72,1.72,0,0,1-.67-.59,1.53,1.53,0,0,1-.09-1,.93.93,0,0,1,.5-.7,1.11,1.11,0,0,1,1,.08c.27.13.44.14.5,0a.94.94,0,0,0,.1-.5V80.38l-.22.15c-.7.41-1.28.74-1.72,1A4.38,4.38,0,0,1,272,82a.48.48,0,0,1-.29,0l-.22.77c-.08.24-.15.47-.23.69a1.5,1.5,0,0,1-.81,1,1,1,0,0,1-1-.12,1.44,1.44,0,0,1-.48-.72,1.91,1.91,0,0,1,.14-1.22c.13-.34.24-.64.32-.91a6.94,6.94,0,0,0,.19-.89c.05-.32.08-.69.11-1.1s0-.94,0-1.56Zm6.67-3.09q.06-.24-.24-.24h-5.11c-.08,0-.13,0-.14.07a.39.39,0,0,0,0,.14v.58a1.93,1.93,0,0,1,0,.24,1.7,1.7,0,0,0,0,.22,2.48,2.48,0,0,1,.41-.08l.48,0h3.74a2.49,2.49,0,0,1,.79.1.89.89,0,0,1,0-.46C276.33,72.28,276.38,72.1,276.42,71.89Zm-4.72-2.45h.52V68a6.52,6.52,0,0,1,.09-1.2,1.3,1.3,0,0,1,.3-.69,1.1,1.1,0,0,1,.6-.33,5.14,5.14,0,0,1,1-.08h1.08v-.46c0-.16,0-.24-.17-.24h-3.21c-.13,0-.19.12-.19.34Zm2.47,6.7a1.94,1.94,0,0,1,.71.56,1,1,0,0,1,0,.73c-.08.37-.22.59-.43.67a.89.89,0,0,1-.72-.07l-.78-.37a8.21,8.21,0,0,0-.83-.35h0v2.33a.63.63,0,0,1,0,.19l.06,0,.06,0,1-.49a11.4,11.4,0,0,0,1.26-.83,1,1,0,0,1,.74-.22V75.73a1.44,1.44,0,0,0-.1-.58c-.06-.16-.24-.24-.52-.24h-1.8a.59.59,0,0,0-.6.51h.26c.32.1.63.2.94.32A6.5,6.5,0,0,1,274.17,76.14Zm1.1-6.7V67.83h-.33a1.17,1.17,0,0,0-.42.06c-.11,0-.16.18-.16.42v1.13ZM290.61,82.5q.93,0,.93,1.08c0,.68-.31,1-.93,1H278.87c-.64,0-1-.35-1-1s.32-1.08,1-1.08h2.62a5.19,5.19,0,0,0-.4-.57c-.13-.17-.26-.31-.37-.44a.87.87,0,0,1-.1-.91,1.37,1.37,0,0,1-.94-.47,2.2,2.2,0,0,1-.28-1.29V77.36a2,2,0,0,1,.4-1.46,2.08,2.08,0,0,1,1.4-.36h7.39a2.27,2.27,0,0,1,1.48.36,2,2,0,0,1,.39,1.46v1.46a2.09,2.09,0,0,1-.33,1.36,1.74,1.74,0,0,1-1.23.42,1.39,1.39,0,0,1-.19,1.34l-.18.29c0,.1-.1.19-.13.27Zm.84-8.64a1.08,1.08,0,0,1-.21.75.9.9,0,0,1-.7.23H279.38c-.63,0-.94-.33-.94-1a1.11,1.11,0,0,1,.23-.8,1,1,0,0,1,.71-.21h11.16a.94.94,0,0,1,.7.21A1.16,1.16,0,0,1,291.45,73.86Zm-2.71-10.18a1.93,1.93,0,0,1,1.34.44,2,2,0,0,1,.48,1.53v4.61a1.88,1.88,0,0,1-.46,1.5,2.16,2.16,0,0,1-1.36.37h-7.92a2.17,2.17,0,0,1-1.37-.37,1.88,1.88,0,0,1-.46-1.5V65.65a2.07,2.07,0,0,1,.47-1.53,1.92,1.92,0,0,1,1.36-.44h1.41V63q0-1.2,1-1.2a.81.81,0,0,1,.72.29,1.76,1.76,0,0,1,.19.91v.65h1.27V63q0-1.2,1-1.2c.66,0,1,.4,1,1.2v.65ZM281,66.94h1.2V65.72h-.69c-.23,0-.37.06-.42.17a1,1,0,0,0-.09.45Zm0,2.55a.83.83,0,0,0,.1.5c.06.08.2.12.41.12h.69V68.84H281Zm7.25,8.21c0-.13-.06-.2-.19-.2h-6.34c-.13,0-.19.06-.19.17v.77c0,.13.07.19.22.19h6.28c.15,0,.22-.06.22-.19ZM283.48,82a2.44,2.44,0,0,0,.1.24,1.76,1.76,0,0,1,.07.27H286c.18-.26.34-.52.48-.77l.55-1,.07-.14h-4.56c.18.24.35.49.52.74s.3.48.4.65Zm.65-15h1.27V65.72h-1.27Zm0,3.17h1.27V68.84h-1.27Zm3.21-4.39v1.22h1.23v-.6a.85.85,0,0,0-.11-.48.51.51,0,0,0-.42-.14Zm1.23,3.12h-1.23v1.27h.7c.22,0,.37,0,.43-.15a.86.86,0,0,0,.1-.47Z"/></svg>