<?xml version="1.0" encoding="utf-8"?>
<!-- Generator: Adobe Illustrator 21.0.2, SVG Export Plug-In . SVG Version: 6.00 Build 0)  -->
<svg version="1.1" id="圖層_1" xmlns="http://www.w3.org/2000/svg" xmlns:xlink="http://www.w3.org/1999/xlink" x="0px" y="0px"
	 viewBox="0 0 331 150" style="enable-background:new 0 0 331 150;" xml:space="preserve">
<style type="text/css">
	.st0{opacity:0.1;fill:none;stroke:#1E1E1E;stroke-width:10;stroke-miterlimit:10;}
	.st1{fill:#FFFFFF;}
	.st2{fill:none;stroke:#FFFFFF;stroke-width:5;stroke-miterlimit:10;}
	.st3{fill:#3D2700;}
</style>
<path class="st0" d="M308.6,124.2h-53.4l-7.5,12.1l-9-12.1h-92.2H23.4c-6.6,0-12-5.4-12-12V21.1c0-6.6,5.4-12,12-12h285.1
	c6.6,0,12,5.4,12,12v91.2C320.6,118.8,315.2,124.2,308.6,124.2z"/>
<path class="st1" d="M308.1,122H23c-6.6,0-12-5.4-12-12V19.2c0-6.6,5.4-12,12-12h285.1c6.6,0,12,5.4,12,12V110
	C320.1,116.6,314.7,122,308.1,122z"/>
<path class="st2" d="M308.1,122.4h-53.4l-7.5,12.1l-9-12.1h-92.2H23c-6.6,0-12-5.4-12-12V19.2c0-6.6,5.4-12,12-12h285.1
	c6.6,0,12,5.4,12,12v91.2C320.1,117,314.7,122.4,308.1,122.4z"/>
<path class="st1" d="M308.1,123h-53.4l-7.5,11.5l-9-11.5H23.4c-6.6,0-12-5.4-12-12V21.1c0-6.6,5.4-12,12-12h284.7
	c6.6,0,12,5.4,12,12V111C320.1,117.6,314.7,123,308.1,123z"/>
<g>
	<path class="st3" d="M52.6,35.9c0,0.9-0.2,1.5-0.5,1.8c-0.3,0.4-0.9,0.5-1.7,0.5h-8c0,1.2-0.2,2.4-0.4,3.5
		c-0.2,1.1-0.6,2.2-1.1,3.2c-0.3,0.6-0.7,1-1,1.1c-0.4,0.1-0.7,0-1.1-0.2c-0.3-0.2-0.5-0.5-0.6-0.9c-0.1-0.4,0-0.8,0.4-1.3
		c0.5-0.7,0.9-1.7,1.1-2.8s0.3-2.5,0.3-4.1v-4.6c0-0.4,0-0.8,0.1-1.1c0.1-0.3,0.2-0.5,0.3-0.7c0.2-0.2,0.4-0.3,0.7-0.4
		c0.3-0.1,0.6-0.1,1.1-0.1h8.3c0.5,0,0.9,0,1.2,0.1c0.3,0.1,0.5,0.2,0.7,0.4c0.2,0.2,0.3,0.4,0.3,0.7c0.1,0.3,0.1,0.7,0.1,1.2V35.9z
		 M53.1,29c-0.3,0.4-0.6,0.6-0.9,0.7c-0.3,0-0.7-0.2-1.2-0.6c-0.3-0.2-0.5-0.4-0.8-0.6s-0.5-0.4-0.7-0.6V28c0,0.5-0.1,0.8-0.3,1
		c-0.2,0.1-0.5,0.2-0.8,0.2h-4.2c-0.3,0-0.5-0.1-0.6-0.2c-0.2-0.2-0.3-0.3-0.4-0.6c-0.4,0.3-0.9,0.6-1.3,0.9
		c-0.5,0.3-0.9,0.5-1.4,0.8c-0.6,0.3-1.1,0.4-1.4,0.3c-0.3-0.1-0.6-0.4-0.8-0.9c-0.1-0.4-0.1-0.7,0.1-1c0.2-0.3,0.5-0.6,1-0.9
		c0.8-0.3,1.7-0.8,2.6-1.5c0.9-0.6,1.8-1.4,2.7-2.2c0.5-0.5,1-0.7,1.6-0.7c0.2,0,0.4,0,0.6,0.1c0.2,0.1,0.4,0.2,0.7,0.3
		c0.4,0.3,0.8,0.5,1.3,0.8c0.4,0.3,0.9,0.6,1.3,0.9c0.4,0.3,0.9,0.6,1.3,0.9s0.8,0.6,1.1,0.8c0.4,0.3,0.7,0.6,0.8,0.9
		C53.4,28.3,53.4,28.6,53.1,29z M42.3,33h7.8v-0.9c0-0.2,0-0.3-0.1-0.3c0,0-0.2-0.1-0.3-0.1h-7c-0.2,0-0.3,0-0.3,0.1
		c0,0.1-0.1,0.2-0.1,0.4V33z M49.6,36.2c0.3,0,0.5-0.1,0.5-0.5l0.1-0.8h-7.8l-0.1,1.2H49.6z M52.9,43.5c0,0.5,0,0.8-0.1,1.1
		c-0.1,0.3-0.2,0.5-0.3,0.7s-0.4,0.3-0.7,0.3c-0.3,0.1-0.7,0.1-1.1,0.1h-6c-0.8,0-1.4-0.2-1.7-0.5c-0.3-0.3-0.5-0.9-0.5-1.8v-1.8
		c0-0.5,0-0.9,0.1-1.2c0.1-0.3,0.2-0.6,0.3-0.7c0.2-0.2,0.4-0.3,0.7-0.4c0.3-0.1,0.7-0.1,1.1-0.1h6c0.4,0,0.8,0,1.1,0.1
		c0.3,0.1,0.5,0.2,0.7,0.4c0.2,0.2,0.3,0.4,0.4,0.7c0.1,0.3,0.1,0.7,0.1,1.1V43.5z M46.6,25.9c-0.1-0.1-0.2-0.1-0.3-0.1
		c-0.1,0-0.2,0-0.3,0.1c-0.2,0.2-0.4,0.3-0.6,0.5s-0.4,0.3-0.6,0.5h3.4c-0.2-0.2-0.5-0.3-0.8-0.5S46.9,26.1,46.6,25.9z M50.4,41.6
		c0-0.1,0-0.1,0-0.2s-0.1,0-0.2,0h-5c-0.2,0-0.2,0.1-0.2,0.3v1.7c0,0.1,0,0.2,0,0.2s0.1,0.1,0.2,0.1h4.9c0.1,0,0.2,0,0.2-0.1
		s0-0.1,0-0.2V41.6z M60.4,42.4c0,0.9-0.1,1.6-0.3,2.2c-0.2,0.6-0.5,1-0.9,1.2c-0.4,0.3-1,0.4-1.6,0.3s-1.5-0.2-2.4-0.4
		c-0.8-0.2-1.2-0.5-1.4-0.8c-0.1-0.3-0.1-0.8,0.1-1.4c0.2-0.4,0.4-0.7,0.8-0.8c0.3-0.1,0.8,0,1.3,0.1c0.4,0.1,0.7,0.2,1,0.3
		c0.2,0.1,0.4,0,0.6,0c0.1-0.1,0.2-0.2,0.2-0.4c0-0.2,0-0.5,0-0.8V24.7c0-0.5,0.1-0.8,0.3-1.1c0.2-0.2,0.5-0.4,1-0.4s0.8,0.1,1,0.3
		c0.2,0.2,0.3,0.6,0.3,1.1V42.4z M56.6,38.8c0,0.5-0.1,0.9-0.3,1.1c-0.2,0.2-0.5,0.3-0.9,0.3c-0.4,0-0.7-0.1-0.9-0.3
		c-0.2-0.2-0.3-0.6-0.3-1.1V26.7c0-0.6,0.1-1,0.3-1.1c0.2-0.2,0.5-0.2,0.9-0.2c0.4,0,0.6,0.1,0.9,0.2c0.2,0.2,0.3,0.5,0.3,1.1V38.8z
		"/>
	<path class="st3" d="M67.9,44.9c0,1-0.5,1.5-1.4,1.5c-0.5,0-0.9-0.1-1.1-0.4c-0.2-0.2-0.3-0.6-0.3-1.1v-9.1c-0.4,0.6-0.8,0.9-1.2,1
		c-0.4,0.1-0.8-0.1-1.2-0.4c-0.4-0.3-0.7-0.6-0.7-1s0.3-0.9,0.8-1.6c1-1.4,1.9-2.8,2.5-4.3c0.7-1.5,1.2-3,1.6-4.5
		c0.2-0.6,0.4-1.1,0.6-1.3s0.6-0.4,1.1-0.3c0.6,0,0.9,0.2,1.1,0.6c0.2,0.3,0.2,0.9,0,1.6v0c-0.3,1.1-0.6,2-0.9,2.9
		c-0.3,0.9-0.7,1.7-1.1,2.5V44.9z M75.5,25.6c0,0.1-0.1,0.2-0.1,0.3c0,0.1-0.1,0.2-0.1,0.3h8.6c0.5,0,0.9,0.1,1.1,0.3
		c0.2,0.2,0.3,0.6,0.3,1.1c0,0.5-0.1,0.9-0.3,1.1c-0.2,0.2-0.6,0.3-1.2,0.3h-6.2v3.2h5.6c0.5,0,0.9,0.1,1.1,0.3
		c0.2,0.2,0.3,0.6,0.3,1.1c0,0.5-0.1,0.8-0.3,1.1c-0.2,0.3-0.5,0.4-1.1,0.4h-5.6v3.6h6.1c0.5,0,0.9,0.1,1.1,0.3s0.3,0.6,0.3,1.1
		c0,0.5-0.1,0.9-0.3,1.1s-0.6,0.3-1.1,0.3h-6.1V45c0,0.6-0.1,0.9-0.4,1.1s-0.6,0.3-1,0.3c-0.4,0-0.7-0.1-1-0.3S75,45.6,75,45V29.1
		h-0.5c-0.3,0.9-0.7,1.7-1.1,2.5c-0.4,0.8-0.9,1.6-1.5,2.5c-0.4,0.7-0.9,1-1.3,1.1c-0.4,0.1-0.8,0-1.1-0.3c-0.4-0.4-0.6-0.7-0.6-1
		c0-0.3,0.2-0.8,0.6-1.4c0.4-0.6,0.8-1.2,1.2-1.8c0.3-0.6,0.6-1.2,0.9-1.8c0.3-0.6,0.5-1.2,0.7-1.9c0.2-0.6,0.4-1.3,0.6-2.1
		c0.1-0.6,0.3-1,0.5-1.2c0.2-0.2,0.6-0.3,1.1-0.3c0.6,0.1,1,0.4,1.2,0.7C75.7,24.5,75.7,25,75.5,25.6L75.5,25.6z"/>
	<path class="st3" d="M104.5,25.9c0.9,0,1.6,0.2,2.1,0.6c0.5,0.4,0.8,1,0.8,1.9v14.5c0,0.9-0.2,1.5-0.5,1.9s-1,0.6-1.8,0.6H90.8
		c-0.9,0-1.5-0.2-1.9-0.7c-0.3-0.5-0.5-1.1-0.5-2V28.3c0-0.4,0-0.8,0.1-1.1c0.1-0.3,0.2-0.6,0.4-0.8c0.2-0.2,0.5-0.4,0.8-0.5
		c0.3-0.1,0.8-0.1,1.3-0.1h4.8c0.1-0.3,0.2-0.5,0.3-0.8c0.1-0.2,0.1-0.5,0.2-0.6c0.1-0.5,0.3-0.9,0.6-1.1c0.3-0.2,0.7-0.2,1.2-0.1
		c0.5,0.1,0.8,0.3,1,0.5c0.2,0.2,0.2,0.6,0.1,1.2c0,0.1-0.1,0.3-0.1,0.4c0,0.1-0.1,0.3-0.1,0.4H104.5z M91.2,31.3h13.2v-2.2
		c0-0.2,0-0.3-0.1-0.4s-0.3-0.1-0.6-0.1H91.8c-0.3,0-0.4,0.1-0.5,0.2c0,0.1,0,0.3,0,0.5V31.3z M91.2,37.1h13.2V34H91.2V37.1z
		 M103.9,42.7c0.3,0,0.5-0.1,0.5-0.2s0.1-0.3,0.1-0.5v-2.2H91.2V42c0,0.2,0,0.3,0.1,0.5s0.2,0.2,0.5,0.2H103.9z"/>
	<path class="st3" d="M133.2,40.2c0,1-0.1,1.9-0.2,2.6s-0.4,1.3-0.8,1.7c-0.4,0.4-0.9,0.7-1.5,0.9s-1.4,0.3-2.4,0.3
		c-0.9,0-1.8,0.1-2.7,0.1c-0.9,0-1.7,0-2.5,0c-1.6,0-3.2,0-4.9-0.1c-1.2,0-2.2-0.1-3-0.3c-0.8-0.1-1.4-0.4-1.8-0.8
		c-0.5-0.4-0.8-0.9-1-1.6c-0.2-0.7-0.3-1.6-0.3-2.7v-4.9c0-0.6,0-1.2,0.1-1.6c0.1-0.4,0.2-0.7,0.5-1c0.2-0.2,0.6-0.4,1-0.5
		c0.4-0.1,1-0.1,1.7-0.1h12c0.2,0,0.3,0,0.3-0.1c0-0.1,0.1-0.1,0.1-0.2v-4.2c0-0.1,0-0.2-0.1-0.2c0-0.1-0.1-0.1-0.3-0.1h-14.5
		c-0.6,0-0.9-0.1-1.2-0.3c-0.2-0.2-0.3-0.6-0.3-1.2c0-0.5,0.1-0.9,0.3-1.1c0.2-0.2,0.6-0.4,1.2-0.4h14.4c0.7,0,1.3,0.1,1.7,0.2
		c0.4,0.1,0.8,0.3,1,0.5c0.2,0.2,0.4,0.6,0.5,1c0.1,0.4,0.1,0.9,0.1,1.6V32c0,0.6,0,1.2-0.1,1.6c-0.1,0.4-0.2,0.7-0.5,1
		c-0.2,0.2-0.6,0.4-1,0.5c-0.4,0.1-1,0.2-1.7,0.2h-11.9c-0.3,0-0.4,0.1-0.4,0.3v5c0,0.5,0,0.9,0.1,1.2s0.2,0.5,0.5,0.7
		c0.2,0.2,0.5,0.3,0.9,0.3s0.9,0.1,1.5,0.1c1.4,0,2.7,0.1,4,0.1c0.9,0,1.8,0,2.8,0c1,0,1.9,0,2.9-0.1c0.5,0,0.9-0.1,1.2-0.1
		s0.6-0.2,0.7-0.4c0.2-0.2,0.3-0.5,0.4-0.8c0.1-0.4,0.1-0.8,0.1-1.4c0-0.6,0.1-1.1,0.4-1.4c0.2-0.3,0.6-0.4,1.1-0.4
		c0.5,0,0.9,0.1,1.1,0.4C133.1,39.1,133.2,39.5,133.2,40.2z"/>
	<path class="st3" d="M135.7,29.3c-0.5,0-0.9-0.1-1.1-0.4c-0.2-0.3-0.3-0.6-0.3-1c0-0.5,0.1-0.8,0.3-1.1c0.2-0.2,0.5-0.3,1.1-0.3
		h3.2v-1.9c0-0.5,0.1-0.9,0.4-1.1c0.3-0.2,0.6-0.3,1-0.3s0.8,0.1,1,0.3c0.3,0.2,0.4,0.6,0.4,1.1v1.9h3.1c0.6,0,0.9,0.1,1.1,0.3
		c0.2,0.2,0.3,0.6,0.3,1.1c0,0.4-0.1,0.8-0.3,1c-0.2,0.3-0.6,0.4-1.1,0.4h-3.1v3.1h1.3c0.5,0,1,0,1.3,0.1c0.3,0.1,0.6,0.2,0.8,0.4
		c-0.1-0.2-0.1-0.4,0-0.6c0.1-0.2,0.2-0.5,0.4-0.9c0.2-0.4,0.4-0.9,0.6-1.4s0.4-1,0.6-1.6c0.2-0.6,0.3-1.2,0.5-1.8
		c0.1-0.6,0.2-1.2,0.3-1.8c0-0.7,0.2-1.2,0.4-1.4c0.2-0.2,0.6-0.3,1.1-0.3c0.5,0,0.8,0.2,1.1,0.4c0.2,0.3,0.3,0.8,0.2,1.5
		c0,0.1,0,0.2,0,0.3c0,0.1,0,0.2-0.1,0.3h5.6c0.5,0,0.8,0.1,1,0.3c0.2,0.2,0.3,0.6,0.3,1c0,0.4-0.1,0.8-0.3,1
		c-0.2,0.3-0.6,0.4-1,0.4h0c-0.2,2.5-0.6,4.6-1,6.4c-0.5,1.8-1.1,3.4-1.8,4.8c0.4,0.5,0.7,1,1,1.3s0.6,0.7,0.9,1
		c0.3,0.3,0.6,0.6,0.8,0.8c0.3,0.2,0.6,0.5,0.9,0.7c0.5,0.4,0.9,0.8,0.9,1.2c0.1,0.3,0,0.7-0.3,1.1c-0.3,0.4-0.6,0.6-1,0.6
		c-0.4,0-0.9-0.2-1.4-0.7c-0.7-0.6-1.3-1.2-1.9-1.7c-0.5-0.5-1-1.1-1.4-1.7c-0.6,0.9-1.1,1.6-1.6,2.1c-0.5,0.5-1,1-1.5,1.4
		c-0.6,0.5-1.1,0.6-1.5,0.6c-0.4-0.1-0.8-0.4-1.1-0.8c-0.2-0.4-0.3-0.7-0.1-1.1c0.2-0.4,0.5-0.7,1-1.1c0.6-0.5,1.2-1,1.6-1.5
		c0.5-0.6,1-1.3,1.5-2.1c-0.4-0.9-0.8-1.9-1.2-3c-0.4-1.1-0.7-2.2-0.9-3.4c-0.3,0.3-0.5,0.5-0.8,0.4c-0.3,0-0.5-0.1-0.8-0.2
		c-0.1-0.1-0.2-0.1-0.3-0.2c-0.1-0.1-0.1-0.1-0.2-0.2c0.2,0.4,0.3,1,0.3,1.8v7.6c0,0.5,0,0.9-0.1,1.3c-0.1,0.3-0.2,0.6-0.4,0.8
		c-0.2,0.2-0.5,0.4-0.8,0.5c-0.3,0.1-0.8,0.1-1.4,0.1h-5.6c-0.5,0-1,0-1.3-0.1s-0.6-0.2-0.8-0.4c-0.2-0.2-0.3-0.5-0.4-0.8
		c-0.1-0.4-0.1-0.8-0.1-1.3v-7.6c0-0.5,0-1,0.1-1.3s0.2-0.6,0.4-0.8c0.2-0.2,0.4-0.3,0.8-0.4c0.3-0.1,0.8-0.1,1.3-0.1h1.4v-3.1
		H135.7z M143,35.4c0-0.1,0-0.2,0-0.2c0,0-0.1,0-0.2,0h-4.6c-0.1,0-0.2,0-0.2,0s0,0.1,0,0.2v6.9c0,0.1,0,0.2,0.1,0.2s0.1,0,0.3,0
		h4.4c0.2,0,0.3,0,0.3-0.1c0-0.1,0.1-0.2,0.1-0.4V35.4z M149.5,29.5c0.2,1.3,0.5,2.6,0.8,3.8c0.3,1.3,0.7,2.4,1.1,3.4
		c0.4-1,0.7-2.1,1-3.4c0.3-1.3,0.5-2.9,0.7-4.8h-3.3L149.5,29.5z"/>
	<path class="st3" d="M171.2,25h8.4c0.4,0,0.8,0.1,0.9,0.3s0.3,0.5,0.3,0.9c0,0.4-0.1,0.7-0.3,0.9c-0.2,0.2-0.5,0.2-0.9,0.2h-8.4
		v0.9h5.2c0.8,0,1.4,0.1,1.7,0.4c0.4,0.3,0.6,0.8,0.6,1.5v0.9c0,0.7-0.2,1.2-0.6,1.5c-0.4,0.3-1,0.4-1.7,0.4h-5.2v1h5.4
		c0.5,0,0.9,0,1.2,0.1c0.3,0,0.5,0.2,0.7,0.3s0.3,0.4,0.3,0.7c0.1,0.3,0.1,0.7,0.1,1.2v0.7h1.1c0.4,0,0.7,0.1,0.9,0.3
		c0.2,0.2,0.3,0.5,0.3,0.9c0,0.4-0.1,0.7-0.3,0.9c-0.2,0.2-0.5,0.2-0.9,0.2h-1.1v0.8c0,0.5,0,0.9-0.1,1.2c-0.1,0.3-0.2,0.5-0.3,0.7
		c-0.2,0.2-0.4,0.3-0.7,0.4c-0.3,0.1-0.7,0.1-1.1,0.1h-5.4v1.2c0,0.4,0,0.8-0.1,1.2s-0.2,0.7-0.5,0.9c-0.2,0.2-0.5,0.4-0.9,0.6
		c-0.4,0.1-0.9,0.2-1.5,0.2c-0.4,0-0.9,0-1.4-0.1c-0.5,0-1.1-0.1-1.8-0.3c-0.5-0.1-0.8-0.3-1-0.6c-0.2-0.3-0.2-0.6-0.1-1.1
		c0.3-0.7,0.9-1,1.8-0.7c0.6,0.2,1.1,0.3,1.4,0.3c0.3,0,0.6,0.1,0.8,0.1c0.2,0,0.3-0.1,0.4-0.2c0.1-0.1,0.1-0.3,0.1-0.6v-0.8h-7.2
		c-0.4,0-0.7-0.1-0.9-0.2c-0.2-0.1-0.3-0.4-0.3-0.9c0-0.4,0.1-0.7,0.3-0.9c0.2-0.1,0.5-0.2,0.9-0.2h7.2v-1.1h-8.8
		c-0.4,0-0.7-0.1-0.9-0.2c-0.2-0.2-0.3-0.4-0.3-0.9c0-0.4,0.1-0.7,0.3-0.9c0.2-0.2,0.5-0.3,0.9-0.3h8.8v-1h-7.1
		c-0.4,0-0.7-0.1-0.9-0.2c-0.2-0.2-0.3-0.5-0.3-0.9c0-0.4,0.1-0.6,0.3-0.8c0.2-0.1,0.5-0.2,0.9-0.2h7.1v-1H163
		c-0.8,0-1.4-0.1-1.8-0.4c-0.4-0.3-0.5-0.8-0.5-1.5V30c0-0.7,0.2-1.2,0.5-1.5s0.9-0.4,1.8-0.4h5.4v-0.9h-8.7c-0.5,0-0.8-0.1-0.9-0.2
		c-0.2-0.2-0.3-0.4-0.3-0.9c0-0.4,0.1-0.7,0.3-0.9s0.5-0.3,0.9-0.3h8.7v-0.6c0-0.5,0.1-0.8,0.4-1c0.2-0.2,0.6-0.3,1-0.3
		c0.4,0,0.7,0.1,1,0.3c0.2,0.2,0.4,0.5,0.4,1V25z M163.3,30.8c0,0.1,0,0.1,0.1,0.2c0.1,0,0.2,0.1,0.4,0.1h4.7v-0.9h-4.7
		c-0.3,0-0.5,0.1-0.5,0.3V30.8z M176,30.4c0-0.1,0-0.1-0.1-0.2s-0.2-0.1-0.4-0.1h-4.4V31h4.4c0.3,0,0.5-0.1,0.5-0.2V30.4z
		 M171.2,35.9v1h5v-0.7c0-0.2-0.1-0.3-0.4-0.3H171.2z M175.7,40.1c0.2,0,0.3,0,0.4-0.1c0.1,0,0.1-0.2,0.1-0.3v-0.7h-5v1.1H175.7z"/>
	<path class="st3" d="M194.6,31.8c-0.5,0.7-1,1-1.6,0.9v9.5c0,0.9-0.2,1.6-0.6,2c-0.4,0.4-1,0.6-1.9,0.6h-4.8
		c-0.9,0-1.6-0.2-1.9-0.6s-0.6-1-0.6-2V28.8c0-0.9,0.2-1.5,0.6-1.9c0.4-0.4,1-0.6,1.9-0.6h1.1c0-0.2,0.1-0.4,0.1-0.6
		c0-0.2,0.1-0.4,0.1-0.7c0.1-0.6,0.3-1,0.6-1.3c0.3-0.2,0.7-0.3,1.2-0.3c0.6,0.1,0.9,0.3,1.1,0.6c0.1,0.3,0.2,0.8,0.1,1.4
		c0,0.1-0.1,0.3-0.1,0.4c0,0.1-0.1,0.3-0.1,0.4h0.8c0.9,0,1.6,0.2,1.9,0.6c0.4,0.4,0.6,1.1,0.6,1.9v0.3c0.4-0.6,0.8-1.3,1.1-1.9
		s0.7-1.5,0.9-2.5c0.1-0.6,0.3-1,0.7-1.2c0.3-0.2,0.7-0.2,1.2-0.1c0.5,0.1,0.8,0.3,0.9,0.7c0.1,0.4,0.1,0.8,0,1.3
		c-0.1,0.2-0.2,0.5-0.2,0.8h3.9c0.6,0,1,0.1,1.4,0.3c0.4,0.2,0.7,0.4,0.9,0.7c0.2,0.3,0.4,0.6,0.5,1.1c0.1,0.4,0.2,0.9,0.2,1.3
		c0,0.9,0,1.8,0,2.8c0,1,0,2-0.1,3c0,1-0.1,2-0.1,2.8c-0.1,0.9-0.1,1.6-0.2,2.2c-0.1,1.2-0.3,2.1-0.5,2.8c-0.2,0.7-0.5,1.3-0.9,1.8
		c-0.4,0.4-0.8,0.7-1.3,0.9c-0.5,0.2-1.2,0.2-1.9,0.2c-0.5,0-1-0.1-1.7-0.2c-0.6-0.1-1.4-0.3-2.1-0.6c-0.7-0.3-1.1-0.5-1.3-0.9
		c-0.2-0.3-0.1-0.7,0.1-1.3c0.2-0.4,0.4-0.7,0.8-0.8c0.4-0.1,0.8,0,1.4,0.2c0.8,0.3,1.5,0.6,2,0.7s1,0,1.3-0.2
		c0.3-0.2,0.6-0.7,0.8-1.3c0.2-0.6,0.4-1.5,0.5-2.5c0.1-0.9,0.2-2.1,0.2-3.6s0.1-3.4,0.1-5.7c0-0.3-0.1-0.5-0.2-0.6
		c-0.2-0.1-0.4-0.2-0.8-0.2h-4.2c-0.3,0.5-0.5,1-0.9,1.5S194.9,31.3,194.6,31.8z M190.3,29.9c0-0.3-0.1-0.5-0.2-0.6
		c-0.1-0.1-0.4-0.2-0.7-0.2h-2.8c-0.2,0-0.4,0.1-0.5,0.2c-0.1,0.1-0.1,0.4-0.1,0.6v4.2h4.2V29.9z M190.3,36.9H186V41
		c0,0.3,0.1,0.5,0.2,0.7c0.1,0.1,0.4,0.2,0.7,0.2h2.7c0.3,0,0.5-0.1,0.6-0.2c0.1-0.1,0.1-0.3,0.1-0.6V36.9z M200,37.8
		c0.3,0.6,0.4,1.1,0.3,1.5c-0.1,0.3-0.4,0.6-0.8,0.8c-0.5,0.3-0.9,0.3-1.2,0.1c-0.3-0.2-0.6-0.6-0.9-1.2c-0.4-0.9-0.7-1.7-1.1-2.4
		s-0.8-1.5-1.3-2.2c-0.3-0.4-0.4-0.8-0.3-1.2c0-0.4,0.2-0.7,0.6-0.9c0.4-0.3,0.8-0.3,1.2-0.3c0.4,0.1,0.7,0.4,1,0.9
		c0.4,0.8,0.9,1.6,1.3,2.5C199.1,36.1,199.6,36.9,200,37.8z"/>
	<path class="st3" d="M208.7,41.3c0.2-0.3,0.4-0.5,0.7-0.6c0.3-0.1,0.6,0,0.9,0.2c0.4,0.2,0.5,0.5,0.4,0.8s-0.2,0.7-0.5,1.1
		c-0.4,0.6-0.7,1-1,1.4c-0.3,0.4-0.7,0.8-1.1,1.2c-0.3,0.2-0.6,0.3-1,0.4c-0.4,0-0.7-0.2-0.9-0.6c-0.1-0.3-0.1-0.6,0-0.9
		c0.2-0.3,0.4-0.5,0.6-0.8c0.3-0.3,0.6-0.6,0.9-0.9C208.1,42.1,208.4,41.8,208.7,41.3z M219.2,32.3c0.4,0,0.6,0.1,0.9,0.2
		c0.2,0.1,0.3,0.4,0.3,0.7s-0.1,0.6-0.3,0.7c-0.2,0.2-0.5,0.2-0.9,0.2h-11.7c-0.4,0-0.6-0.1-0.9-0.2c-0.2-0.2-0.3-0.4-0.3-0.7
		s0.1-0.6,0.3-0.7c0.2-0.1,0.5-0.2,0.9-0.2h4.5c-0.1-0.2-0.1-0.4-0.1-0.5c0-0.2,0-0.3,0.1-0.5h-2.5c-0.7,0-1.2-0.2-1.5-0.5
		c-0.3-0.3-0.5-0.9-0.5-1.9v-2.6c0-0.5,0-0.9,0.1-1.2s0.2-0.6,0.4-0.7c0.2-0.2,0.4-0.3,0.6-0.3s0.6-0.1,0.9-0.1h7.4
		c0.8,0,1.3,0.2,1.6,0.5c0.3,0.3,0.5,0.9,0.5,1.9v2.6c0,0.9-0.2,1.6-0.5,1.9c-0.3,0.3-0.9,0.5-1.6,0.5h-2.7c0,0.1,0.1,0.2,0.2,0.4
		c0.1,0.2,0.1,0.4,0.2,0.6H219.2z M209.6,40.4c-0.4,0-0.7,0-0.9-0.1s-0.5-0.2-0.6-0.3c-0.2-0.1-0.3-0.3-0.4-0.6
		c-0.1-0.3-0.1-0.6-0.1-1v-1.2c0-0.4,0-0.8,0.1-1c0.1-0.3,0.2-0.5,0.3-0.6c0.2-0.2,0.4-0.3,0.6-0.3c0.3-0.1,0.6-0.1,0.9-0.1h7.6
		c0.6,0,1.1,0.1,1.5,0.4c0.4,0.3,0.6,0.8,0.6,1.6v1.2c0,0.8-0.2,1.4-0.5,1.6c-0.3,0.3-0.8,0.4-1.5,0.4h-2.1v3.4
		c0,0.8-0.2,1.3-0.6,1.8c-0.4,0.4-1,0.6-2,0.6c-0.5,0-0.8-0.1-1.2-0.1c-0.3-0.1-0.6-0.1-0.9-0.3c-0.3-0.1-0.5-0.3-0.6-0.6
		c-0.1-0.3-0.1-0.6,0-0.9c0.1-0.4,0.3-0.6,0.5-0.7c0.2-0.1,0.5-0.1,0.8,0c0.5,0.2,0.8,0.2,1,0.1s0.3-0.3,0.3-0.6v-2.8H209.6z
		 M216.6,26.2c0-0.2-0.1-0.4-0.3-0.4h-6.1c-0.1,0-0.2,0-0.2,0c0,0-0.1,0.1-0.1,0.3V27h6.6V26.2z M216.6,28.4H210v0.7
		c0,0.2,0.1,0.3,0.4,0.3h5.8c0.1,0,0.3,0,0.3-0.1c0.1,0,0.1-0.1,0.1-0.3V28.4z M216.6,37.4c0-0.2,0-0.3-0.1-0.4c0,0-0.1-0.1-0.2-0.1
		h-6c-0.2,0-0.3,0.1-0.3,0.4v0.8c0,0.3,0.1,0.4,0.3,0.4h5.9c0.2,0,0.3,0,0.3-0.1c0-0.1,0.1-0.2,0.1-0.4V37.4z M218,44.6
		c-0.4-0.4-0.6-0.8-0.9-1c-0.2-0.3-0.4-0.5-0.6-0.7c-0.3-0.3-0.5-0.6-0.6-0.9c-0.1-0.3,0.1-0.6,0.3-0.8c0.3-0.3,0.6-0.4,0.8-0.3
		c0.2,0,0.5,0.2,0.7,0.5c0.4,0.4,0.7,0.7,1,1c0.2,0.3,0.5,0.6,0.8,1c0.2,0.3,0.3,0.5,0.3,0.7c0.1-0.1,0.2-0.3,0.3-0.4
		c0.1-0.1,0.3-0.3,0.5-0.4c0.5-0.3,1-0.7,1.4-1.1c0.5-0.4,0.9-0.8,1.4-1.3c0.5-0.5,1-1.1,1.5-1.7s1-1.3,1.5-2.1
		c0.3-0.6,0.7-0.9,1-1.1c0.3-0.2,0.7-0.1,1.1,0c0.4,0.2,0.7,0.5,0.8,0.9s-0.1,0.9-0.5,1.5c-0.6,0.9-1.1,1.7-1.7,2.4
		s-1.1,1.4-1.7,1.9c-0.6,0.6-1.2,1.1-1.8,1.6c-0.6,0.5-1.2,1-1.9,1.4c-0.5,0.3-0.9,0.4-1.2,0.4c-0.4,0-0.7-0.3-0.9-0.8
		c-0.1-0.2-0.2-0.4-0.2-0.6c0,0,0,0.1,0,0.1c0,0,0,0-0.1,0.1c-0.3,0.2-0.5,0.3-0.7,0.3C218.5,45.1,218.3,44.9,218,44.6z M228.1,30.1
		c0.5,0.4,0.7,0.7,0.7,1.1c0,0.4-0.2,0.8-0.7,1.3c-0.8,0.9-1.6,1.8-2.6,2.7c-1,0.8-2,1.5-3,2.1c-0.6,0.4-1.1,0.5-1.5,0.3
		c-0.4-0.1-0.6-0.4-0.8-0.8c-0.2-0.5-0.2-0.9,0-1.2c0.2-0.3,0.5-0.5,0.9-0.8c1-0.5,1.8-1.1,2.6-1.7s1.5-1.4,2.2-2.4
		c0.4-0.5,0.8-0.8,1.1-0.9S227.7,29.8,228.1,30.1z M227.8,23.9c0.5,0.3,0.7,0.7,0.7,1c0,0.4-0.2,0.8-0.7,1.4
		c-0.7,0.8-1.4,1.6-2.2,2.4c-0.8,0.7-1.7,1.4-2.7,2.1c-0.5,0.4-1,0.6-1.4,0.6c-0.4,0-0.7-0.2-1-0.7c-0.3-0.5-0.4-0.9-0.2-1.2
		c0.2-0.3,0.5-0.6,1-0.9c1-0.6,1.8-1.2,2.5-1.8s1.3-1.3,1.8-2.1c0.5-0.6,0.9-1,1.2-1.1S227.4,23.6,227.8,23.9L227.8,23.9z"/>
	<path class="st3" d="M253.2,32.6c0,0.4-0.1,0.7-0.3,0.9c-0.2,0.2-0.5,0.4-1,0.4h-20.2c-0.5,0-0.9-0.1-1-0.4
		c-0.2-0.2-0.3-0.6-0.3-0.9c0-0.4,0.1-0.7,0.3-1c0.2-0.2,0.5-0.4,1-0.4h4.6c-0.1-0.2-0.2-0.4-0.2-0.7c-0.1-0.2-0.2-0.5-0.3-0.7
		c-0.2-0.4-0.2-0.8-0.2-1.1c0-0.3,0.1-0.5,0.3-0.7h-3c-0.9,0-1.4-0.4-1.4-1.3c0-0.4,0.1-0.7,0.3-1c0.2-0.2,0.6-0.4,1.1-0.4h7.2
		l-0.1-0.1c-0.2-0.4-0.2-0.8-0.1-1.2c0.1-0.4,0.4-0.6,1-0.9c0.4-0.1,0.8-0.1,1.1,0c0.3,0.1,0.6,0.5,0.8,1c0.1,0.2,0.1,0.4,0.2,0.6
		c0.1,0.2,0.1,0.4,0.2,0.6h7.4c0.9,0,1.4,0.4,1.4,1.3c0,0.4-0.1,0.7-0.3,1c-0.2,0.2-0.6,0.4-1,0.4h-2.5c0.1,0.2,0.1,0.4,0.1,0.7
		s-0.1,0.6-0.2,0.9c-0.1,0.3-0.2,0.6-0.3,0.9s-0.2,0.5-0.3,0.7h4.5c0.5,0,0.9,0.1,1,0.4C253.2,31.8,253.2,32.2,253.2,32.6z
		 M250.3,43.3c0,0.9-0.2,1.5-0.5,1.9c-0.3,0.4-1,0.6-1.8,0.6h-12.5c-0.9,0-1.5-0.2-1.8-0.6c-0.3-0.4-0.5-1-0.5-1.9v-6.2
		c0-0.9,0.2-1.5,0.5-1.8c0.3-0.3,0.9-0.5,1.8-0.5H248c0.9,0,1.5,0.2,1.8,0.5c0.3,0.3,0.5,0.9,0.5,1.8V43.3z M247.4,37.7
		c0-0.1-0.1-0.2-0.3-0.2h-10.7c-0.2,0-0.3,0.1-0.3,0.3V39h11.4V37.7z M247.4,41.6h-11.4v1.3c0,0.2,0.1,0.3,0.3,0.3h10.7
		c0.1,0,0.2,0,0.2,0c0,0,0.1-0.1,0.1-0.2V41.6z M239,31.1C239,31.2,239,31.2,239,31.1c0,0.1,0,0.1,0,0.1h5.4
		c0.2-0.4,0.4-0.8,0.6-1.2c0.1-0.4,0.3-0.8,0.4-1.3c0.1-0.3,0.2-0.5,0.3-0.7h-7.8c0.1,0.1,0.1,0.2,0.2,0.3c0.1,0.1,0.1,0.2,0.2,0.4
		c0.1,0.4,0.3,0.8,0.4,1.2C238.8,30.3,238.9,30.7,239,31.1z"/>
	<path class="st3" d="M258.9,38.4l-1.1,2.8c-0.1,0.4-0.3,0.7-0.6,0.9c-0.3,0.2-0.6,0.3-1.1,0.3s-0.9-0.1-1.2-0.4
		c-0.3-0.3-0.3-0.7-0.1-1.4l4.9-14.4c0.1-0.3,0.3-0.5,0.5-0.7c0.3-0.2,0.6-0.3,1.1-0.3c0.4,0,0.8,0.1,1.1,0.3
		c0.3,0.2,0.4,0.4,0.5,0.7l5,14.5c0.2,0.6,0.1,1.1-0.2,1.3c-0.3,0.3-0.7,0.4-1.2,0.4c-0.5,0-0.9-0.1-1.1-0.3
		c-0.2-0.2-0.4-0.5-0.6-0.8l-1.2-2.9H258.9z M263.2,35.7l-1.8-6l-1.8,6H263.2z"/>
	<path class="st3" d="M272.7,44.8c0,0.1,0,0.3-0.1,0.4s-0.1,0.3-0.2,0.4c-0.1,0.1-0.3,0.2-0.5,0.3c-0.2,0.1-0.5,0.1-0.8,0.1
		c-0.6,0-1-0.2-1.2-0.4s-0.3-0.5-0.3-0.8V30.5c0-0.3,0.1-0.5,0.4-0.8s0.6-0.4,1.1-0.4c0.5,0,0.9,0.1,1.1,0.4s0.4,0.6,0.4,0.8v1
		c0.3-0.8,0.8-1.4,1.3-1.9c0.6-0.4,1.3-0.6,2-0.6c0.7,0,1.4,0.1,2,0.3c0.6,0.2,1.2,0.6,1.7,1.2c0.5,0.5,0.9,1.3,1.2,2.1
		c0.3,0.9,0.4,2,0.4,3.3c0,1.1-0.1,2-0.4,2.8c-0.3,0.8-0.6,1.5-1.1,2.1c-0.5,0.6-1,1-1.7,1.3c-0.6,0.3-1.4,0.4-2.1,0.4
		c-0.8,0-1.4-0.2-2-0.5c-0.5-0.3-1-0.9-1.4-1.7V44.8z M278.2,36c0-1.4-0.2-2.5-0.8-3.2c-0.5-0.7-1.2-1.1-2.1-1.1
		c-0.9,0-1.5,0.4-2,1.2c-0.4,0.8-0.7,1.8-0.7,3.1c0,1.2,0.2,2.2,0.6,3c0.4,0.7,1.1,1.1,2,1.1c0.9,0,1.6-0.3,2.1-1
		S278.2,37.4,278.2,36z"/>
	<path class="st3" d="M286,44.8c0,0.1,0,0.3-0.1,0.4c0,0.1-0.1,0.3-0.2,0.4c-0.1,0.1-0.3,0.2-0.5,0.3c-0.2,0.1-0.5,0.1-0.8,0.1
		c-0.6,0-1-0.2-1.2-0.4c-0.2-0.3-0.3-0.5-0.3-0.8V30.5c0-0.3,0.1-0.5,0.4-0.8c0.2-0.3,0.6-0.4,1.1-0.4c0.5,0,0.9,0.1,1.1,0.4
		s0.4,0.6,0.4,0.8v1c0.3-0.8,0.8-1.4,1.3-1.9c0.6-0.4,1.3-0.6,2-0.6c0.7,0,1.4,0.1,2,0.3c0.6,0.2,1.2,0.6,1.7,1.2
		c0.5,0.5,0.9,1.3,1.2,2.1c0.3,0.9,0.4,2,0.4,3.3c0,1.1-0.1,2-0.4,2.8c-0.3,0.8-0.6,1.5-1.1,2.1c-0.5,0.6-1,1-1.7,1.3
		c-0.6,0.3-1.4,0.4-2.1,0.4s-1.4-0.2-2-0.5s-1-0.9-1.4-1.7V44.8z M291.5,36c0-1.4-0.2-2.5-0.8-3.2c-0.5-0.7-1.2-1.1-2.1-1.1
		c-0.9,0-1.5,0.4-2,1.2c-0.4,0.8-0.7,1.8-0.7,3.1c0,1.2,0.2,2.2,0.6,3c0.4,0.7,1.1,1.1,2,1.1s1.6-0.3,2.1-1
		C291.2,38.5,291.5,37.4,291.5,36z"/>
	<path class="st3" d="M31.8,72.2c0,0.9-0.2,1.6-0.5,2.1c-0.4,0.5-0.9,0.7-1.8,0.7c-0.3,0-0.6,0-0.8-0.1s-0.6-0.2-1-0.3
		c-0.5-0.2-0.8-0.5-0.9-0.8c-0.1-0.4-0.1-0.7,0-1.2c0.2-0.5,0.4-0.8,0.7-0.9c0.3-0.1,0.7-0.1,1.3,0.1c0.1,0.1,0.2,0.1,0.3,0
		c0.1,0,0.1-0.2,0.1-0.4v-4.6c-0.1,0.1-0.2,0.1-0.3,0.2c-0.1,0.1-0.2,0.1-0.3,0.1l0,0c-1,0.6-1.7,0.4-2.1-0.5
		c-0.2-0.5-0.3-0.9-0.1-1.2s0.5-0.6,1.1-0.9c0.3-0.1,0.6-0.3,0.8-0.4c0.3-0.1,0.5-0.3,0.8-0.5v-4.8h-1.4c-0.5,0-0.8-0.1-1-0.3
		c-0.2-0.2-0.3-0.5-0.3-1c0-0.5,0.1-0.8,0.3-1s0.5-0.3,1-0.3h1.4v-2.9c0-0.5,0.1-0.9,0.4-1.1c0.2-0.2,0.6-0.3,1-0.3
		c0.9,0,1.3,0.5,1.3,1.4v2.9h0.7c0.5,0,0.8,0.1,1,0.3c0.2,0.2,0.3,0.5,0.3,1c0,0.5-0.1,0.8-0.3,1c-0.2,0.2-0.5,0.3-1,0.3h-0.7v2.8
		c0.7-0.5,1.3-0.4,2,0.3c0.2,0.3,0.3,0.6,0.3,0.9c0,0.3-0.3,0.7-0.7,1.1h0c-0.3,0.2-0.5,0.5-0.8,0.7S32,65,31.8,65.2V72.2z
		 M42.9,73.9c0,0.5-0.1,0.8-0.4,1c-0.3,0.2-0.6,0.3-0.9,0.3c-0.3,0-0.6-0.1-0.9-0.3s-0.4-0.5-0.4-1v-1.8h-5.1c-0.5,0-0.8-0.1-1-0.3
		c-0.2-0.2-0.3-0.4-0.3-0.8c0-0.4,0.1-0.7,0.3-0.9c0.2-0.2,0.6-0.3,1-0.3h5.1v-1.1h-2.7c-0.5,0-0.9,0-1.2-0.1
		c-0.3-0.1-0.6-0.2-0.8-0.4c-0.2-0.2-0.3-0.4-0.4-0.8c-0.1-0.3-0.1-0.8-0.1-1.3v-3.6c0-0.5,0-1,0.1-1.3c0.1-0.3,0.2-0.6,0.4-0.8
		c0.2-0.2,0.4-0.3,0.8-0.4c0.3-0.1,0.7-0.1,1.2-0.1h2.7v-1.1h-2.6c-0.5,0-0.9-0.1-1.1-0.2c-0.2-0.1-0.3-0.4-0.3-0.8
		c-0.2,0.2-0.5,0.3-1,0.3c-0.5,0-0.8-0.1-1-0.3c-0.2-0.2-0.3-0.5-0.3-1v-1.2c0-1,0.2-1.7,0.7-2.2c0.5-0.5,1.2-0.7,2.1-0.7h9.6
		c1,0,1.8,0.2,2.2,0.6c0.5,0.4,0.7,1.1,0.7,1.9c0,0.3-0.1,0.7-0.2,1.1c-0.1,0.4-0.3,0.8-0.4,1.2c-0.2,0.4-0.4,0.7-0.7,0.8
		c-0.3,0.1-0.6,0-1.1-0.1c-0.2,0-0.3-0.1-0.4-0.2c0,0.3-0.2,0.5-0.4,0.6c-0.2,0.1-0.5,0.1-0.9,0.1h-2.4V60h2.8c0.5,0,1,0,1.3,0.1
		c0.3,0.1,0.6,0.2,0.8,0.4c0.2,0.2,0.3,0.4,0.4,0.8s0.1,0.8,0.1,1.3v3.6c0,0.5,0,0.9-0.1,1.3s-0.2,0.6-0.4,0.8
		c-0.2,0.2-0.4,0.3-0.8,0.4c-0.3,0.1-0.8,0.1-1.3,0.1h-2.8v1.1h5.1c0.5,0,0.8,0.1,1,0.3c0.2,0.2,0.3,0.5,0.3,0.9
		c0,0.4-0.1,0.6-0.3,0.8c-0.2,0.2-0.6,0.3-1,0.3h-5.1V73.9z M36.6,56.9c0.2-0.1,0.5-0.2,1.1-0.2h2.6v-0.6c0-0.2,0-0.4,0.1-0.6
		c0-0.2,0.1-0.3,0.3-0.5h-3.8c-0.1,0-0.2,0-0.2,0.1s0,0.2,0,0.3V56.9z M37.6,63.3h2.7v-1.2h-2.5c-0.1,0-0.2,0-0.2,0c0,0,0,0.1,0,0.2
		V63.3z M37.6,66.4c0,0.1,0,0.2,0.1,0.2s0.1,0,0.3,0h2.4v-1.3h-2.7V66.4z M42.5,55c0.2,0.2,0.4,0.6,0.4,1.1v0.6h2.4
		c0.4,0,0.7,0.1,0.9,0.2c0,0,0-0.1,0-0.1c0,0,0-0.1,0-0.1c0.1-0.1,0.1-0.3,0.2-0.4c0.1-0.2,0.1-0.4,0.2-0.6c0.1-0.2,0.1-0.3,0-0.5
		c0-0.1-0.1-0.2-0.2-0.2H42.5z M42.9,62.1v1.2h2.8v-1c0-0.1,0-0.2-0.1-0.2c0,0-0.1,0-0.3,0H42.9z M45.7,65.4h-2.8v1.3h2.5
		c0.2,0,0.3,0,0.3,0c0,0,0-0.1,0-0.2V65.4z"/>
	<path class="st3" d="M54.8,60.5c0.5,0.4,0.7,0.8,0.7,1.1c0,0.3-0.1,0.7-0.4,1c-0.2,0.3-0.5,0.5-0.7,0.6c-0.3,0.1-0.6-0.1-1-0.5
		c-0.2-0.2-0.4-0.4-0.6-0.5c-0.2-0.1-0.3-0.3-0.5-0.4s-0.3-0.2-0.4-0.3s-0.3-0.2-0.5-0.3c-0.4-0.2-0.6-0.5-0.7-0.8
		c-0.1-0.3,0-0.7,0.2-1.2c0.4-0.7,1-0.8,1.8-0.3c0.2,0.2,0.4,0.3,0.6,0.4s0.3,0.2,0.5,0.3c0.2,0.1,0.3,0.2,0.4,0.3
		C54.5,60.2,54.6,60.3,54.8,60.5z M55.8,67.5c-0.2,0.7-0.4,1.3-0.7,1.9c-0.2,0.6-0.4,1.1-0.7,1.6c-0.2,0.5-0.5,1-0.7,1.5
		c-0.2,0.5-0.5,1-0.7,1.5c-0.2,0.4-0.5,0.7-0.9,0.8c-0.3,0.1-0.7,0-1-0.2c-0.7-0.4-0.7-1.2-0.1-2.4c0.4-0.8,0.9-1.6,1.3-2.5
		c0.4-0.9,0.8-2,1.1-3.1c0.1-0.5,0.3-0.9,0.6-1.1s0.6-0.2,1-0.1c0.4,0.1,0.7,0.4,0.8,0.7C56.1,66.4,56.1,66.9,55.8,67.5z M55.5,54.6
		c0.5,0.4,0.7,0.7,0.7,1c0,0.3-0.1,0.7-0.4,1.1c-0.3,0.4-0.5,0.5-0.8,0.5c-0.3,0-0.6-0.2-1-0.5c-0.4-0.3-0.7-0.5-1-0.7
		c-0.3-0.2-0.6-0.4-1-0.7c-0.4-0.3-0.6-0.6-0.8-0.9c-0.1-0.3-0.1-0.7,0.2-1.1c0.5-0.7,1.1-0.8,1.8-0.3c0.4,0.3,0.8,0.5,1.1,0.8
		C54.8,54.1,55.1,54.3,55.5,54.6z M72.6,58.8c0,0.4-0.1,0.6-0.2,0.8c-0.2,0.1-0.4,0.2-0.7,0.2c-0.3,0-0.5-0.1-0.6-0.2
		c-0.2-0.1-0.2-0.4-0.2-0.8v-1.2c0-0.2-0.1-0.3-0.2-0.3h-1.8c0.1,0.1,0.3,0.1,0.4,0.2c0.2,0.2,0.4,0.3,0.6,0.5
		c0.1,0.1,0.3,0.3,0.4,0.5c0.2,0.2,0.3,0.4,0.3,0.6c0,0.2-0.1,0.3-0.2,0.5c-0.2,0.2-0.4,0.3-0.6,0.2c-0.2,0-0.4-0.2-0.6-0.4
		c-0.1-0.1-0.3-0.3-0.4-0.4c-0.1-0.1-0.3-0.2-0.4-0.3c-0.5-0.4-0.6-0.8-0.3-1.2c0.1-0.1,0.2-0.2,0.2-0.2h-0.7c-0.1,0-0.1,0-0.2,0.1
		s-0.1,0.2-0.1,0.3v1.2c0,0.4-0.1,0.7-0.2,0.8c-0.1,0.1-0.3,0.1-0.6,0.1c-0.2,0-0.3,0-0.4,0c0,0.1,0.1,0.2,0.1,0.3
		c0,0.1,0.1,0.2,0.1,0.3H72c0.6,0,0.9,0.3,0.9,1c0,0.6-0.3,0.9-0.9,0.9h-3.8v1H71c0.5,0,0.9,0.1,1.2,0.4c0.3,0.3,0.4,0.7,0.4,1.3v1
		c0,1.2-0.5,1.7-1.6,1.7H59.1c0,1.2-0.1,2.2-0.3,3.2c-0.1,1-0.3,2-0.6,2.9c-0.2,0.6-0.4,1-0.7,1.1c-0.3,0.1-0.6,0.2-1,0.1
		c-0.4-0.1-0.6-0.3-0.7-0.5c-0.1-0.3,0-0.7,0.2-1.3c0.2-0.5,0.3-1,0.4-1.5c0.1-0.5,0.2-1.1,0.3-1.6c0.1-0.6,0.1-1.2,0.2-1.9
		c0-0.7,0.1-1.5,0.1-2.4V62c0-0.4,0-0.6,0.1-0.9c0.1-0.2,0.2-0.4,0.3-0.5c0.1-0.1,0.3-0.2,0.5-0.2s0.4-0.1,0.7-0.1h5.3v0
		c-0.1-0.3-0.1-0.5-0.1-0.7c-0.2,0.1-0.4,0.2-0.6,0.2c-0.3,0-0.5-0.1-0.7-0.2s-0.3-0.4-0.3-0.8v-1.4c0-0.1,0-0.1-0.1-0.2
		c0-0.1-0.1-0.1-0.1-0.1h-1.8c0.2,0.1,0.3,0.1,0.4,0.2c0.2,0.1,0.3,0.3,0.5,0.4c0.1,0.1,0.3,0.3,0.5,0.4c0.2,0.2,0.4,0.4,0.4,0.6
		c0,0.2-0.1,0.4-0.3,0.5c-0.2,0.2-0.4,0.3-0.6,0.2c-0.2,0-0.4-0.2-0.6-0.4c-0.1-0.1-0.2-0.2-0.3-0.3s-0.3-0.2-0.4-0.3
		c-0.5-0.4-0.6-0.8-0.2-1.2c0.1-0.1,0.2-0.1,0.3-0.2h-0.6c-0.2,0-0.2,0.1-0.2,0.4V59c0,0.6-0.3,0.9-0.9,0.9c-0.3,0-0.6-0.1-0.7-0.2
		c-0.2-0.1-0.2-0.4-0.2-0.7v-1.8c0-0.7,0.1-1.2,0.4-1.4s0.7-0.4,1.1-0.4h4.1c0.5,0,0.8,0.1,1,0.4c0.2,0.3,0.3,0.8,0.3,1.4v1.7
		c0,0.2,0,0.3,0,0.3c0.1-0.1,0.3-0.2,0.4-0.2c0.4-0.1,0.7-0.1,0.9-0.1v-1.7c0-0.7,0.1-1.2,0.4-1.4c0.3-0.3,0.7-0.4,1.1-0.4H71
		c0.4,0,0.8,0.1,1.1,0.4s0.5,0.8,0.5,1.4V58.8z M64.4,53.8c0,0.3-0.1,0.5-0.2,0.7c-0.1,0.2-0.4,0.3-0.7,0.3H58
		c-0.3,0-0.6-0.1-0.7-0.3c-0.2-0.2-0.2-0.4-0.2-0.7c0-0.7,0.3-1,0.9-1h5.5C64.1,52.7,64.4,53.1,64.4,53.8z M59.2,63.3h2.3v-1h-2
		c-0.2,0-0.3,0.1-0.3,0.4V63.3z M61.5,66.1V65h-2.3v1.1H61.5z M65.1,72.6c0.1,0.4,0.1,0.6-0.1,0.8c-0.1,0.2-0.4,0.4-0.8,0.5
		c-0.4,0.2-0.9,0.3-1.3,0.5c-0.5,0.1-1.1,0.3-1.8,0.4c-0.6,0.1-1,0-1.2-0.3c-0.2-0.3-0.4-0.8-0.4-1.7V69c0-0.4,0.1-0.6,0.3-0.8
		s0.5-0.3,0.7-0.3c0.2,0,0.5,0.1,0.7,0.2s0.3,0.4,0.3,0.8v0h2.6c0.3,0,0.5,0.1,0.7,0.3c0.1,0.2,0.2,0.4,0.2,0.7c0,0.7-0.3,1-0.9,1
		h-2.6V72c0,0.3,0,0.4,0.1,0.5c0.1,0.1,0.2,0.1,0.5,0c0.2,0,0.4-0.1,0.5-0.1c0.1,0,0.3-0.1,0.3-0.1c0.1,0,0.2-0.1,0.3-0.1
		c0.1,0,0.2-0.1,0.3-0.1c0.4-0.1,0.7-0.1,0.9,0C64.9,72.1,65.1,72.3,65.1,72.6z M63.7,63.3H66v-1h-2.3V63.3z M63.7,66.1H66V65h-2.3
		V66.1z M73.1,53.8c0,0.3-0.1,0.5-0.3,0.7c-0.2,0.2-0.4,0.3-0.7,0.3H66c-0.3,0-0.5-0.1-0.7-0.3c-0.2-0.2-0.2-0.4-0.2-0.7
		c0-0.7,0.3-1,0.9-1h6.1c0.3,0,0.5,0.1,0.7,0.3C73,53.2,73.1,53.5,73.1,53.8z M73.5,72.3c0,0.6-0.1,1-0.2,1.3
		c-0.1,0.3-0.2,0.6-0.4,0.7s-0.4,0.3-0.7,0.3c-0.3,0.1-0.7,0.1-1.1,0.1c-0.2,0-0.5,0-0.7,0c-0.3,0-0.6,0-0.8,0c-0.3,0-0.6,0-0.8,0
		c-0.3,0-0.5,0-0.7,0c-0.5,0-0.8-0.1-1.2-0.3S66.2,74.2,66,74c-0.2-0.2-0.3-0.6-0.4-0.9c-0.1-0.4-0.1-0.8-0.1-1.3v-2.9
		c0-0.4,0.1-0.7,0.4-0.8c0.2-0.1,0.5-0.2,0.7-0.2c0.2,0,0.4,0.1,0.6,0.2c0.2,0.1,0.3,0.4,0.3,0.8V69h4.1c0.3,0,0.5,0.1,0.7,0.3
		c0.1,0.2,0.2,0.4,0.2,0.7c0,0.7-0.3,1-0.9,1h-4.1v0.7c0,0.4,0,0.6,0.1,0.8c0.1,0.2,0.3,0.3,0.6,0.3c0.8,0,1.5,0,2.3,0
		c0.3,0,0.5-0.1,0.6-0.1c0.1-0.1,0.2-0.3,0.2-0.6c0-0.4,0.1-0.7,0.3-0.8c0.2-0.1,0.4-0.2,0.7-0.2c0.3,0,0.6,0.1,0.7,0.3
		C73.4,71.6,73.5,71.9,73.5,72.3z M68.2,65v1.1h1.9c0.1,0,0.2,0,0.2-0.1c0-0.1,0-0.2,0-0.3v-0.3c0-0.2-0.1-0.3-0.2-0.3H68.2z"/>
	<path class="st3" d="M88.7,64.7c0,0.9-0.2,1.5-0.5,1.8c-0.3,0.4-0.9,0.5-1.7,0.5h-8c0,1.2-0.2,2.4-0.4,3.5
		c-0.2,1.1-0.6,2.2-1.1,3.2c-0.3,0.6-0.7,1-1,1.1s-0.7,0-1.1-0.2c-0.3-0.2-0.5-0.5-0.6-0.9c-0.1-0.4,0-0.8,0.4-1.3
		c0.5-0.7,0.9-1.7,1.1-2.8c0.2-1.1,0.3-2.5,0.3-4.1v-4.6c0-0.4,0-0.8,0.1-1.1c0.1-0.3,0.2-0.5,0.3-0.7c0.2-0.2,0.4-0.3,0.7-0.4
		c0.3-0.1,0.6-0.1,1.1-0.1h8.3c0.5,0,0.9,0,1.2,0.1c0.3,0.1,0.5,0.2,0.7,0.4c0.2,0.2,0.3,0.4,0.3,0.7c0.1,0.3,0.1,0.7,0.1,1.2V64.7z
		 M89.3,57.8c-0.3,0.4-0.6,0.6-0.9,0.7c-0.3,0-0.7-0.2-1.2-0.6c-0.3-0.2-0.5-0.4-0.8-0.6s-0.5-0.4-0.7-0.6v0.1c0,0.5-0.1,0.8-0.3,1
		c-0.2,0.1-0.5,0.2-0.8,0.2h-4.2c-0.3,0-0.5-0.1-0.6-0.2c-0.2-0.2-0.3-0.3-0.4-0.6c-0.4,0.3-0.9,0.6-1.3,0.9
		c-0.5,0.3-0.9,0.5-1.4,0.8c-0.6,0.3-1.1,0.4-1.4,0.3c-0.3-0.1-0.6-0.4-0.8-0.9c-0.1-0.4-0.1-0.7,0.1-1c0.2-0.3,0.5-0.6,1-0.9
		c0.8-0.3,1.7-0.8,2.6-1.5c0.9-0.6,1.8-1.4,2.7-2.2c0.5-0.5,1-0.7,1.6-0.7c0.2,0,0.4,0,0.6,0.1c0.2,0.1,0.4,0.2,0.7,0.3
		c0.4,0.3,0.8,0.5,1.3,0.8c0.4,0.3,0.9,0.6,1.3,0.9c0.4,0.3,0.9,0.6,1.3,0.9s0.8,0.6,1.1,0.8c0.4,0.3,0.7,0.6,0.8,0.9
		C89.6,57.1,89.5,57.4,89.3,57.8z M78.5,61.8h7.8V61c0-0.2,0-0.3-0.1-0.3c0,0-0.2-0.1-0.3-0.1h-7c-0.2,0-0.3,0-0.3,0.1
		c0,0.1-0.1,0.2-0.1,0.4V61.8z M85.8,65c0.3,0,0.5-0.1,0.5-0.5l0.1-0.8h-7.8L78.5,65H85.8z M89.1,72.3c0,0.5,0,0.8-0.1,1.1
		s-0.2,0.5-0.3,0.7s-0.4,0.3-0.7,0.3c-0.3,0.1-0.7,0.1-1.1,0.1h-6c-0.8,0-1.4-0.2-1.7-0.5c-0.3-0.3-0.5-0.9-0.5-1.8v-1.8
		c0-0.5,0-0.9,0.1-1.2c0.1-0.3,0.2-0.6,0.3-0.7c0.2-0.2,0.4-0.3,0.7-0.4c0.3-0.1,0.7-0.1,1.1-0.1h6c0.4,0,0.8,0,1.1,0.1
		c0.3,0.1,0.5,0.2,0.7,0.4c0.2,0.2,0.3,0.4,0.4,0.7c0.1,0.3,0.1,0.7,0.1,1.1V72.3z M82.7,54.7c-0.1-0.1-0.2-0.1-0.3-0.1
		c-0.1,0-0.2,0-0.3,0.1c-0.2,0.2-0.4,0.3-0.6,0.5s-0.4,0.3-0.6,0.5h3.4c-0.2-0.2-0.5-0.3-0.8-0.5S83,54.9,82.7,54.7z M86.5,70.4
		c0-0.1,0-0.1,0-0.2c0,0-0.1,0-0.2,0h-5c-0.2,0-0.2,0.1-0.2,0.3v1.7c0,0.1,0,0.2,0,0.2c0,0,0.1,0.1,0.2,0.1h4.9c0.1,0,0.2,0,0.2-0.1
		c0,0,0-0.1,0-0.2V70.4z M96.5,71.2c0,0.9-0.1,1.6-0.3,2.2c-0.2,0.6-0.5,1-0.9,1.2c-0.4,0.3-1,0.4-1.6,0.3c-0.7,0-1.5-0.2-2.4-0.4
		c-0.8-0.2-1.2-0.5-1.4-0.8s-0.1-0.8,0.1-1.4c0.2-0.4,0.4-0.7,0.8-0.8c0.3-0.1,0.8,0,1.3,0.1c0.4,0.1,0.7,0.2,1,0.3
		c0.2,0.1,0.4,0,0.6,0c0.1-0.1,0.2-0.2,0.2-0.4c0-0.2,0-0.5,0-0.8V53.5c0-0.5,0.1-0.8,0.3-1.1c0.2-0.2,0.5-0.4,1-0.4s0.8,0.1,1,0.3
		c0.2,0.2,0.3,0.6,0.3,1.1V71.2z M92.7,67.6c0,0.5-0.1,0.9-0.3,1.1c-0.2,0.2-0.5,0.3-0.9,0.3c-0.4,0-0.7-0.1-0.9-0.3
		c-0.2-0.2-0.3-0.6-0.3-1.1V55.5c0-0.6,0.1-1,0.3-1.1c0.2-0.2,0.5-0.2,0.9-0.2c0.4,0,0.6,0.1,0.9,0.2c0.2,0.2,0.3,0.5,0.3,1.1V67.6z
		"/>
	<path class="st3" d="M103.1,63.8h0.8c0.4,0,0.7,0,0.9,0.1c0.2,0.1,0.4,0.2,0.6,0.4c0.1,0.2,0.2,0.4,0.2,0.8c0,0.3,0,0.7-0.1,1.3
		c-0.1,0.6-0.2,1.2-0.3,1.7c-0.1,0.5-0.3,1-0.4,1.5c0.6,0.7,1.2,1.3,2,1.7c0.7,0.4,1.7,0.6,2.8,0.6H120c0.5,0,0.9,0.1,1.1,0.3
		c0.2,0.2,0.3,0.6,0.3,1.1c0,0.8-0.4,1.3-1.3,1.3h-10.5c-0.8,0-1.4-0.1-2-0.2c-0.6-0.1-1.1-0.3-1.6-0.5s-0.9-0.5-1.3-0.8
		s-0.8-0.7-1.2-1.1c-0.4,0.5-0.7,1-1.1,1.4s-0.8,0.8-1.3,1.1c-0.4,0.3-0.8,0.4-1.2,0.4c-0.4,0-0.7-0.2-0.9-0.6
		c-0.2-0.3-0.2-0.6-0.2-1c0.1-0.4,0.3-0.7,0.7-1c0.9-0.7,1.7-1.4,2.2-2.2c0.5-0.8,0.9-1.7,1.2-2.8c0.1-0.4,0.2-0.7,0.1-0.8
		c-0.1-0.1-0.3-0.2-0.5-0.2h-0.7c-0.6,0-1,0-1.3-0.1s-0.5-0.2-0.6-0.4c-0.1-0.2-0.1-0.4-0.1-0.7c0.1-0.3,0.2-0.6,0.4-0.9l1.4-2.7
		c0.1-0.2,0.2-0.4,0.1-0.5c0-0.1-0.2-0.2-0.4-0.2h-1.2c-0.5,0-0.8-0.1-1-0.3c-0.2-0.2-0.2-0.5-0.2-1c0-0.4,0.1-0.8,0.2-1
		c0.2-0.2,0.5-0.3,1-0.3h2.9c0.6,0,1.1,0.1,1.5,0.4c0.4,0.3,0.6,0.7,0.6,1.2c0,0.2-0.1,0.5-0.2,0.7c-0.1,0.2-0.2,0.5-0.3,0.6
		L103.1,63.8z M104.1,57c-0.3,0.3-0.6,0.4-1,0.3c-0.3-0.1-0.7-0.3-1.2-0.7c-0.4-0.3-0.7-0.6-1-0.8c-0.3-0.2-0.7-0.5-1.2-0.9
		c-0.4-0.3-0.7-0.6-0.7-0.9c-0.1-0.3,0.1-0.6,0.4-1c0.5-0.7,1.2-0.7,2.2,0c0.4,0.3,0.8,0.6,1.2,0.9c0.4,0.3,0.8,0.6,1.2,0.9
		c0.4,0.4,0.7,0.7,0.7,1.1C104.6,56.2,104.5,56.6,104.1,57z M120.3,59.4c0.4,0,0.7,0.1,0.9,0.3c0.2,0.2,0.3,0.5,0.3,1
		c0,0.4-0.1,0.7-0.3,0.9c-0.2,0.2-0.5,0.3-0.9,0.3H106c-0.3,0-0.6-0.1-0.8-0.3s-0.3-0.5-0.3-1c0-0.4,0.1-0.6,0.3-0.9
		c0.2-0.2,0.4-0.4,0.7-0.4c0,0-0.1-0.1-0.1-0.1s-0.1-0.1-0.1-0.1c-0.3-0.3-0.5-0.6-0.6-0.9c0-0.3,0.1-0.7,0.5-1.2
		c0.2-0.3,0.4-0.6,0.6-0.8c0.2-0.3,0.3-0.5,0.5-0.8s0.3-0.6,0.4-0.9c0.1-0.3,0.3-0.6,0.4-1c0.2-0.6,0.5-0.9,0.7-1.1
		c0.3-0.2,0.6-0.2,1.1,0c0.4,0.2,0.7,0.4,0.8,0.7s0.1,0.6,0,1h2.2v-0.9c0-0.5,0.1-0.8,0.4-1c0.3-0.2,0.6-0.3,1-0.3
		c0.4,0,0.7,0.1,1,0.3c0.3,0.2,0.4,0.5,0.4,1v0.9h4.2c0.4,0,0.7,0.1,1,0.3s0.3,0.5,0.3,1c0,0.9-0.4,1.3-1.3,1.3h-4.2v2.5H120.3z
		 M119.7,68.3c0,0.9-0.1,1.6-0.4,2c-0.3,0.4-0.7,0.6-1.3,0.6h-9.8c-0.6,0-1-0.2-1.3-0.6c-0.3-0.4-0.4-1.1-0.4-2v-2.9
		c0-0.4,0.1-0.8,0.2-1.1c0.1-0.3,0.3-0.5,0.5-0.7c0.2-0.2,0.4-0.3,0.7-0.3c0.3-0.1,0.5-0.1,0.9-0.1h8.8c0.6,0,1.1,0.2,1.5,0.5
		c0.4,0.4,0.6,1,0.6,1.9V68.3z M107.7,58.4c-0.3,0.5-0.6,0.8-0.9,0.9h5.2v-2.5h-3.3c-0.1,0.2-0.3,0.5-0.4,0.7
		C108.1,57.8,108,58.1,107.7,58.4z M109.2,67.7c0,0.2,0,0.3,0,0.3c0,0,0.1,0.1,0.2,0.1h7.3c0.1,0,0.2,0,0.3-0.1c0-0.1,0-0.2,0-0.4
		v-1.4c0-0.1,0-0.2,0-0.3c0-0.1-0.1-0.1-0.3-0.1h-7.3c-0.1,0-0.2,0-0.2,0.1c0,0,0,0.2,0,0.4V67.7z"/>
	<path class="st3" d="M139.8,56c0.9,0,1.6,0,2.1,0.1c0.5,0.1,0.9,0.3,1.2,0.5c0.3,0.3,0.5,0.6,0.6,1.1c0.1,0.5,0.1,1.1,0.1,1.9
		c0,1.2,0,2.5,0,3.6s-0.1,2.2-0.1,3.2c0,1-0.1,1.8-0.1,2.4c0,0.7-0.1,1.2-0.2,1.5c-0.2,0.7-0.4,1.3-0.6,1.8c-0.3,0.5-0.6,1-1,1.3
		c-0.4,0.3-0.9,0.6-1.4,0.8c-0.6,0.2-1.2,0.3-2,0.3c-0.6,0-1.2,0-1.7-0.1c-0.6-0.1-1.3-0.2-2.1-0.4c-0.7-0.2-1.1-0.4-1.3-0.7
		c-0.2-0.3-0.2-0.7,0-1.2c0.3-0.9,1-1.2,2.2-0.9c0.4,0.1,0.7,0.2,0.9,0.3c0.3,0.1,0.5,0.1,0.7,0.1c0.2,0,0.4,0.1,0.6,0.1
		c0.2,0,0.4,0,0.6,0c0.7,0,1.2-0.2,1.5-0.5c0.3-0.4,0.6-0.8,0.7-1.4c0-0.2,0.1-0.7,0.1-1.3c0-0.6,0.1-1.4,0.1-2.3
		c0-0.9,0.1-1.9,0.1-3c0-1.1,0.1-2.3,0.1-3.5c0-0.2-0.1-0.4-0.2-0.5c-0.1-0.1-0.4-0.2-0.9-0.2h-5.6c-0.2,1.9-0.5,3.6-0.8,5.2
		c-0.4,1.5-0.9,2.9-1.5,4.2c-0.6,1.2-1.5,2.4-2.5,3.5c-1,1.1-2.2,2.1-3.7,3.1c-1.1,0.7-1.8,0.5-2.3-0.4c-0.4-0.8-0.2-1.5,0.7-2.1
		c1.2-0.7,2.1-1.5,3-2.4c0.8-0.9,1.5-1.8,2.1-2.9s1-2.3,1.4-3.6s0.6-2.8,0.8-4.4h-5.6c-0.5,0-0.9-0.1-1.1-0.3s-0.3-0.6-0.3-1.1
		c0-0.5,0.1-0.8,0.4-1.1c0.2-0.3,0.6-0.4,1.1-0.4h5.8c0-0.2,0-0.4,0-0.7c0-0.2,0-0.4,0-0.7c0-0.2,0-0.3,0-0.5s0-0.3,0-0.5
		c0-0.5,0.1-0.9,0.3-1.2c0.3-0.3,0.6-0.4,1.1-0.4c0.6,0,1,0.1,1.2,0.4c0.2,0.3,0.3,0.7,0.3,1.4c0,0.4,0,0.7,0,1.1c0,0.4,0,0.7,0,1
		H139.8z"/>
	<path class="st3" d="M155.2,52c0.4,0.1,0.7,0.3,0.9,0.6s0.2,0.6,0.1,1.1l-6.5,19.8c-0.1,0.4-0.4,0.7-0.8,0.8
		c-0.4,0.1-0.7,0.1-1.1-0.1c-0.1,0-0.3-0.1-0.4-0.2s-0.3-0.2-0.4-0.3c-0.1-0.1-0.2-0.3-0.2-0.4s0-0.3,0-0.5l6.5-19.9
		c0.1-0.5,0.4-0.8,0.7-0.9C154.3,51.8,154.7,51.8,155.2,52z"/>
	<path class="st3" d="M170.9,57.7c0.5,0.6,1,1.1,1.5,1.8c0.6,0.6,1.1,1.1,1.5,1.6c0.4,0.5,0.7,0.9,0.7,1.3c0,0.4-0.2,0.7-0.5,1
		c-0.4,0.3-0.8,0.4-1.1,0.3c-0.3-0.1-0.7-0.4-1-0.9c-0.2-0.2-0.4-0.5-0.6-0.7s-0.4-0.6-0.7-0.9v3.7c0,0.5-0.1,0.9-0.4,1.1
		c-0.3,0.2-0.6,0.3-1,0.3c-0.4,0-0.8-0.1-1-0.3c-0.3-0.2-0.4-0.6-0.4-1.1v-3c-0.3,0.4-0.6,0.8-0.9,1.2c-0.3,0.4-0.6,0.8-0.9,1.1
		c-0.4,0.5-0.8,0.7-1.2,0.8c-0.4,0.1-0.7-0.1-1-0.4c-0.2-0.2-0.3-0.5-0.3-0.6c0-0.2-0.1-0.4,0-0.5c0-0.2,0.1-0.3,0.2-0.5
		c0.1-0.2,0.3-0.3,0.4-0.5c0.6-0.6,1.2-1.3,1.8-2.1c0.7-0.8,1.2-1.6,1.8-2.5h-2.5c-0.5,0-0.9-0.1-1.1-0.3c-0.2-0.2-0.3-0.5-0.3-1
		c0-0.5,0.1-0.8,0.3-1c0.2-0.2,0.6-0.3,1.1-0.3h2.6v-1.7c0-0.5,0.1-0.9,0.4-1.1c0.3-0.2,0.6-0.3,1-0.3c0.4,0,0.8,0.1,1,0.3
		c0.3,0.2,0.4,0.6,0.4,1.1V55h2.2c0.5,0,0.9,0.1,1.1,0.3c0.2,0.2,0.3,0.6,0.3,1c0,0.5-0.1,0.9-0.3,1s-0.6,0.3-1.1,0.3H170.9z
		 M167.3,66.8c0.4,0.1,0.8,0.3,0.9,0.6c0.2,0.3,0.2,0.8,0.1,1.3c-0.2,0.9-0.5,1.8-0.8,2.5c-0.3,0.8-0.7,1.5-1.1,2.3
		c-0.2,0.4-0.5,0.7-0.8,0.7c-0.3,0.1-0.7,0-1.1-0.3c-0.4-0.2-0.6-0.5-0.6-0.8c0-0.3,0.1-0.7,0.4-1.2c0.3-0.6,0.6-1.2,0.9-1.8
		c0.2-0.6,0.4-1.4,0.6-2.2c0.1-0.5,0.3-0.9,0.5-1.1C166.5,66.8,166.9,66.7,167.3,66.8z M182,70.2c0,0.8-0.1,1.6-0.2,2.1
		c-0.1,0.6-0.3,1-0.6,1.4c-0.3,0.3-0.6,0.6-1.1,0.7c-0.4,0.2-1,0.2-1.6,0.3c-0.9,0-1.9,0-2.9,0c-1,0-2.1-0.1-3.2-0.1
		c-0.6,0-1.1-0.1-1.5-0.3c-0.4-0.2-0.7-0.4-0.9-0.7c-0.2-0.3-0.4-0.7-0.5-1.1c-0.1-0.4-0.1-0.8-0.1-1.3v-3.3c0-0.4,0.1-0.7,0.4-0.9
		c0.2-0.2,0.6-0.3,0.9-0.3c0.3,0,0.6,0.1,0.9,0.3c0.3,0.2,0.4,0.5,0.4,0.9V71c0,0.5,0.1,0.8,0.3,0.9s0.5,0.2,0.9,0.2
		c0.4,0,0.9,0,1.4,0c0.5,0,1,0,1.5,0c0.5,0,0.9,0,1.3,0c0.4,0,0.7,0,0.9,0c0.4,0,0.7-0.2,0.9-0.4c0.2-0.2,0.2-0.7,0.2-1.4
		c0-0.5,0.1-0.9,0.3-1.2c0.2-0.3,0.5-0.4,1-0.4c0.4,0,0.8,0.1,1,0.4C181.9,69.4,182,69.8,182,70.2z M177.5,68.9
		c0.3,0.5,0.5,0.9,0.4,1.2c0,0.3-0.2,0.6-0.6,0.8c-0.4,0.3-0.8,0.4-1.1,0.3c-0.3-0.1-0.6-0.4-0.9-0.8c-0.2-0.3-0.3-0.6-0.5-0.8
		s-0.2-0.4-0.4-0.6c-0.1-0.2-0.2-0.4-0.3-0.6c-0.1-0.2-0.3-0.4-0.4-0.6c-0.3-0.4-0.4-0.7-0.4-1c0-0.3,0.2-0.6,0.6-0.9
		c0.7-0.5,1.3-0.4,1.8,0.3c0.2,0.3,0.4,0.5,0.6,0.8c0.2,0.2,0.3,0.4,0.4,0.6c0.1,0.2,0.2,0.4,0.4,0.6
		C177.3,68.5,177.4,68.7,177.5,68.9z M185.1,63.6c0,0.9-0.2,1.6-0.5,2c-0.4,0.4-1,0.6-1.9,0.6h-5.5c-0.9,0-1.6-0.2-1.9-0.6
		c-0.3-0.4-0.5-1-0.5-2v-8.3c0-0.9,0.2-1.5,0.5-1.9c0.3-0.4,1-0.6,1.9-0.6h5.5c0.9,0,1.5,0.2,1.9,0.6c0.4,0.4,0.5,1,0.5,1.9V63.6z
		 M182.5,55.6c0-0.1,0-0.2-0.1-0.3s-0.1-0.1-0.2-0.1h-4.3c-0.2,0-0.3,0-0.3,0.1c0,0-0.1,0.1-0.1,0.3v0.9h4.9V55.6z M182.5,58.8h-4.9
		v1.2h4.9V58.8z M182.5,62.4h-4.9v0.9c0,0.2,0,0.3,0.1,0.3c0,0,0.1,0.1,0.3,0.1h4.2c0.2,0,0.3-0.1,0.3-0.4V62.4z M184,67.6
		c0.4,0.6,0.8,1.2,1.1,1.8c0.4,0.6,0.8,1.4,1.1,2.2c0.2,0.4,0.3,0.8,0.2,1.1s-0.3,0.5-0.7,0.8c-0.4,0.2-0.8,0.3-1.1,0.1
		s-0.6-0.4-0.8-0.8c-0.2-0.4-0.3-0.7-0.5-1s-0.3-0.6-0.4-0.9c-0.1-0.3-0.3-0.5-0.5-0.8c-0.2-0.3-0.3-0.6-0.6-0.9
		c-0.4-0.5-0.5-1-0.5-1.3c0-0.3,0.2-0.6,0.6-0.8c0.4-0.2,0.7-0.3,1.1-0.2C183.4,67,183.7,67.2,184,67.6z"/>
	<path class="st3" d="M194.5,54.5c-0.5,1.8-1,3.4-1.6,4.8l0,14.3c0,1-0.4,1.5-1.2,1.5c-0.5,0-0.9-0.1-1-0.4
		c-0.2-0.2-0.3-0.6-0.3-1.1v-9.4l-0.1,0.2c-0.4,0.7-0.8,1.1-1.2,1.2c-0.4,0.1-0.7,0-1.1-0.3c-0.4-0.3-0.6-0.6-0.6-1
		c0-0.4,0.2-0.9,0.7-1.6c0.9-1.4,1.7-2.8,2.3-4.2c0.6-1.4,1.1-2.9,1.5-4.5c0.1-0.6,0.3-1.1,0.5-1.4c0.2-0.3,0.6-0.4,1.2-0.3
		c0.5,0.1,0.9,0.3,1,0.7C194.7,53.2,194.7,53.8,194.5,54.5z M200.1,52.3c0.4,0.3,0.6,0.7,0.5,1.2h4.8c0.6,0,1.1,0.2,1.4,0.5
		c0.3,0.4,0.5,0.7,0.5,1.2c0,0.2-0.1,0.5-0.2,0.7c-0.1,0.2-0.3,0.5-0.5,0.7c-0.1,0.1-0.2,0.2-0.3,0.3c-0.1,0.1-0.2,0.2-0.4,0.3h1.6
		c0.8,0,1.3,0.1,1.6,0.4c0.3,0.3,0.5,0.8,0.5,1.6v1.4c0,0.8-0.2,1.3-0.5,1.5c-0.3,0.3-0.9,0.4-1.6,0.4h-5.1c0.4,0.4,0.8,0.8,1.1,1.2
		c0.3,0.4,0.5,0.8,0.8,1.3c0.6-0.3,1.2-0.6,1.8-0.9s1.2-0.7,1.8-1.1c0.4-0.3,0.8-0.4,1.1-0.4c0.3,0,0.6,0.1,0.8,0.5
		c0.3,0.4,0.3,0.7,0.3,1c-0.1,0.2-0.3,0.5-0.7,0.7c-0.4,0.3-0.9,0.6-1.3,0.8c0.2,0.9,0.4,1.8,0.8,2.7c0.4,0.9,0.8,1.7,1.3,2.4
		c0.4,0.6,0.5,1,0.5,1.4c0,0.4-0.1,0.6-0.3,0.9c-0.3,0.3-0.7,0.4-1.1,0.3c-0.4-0.1-0.8-0.4-1.2-1.1c-0.4-0.7-0.8-1.5-1.2-2.4
		s-0.6-1.9-0.9-3.2c-0.1,0.1-0.3,0.1-0.4,0.2c-0.1,0.1-0.3,0.1-0.4,0.2c0.2,0.6,0.3,1.2,0.4,1.8c0.1,0.6,0.1,1.2,0.1,1.8
		c0,2.8-1.2,4.2-3.6,4.2c-0.5,0-0.9,0-1.4-0.1c-0.4,0-0.9-0.1-1.3-0.2c-0.4-0.1-0.7-0.3-0.9-0.5c-0.2-0.2-0.2-0.5,0-1
		c0.1-0.4,0.4-0.7,0.7-0.7c0.3-0.1,0.7,0,1.2,0.1c0.2,0.1,0.4,0.1,0.7,0.2s0.5,0,0.8,0c0.4,0,0.7-0.2,0.9-0.5
		c0.2-0.3,0.3-0.7,0.4-1.2c0-0.5,0-1,0-1.6c-1.1,0.9-2.3,1.6-3.4,2.3s-2.4,1.2-3.8,1.7c-0.6,0.2-1.1,0.3-1.4,0.2
		c-0.3-0.1-0.5-0.4-0.6-0.8c-0.1-0.4-0.1-0.7,0.1-1s0.5-0.4,1-0.6c1.2-0.4,2.5-0.9,3.7-1.6c1.3-0.7,2.6-1.5,3.9-2.6
		c0-0.1-0.1-0.3-0.2-0.4c-0.1-0.1-0.1-0.2-0.2-0.4c-0.5,0.4-0.9,0.7-1.4,1c-0.5,0.3-0.9,0.6-1.4,0.9c-0.5,0.3-1,0.6-1.6,0.8
		c-0.6,0.3-1.2,0.5-1.9,0.8c-0.6,0.2-1.1,0.3-1.4,0.2c-0.3-0.1-0.5-0.4-0.6-0.8c-0.1-0.4-0.1-0.7,0.1-0.9c0.1-0.2,0.5-0.4,1.1-0.6
		c1.2-0.4,2.2-0.8,3.2-1.3s1.9-1.1,2.9-1.8c-0.1-0.2-0.3-0.4-0.6-0.6c-0.6,0.5-1.3,0.9-2.1,1.3c-0.8,0.4-1.7,0.7-2.6,0.9
		c-0.5,0.1-0.9,0.1-1.3,0c-0.3-0.1-0.5-0.4-0.6-0.9c0-0.2,0-0.4,0-0.5c0-0.1,0.1-0.3,0.1-0.4c0.1-0.1,0.2-0.2,0.4-0.3
		s0.4-0.2,0.7-0.2c0.8-0.2,1.5-0.4,2.1-0.7c0.6-0.2,1.1-0.5,1.5-0.8h-1.3c-0.8,0-1.3-0.1-1.7-0.4s-0.5-0.8-0.5-1.6v-1.4
		c0-0.3,0-0.6,0.1-0.8c-0.4,0-0.7-0.2-1-0.6c-0.2-0.4-0.3-0.7-0.2-1c0.1-0.3,0.3-0.6,0.7-0.8c0.3-0.2,0.6-0.4,0.9-0.6
		c0.3-0.2,0.6-0.5,0.9-0.8c0.3-0.3,0.6-0.5,0.8-0.8c0.3-0.3,0.5-0.6,0.7-0.8c0.4-0.5,0.7-0.7,1.1-0.8
		C199.5,52,199.8,52.1,200.1,52.3z M202.3,57.2c0.2-0.2,0.4-0.3,0.6-0.5s0.4-0.3,0.6-0.5c0.1-0.1,0.1-0.2,0.1-0.3
		c0-0.1-0.1-0.1-0.2-0.1h-4.7c-0.3,0.3-0.5,0.5-0.8,0.7c-0.3,0.2-0.5,0.5-0.8,0.7h0.1H202.3z M197.8,60.3c0,0.2,0,0.3,0.1,0.3
		c0.1,0.1,0.2,0.1,0.4,0.1h2.7v-1.6h-2.7c-0.2,0-0.3,0-0.4,0.1c-0.1,0.1-0.1,0.2-0.1,0.3V60.3z M207,59.6c0-0.2,0-0.3-0.1-0.4
		s-0.2-0.1-0.4-0.1h-2.8v1.6h2.8c0.2,0,0.4,0,0.4-0.1c0.1-0.1,0.1-0.2,0.1-0.4V59.6z"/>
	<path class="st3" d="M228.9,56c0.9,0,1.6,0,2.1,0.1c0.5,0.1,0.9,0.3,1.2,0.5c0.3,0.3,0.5,0.6,0.6,1.1c0.1,0.5,0.1,1.1,0.1,1.9
		c0,1.2,0,2.5,0,3.6s-0.1,2.2-0.1,3.2c0,1-0.1,1.8-0.1,2.4c0,0.7-0.1,1.2-0.2,1.5c-0.2,0.7-0.4,1.3-0.6,1.8s-0.6,1-1,1.3
		c-0.4,0.3-0.9,0.6-1.4,0.8c-0.6,0.2-1.2,0.3-2,0.3c-0.6,0-1.2,0-1.7-0.1c-0.6-0.1-1.3-0.2-2.1-0.4c-0.7-0.2-1.1-0.4-1.3-0.7
		c-0.2-0.3-0.2-0.7,0-1.2c0.3-0.9,1-1.2,2.2-0.9c0.4,0.1,0.7,0.2,0.9,0.3c0.3,0.1,0.5,0.1,0.7,0.1c0.2,0,0.4,0.1,0.6,0.1
		c0.2,0,0.4,0,0.6,0c0.7,0,1.2-0.2,1.5-0.5s0.6-0.8,0.7-1.4c0-0.2,0.1-0.7,0.1-1.3c0-0.6,0.1-1.4,0.1-2.3c0-0.9,0.1-1.9,0.1-3
		c0-1.1,0.1-2.3,0.1-3.5c0-0.2-0.1-0.4-0.2-0.5c-0.1-0.1-0.4-0.2-0.9-0.2h-5.6c-0.2,1.9-0.5,3.6-0.8,5.2c-0.4,1.5-0.9,2.9-1.5,4.2
		c-0.6,1.2-1.5,2.4-2.5,3.5c-1,1.1-2.2,2.1-3.7,3.1c-1.1,0.7-1.8,0.5-2.3-0.4c-0.4-0.8-0.2-1.5,0.7-2.1c1.2-0.7,2.1-1.5,3-2.4
		c0.8-0.9,1.5-1.8,2.1-2.9s1-2.3,1.4-3.6c0.3-1.3,0.6-2.8,0.8-4.4h-5.6c-0.5,0-0.9-0.1-1.1-0.3s-0.3-0.6-0.3-1.1
		c0-0.5,0.1-0.8,0.4-1.1c0.2-0.3,0.6-0.4,1.1-0.4h5.8c0-0.2,0-0.4,0-0.7s0-0.4,0-0.7c0-0.2,0-0.3,0-0.5s0-0.3,0-0.5
		c0-0.5,0.1-0.9,0.3-1.2s0.6-0.4,1.1-0.4c0.6,0,1,0.1,1.2,0.4c0.2,0.3,0.3,0.7,0.3,1.4c0,0.4,0,0.7,0,1.1c0,0.4,0,0.7,0,1H228.9z"/>
	<path class="st3" d="M247.8,60.6c-0.5,0.7-1,1-1.6,0.9V71c0,0.9-0.2,1.6-0.6,2c-0.4,0.4-1,0.6-1.9,0.6h-4.8c-0.9,0-1.6-0.2-1.9-0.6
		c-0.4-0.4-0.6-1-0.6-2V57.6c0-0.9,0.2-1.5,0.6-1.9c0.4-0.4,1-0.6,1.9-0.6h1.1c0-0.2,0.1-0.4,0.1-0.6c0-0.2,0.1-0.4,0.1-0.7
		c0.1-0.6,0.3-1,0.6-1.3c0.3-0.2,0.7-0.3,1.2-0.3c0.6,0.1,0.9,0.3,1.1,0.6c0.1,0.3,0.2,0.8,0.1,1.4c0,0.1-0.1,0.3-0.1,0.4
		c0,0.1-0.1,0.3-0.1,0.4h0.8c0.9,0,1.6,0.2,1.9,0.6c0.4,0.4,0.6,1.1,0.6,1.9v0.3c0.4-0.6,0.8-1.3,1.1-1.9s0.7-1.5,0.9-2.5
		c0.1-0.6,0.3-1,0.7-1.2c0.3-0.2,0.7-0.2,1.2-0.1c0.5,0.1,0.8,0.3,0.9,0.7c0.1,0.4,0.1,0.8,0,1.3c-0.1,0.2-0.2,0.5-0.2,0.8h3.9
		c0.6,0,1,0.1,1.4,0.3c0.4,0.2,0.7,0.4,0.9,0.7c0.2,0.3,0.4,0.6,0.5,1.1c0.1,0.4,0.2,0.9,0.2,1.3c0,0.9,0,1.8,0,2.8c0,1,0,2-0.1,3
		c0,1-0.1,2-0.1,2.8c-0.1,0.9-0.1,1.6-0.2,2.2c-0.1,1.2-0.3,2.1-0.5,2.8s-0.5,1.3-0.9,1.8c-0.4,0.4-0.8,0.7-1.3,0.9
		c-0.5,0.2-1.2,0.2-1.9,0.2c-0.5,0-1-0.1-1.7-0.2c-0.6-0.1-1.4-0.3-2.1-0.6c-0.7-0.3-1.1-0.5-1.3-0.9s-0.1-0.7,0.1-1.3
		c0.2-0.4,0.4-0.7,0.8-0.8c0.4-0.1,0.8,0,1.4,0.2c0.8,0.3,1.5,0.6,2,0.7s1,0,1.3-0.2c0.3-0.2,0.6-0.7,0.8-1.3
		c0.2-0.6,0.4-1.5,0.5-2.5c0.1-0.9,0.2-2.1,0.2-3.6s0.1-3.4,0.1-5.7c0-0.3-0.1-0.5-0.2-0.6c-0.2-0.1-0.4-0.2-0.8-0.2h-4.2
		c-0.3,0.5-0.5,1-0.9,1.5C248.5,59.7,248.1,60.1,247.8,60.6z M243.5,58.7c0-0.3-0.1-0.5-0.2-0.6c-0.1-0.1-0.4-0.2-0.7-0.2h-2.8
		c-0.2,0-0.4,0.1-0.5,0.2s-0.1,0.4-0.1,0.6v4.2h4.2V58.7z M243.5,65.7h-4.2v4.2c0,0.3,0.1,0.5,0.2,0.7c0.1,0.1,0.4,0.2,0.7,0.2h2.7
		c0.3,0,0.5-0.1,0.6-0.2c0.1-0.1,0.1-0.3,0.1-0.6V65.7z M253.2,66.6c0.3,0.6,0.4,1.1,0.3,1.5c-0.1,0.3-0.4,0.6-0.8,0.8
		c-0.5,0.3-0.9,0.3-1.2,0.1c-0.3-0.2-0.6-0.6-0.9-1.2c-0.4-0.9-0.7-1.7-1.1-2.4c-0.4-0.7-0.8-1.5-1.3-2.2c-0.3-0.4-0.4-0.8-0.3-1.2
		c0-0.4,0.2-0.7,0.6-0.9c0.4-0.3,0.8-0.3,1.2-0.3c0.4,0.1,0.7,0.4,1,0.9c0.4,0.8,0.9,1.6,1.3,2.5C252.4,64.9,252.8,65.7,253.2,66.6z
		"/>
	<path class="st3" d="M270.8,67.5c-0.7,0-1.2-0.1-1.5-0.4c-0.4-0.3-0.6-0.8-0.6-1.5v-1.5c0-0.7,0.2-1.2,0.6-1.4
		c0.4-0.2,0.9-0.4,1.5-0.4h8.2c0.7,0,1.3,0.1,1.6,0.4c0.4,0.3,0.6,0.8,0.6,1.4v1.3c0,0.8-0.2,1.3-0.6,1.6c-0.4,0.3-0.9,0.4-1.6,0.4
		h-1.8c0.2,0.3,0.4,0.6,0.5,0.9c0.2,0.3,0.4,0.6,0.6,0.9c0.2-0.1,0.4-0.2,0.6-0.4c0.2-0.1,0.3-0.2,0.5-0.4s0.3-0.3,0.5-0.4
		c0.2-0.2,0.3-0.3,0.5-0.5c0.7-0.8,1.2-0.9,1.8-0.4c0.3,0.2,0.5,0.5,0.5,0.9c0,0.3-0.2,0.7-0.6,1.2c-0.4,0.4-0.7,0.7-1.1,1
		c-0.3,0.2-0.7,0.5-1.1,0.7c0.3,0.3,0.6,0.6,1,0.9s0.7,0.5,1,0.7c0.4,0.3,0.7,0.6,0.8,0.9c0.1,0.3,0.1,0.7-0.1,1
		c-0.2,0.4-0.5,0.7-0.8,0.7c-0.3,0-0.7-0.2-1.2-0.5c-1.3-0.8-2.5-1.7-3.3-2.9c-0.9-1.2-1.7-2.6-2.3-4.2h-0.6c-0.4,0.4-0.7,0.7-1,1
		c-0.3,0.3-0.6,0.6-1,0.9v2.2c0,0.2,0,0.4,0.1,0.5c0.1,0.1,0.2,0.1,0.4,0c0.1-0.1,0.3-0.1,0.4-0.1c0.1,0,0.2-0.1,0.3-0.1
		c0.1,0,0.2-0.1,0.4-0.1c0.2-0.1,0.4-0.2,0.6-0.3c0.3-0.1,0.5-0.2,0.7-0.2c0.2,0,0.3,0,0.5,0c0.1,0,0.2,0.1,0.3,0.3s0.1,0.3,0.2,0.5
		c0.1,0.4,0.1,0.7,0,0.9c-0.1,0.3-0.4,0.5-1,0.7c-0.7,0.3-1.4,0.5-2,0.7s-1.2,0.3-1.8,0.5c-0.5,0.1-0.9,0-1.1-0.4s-0.3-0.9-0.3-1.5
		v-1.9c-0.2,0.1-0.4,0.3-0.6,0.4c-0.2,0.1-0.4,0.2-0.6,0.4c-0.8,0.5-1.4,0.4-1.7-0.2c-0.1-0.2-0.1-0.3-0.1-0.5
		c-0.4,0.4-0.9,0.7-1.3,1c-0.5,0.3-1,0.7-1.4,1c-0.5,0.3-0.9,0.6-1.3,0.8c-0.4,0.2-0.8,0.4-1.1,0.5c-0.6,0.3-1,0.3-1.3,0.2
		c-0.3-0.1-0.5-0.4-0.6-0.8c-0.2-0.4-0.2-0.8,0-1.2c0.2-0.4,0.5-0.6,0.9-0.8c0.2-0.1,0.5-0.2,0.8-0.4s0.6-0.3,0.9-0.5v-6.3H261
		c-0.5,0-0.8-0.1-0.9-0.4c-0.2-0.2-0.3-0.6-0.3-1c0-0.5,0.1-0.8,0.2-1.1s0.5-0.3,1-0.3h1.2v-5.3h-1.3c-0.4,0-0.8-0.1-0.9-0.4
		s-0.3-0.6-0.3-1c0-0.5,0.1-0.8,0.2-1.1c0.1-0.2,0.5-0.4,1-0.4h5.1c0.5,0,0.8,0.1,1,0.4c0.2,0.2,0.3,0.6,0.3,1.1
		c0,0.4-0.1,0.8-0.3,1s-0.5,0.4-0.9,0.4h-1.2v5.3h1.2c0.5,0,0.8,0.1,0.9,0.3s0.3,0.6,0.3,1.1c0,0.4-0.1,0.8-0.3,1
		c-0.2,0.2-0.5,0.4-0.9,0.4h-1.2v4.6c0,0,0.1-0.1,0.2-0.2c0.1-0.1,0.2-0.2,0.3-0.2c0.1-0.1,0.2-0.2,0.3-0.2s0.2-0.1,0.2-0.2
		c0.7-0.6,1.3-0.5,1.8,0.2c0.1,0.2,0.2,0.4,0.3,0.6c0,0.2,0,0.4,0,0.6c1.4-0.8,2.4-1.5,3.2-2.2H270.8z M281.4,61.4h-13
		c-0.5,0-0.8-0.1-0.9-0.3c-0.1-0.2-0.2-0.4-0.2-0.8c0-0.4,0.1-0.6,0.2-0.8c0.1-0.1,0.4-0.2,0.9-0.2h13c0.4,0,0.7,0.1,0.9,0.2
		c0.1,0.1,0.2,0.4,0.2,0.8c0,0.3-0.1,0.6-0.2,0.8C282.2,61.3,281.9,61.4,281.4,61.4z M281.7,56.5c0,0.6-0.2,1.1-0.6,1.5
		s-0.9,0.5-1.6,0.5h-9c-0.6,0-1.1-0.1-1.5-0.4c-0.4-0.3-0.6-0.7-0.6-1.5V55c0-0.7,0.2-1.2,0.6-1.6c0.4-0.4,0.9-0.6,1.5-0.6h9
		c0.6,0,1.1,0.2,1.5,0.6c0.4,0.4,0.7,0.9,0.7,1.6V56.5z M270.7,56.3c0,0.1,0,0.2,0.1,0.2c0,0,0.2,0.1,0.3,0.1h1.1v-1.8h-1.1
		c-0.2,0-0.3,0-0.3,0.1c0,0-0.1,0.1-0.1,0.3V56.3z M278.9,64.4c0-0.2-0.1-0.2-0.4-0.2h-7.2c-0.2,0-0.4,0.1-0.4,0.2v0.9
		c0,0.2,0.1,0.2,0.4,0.2h7.2c0.2,0,0.4-0.1,0.4-0.2V64.4z M274.4,56.6h1.5v-1.8h-1.5V56.6z M279.3,55.2c0-0.2-0.1-0.3-0.4-0.3H278
		v1.8h0.9c0.3,0,0.4-0.1,0.4-0.3V55.2z"/>
	<path class="st3" d="M284.8,60.4c-0.6,0-0.9-0.1-1.1-0.3c-0.2-0.2-0.3-0.6-0.3-1c0-0.4,0.1-0.8,0.3-1c0.2-0.2,0.5-0.4,1.1-0.4h1.1
		v-4.1c0-0.6,0.1-0.9,0.3-1.1c0.2-0.2,0.6-0.3,1-0.3c0.4,0,0.8,0.1,1,0.3c0.3,0.2,0.4,0.5,0.4,1.1v4.1h0.7c0.5,0,0.9,0.1,1.1,0.4
		c0.2,0.2,0.3,0.6,0.3,1c0,0.5-0.1,0.8-0.3,1c-0.2,0.2-0.6,0.3-1.1,0.3h-0.7v7.2c0.6-0.5,1.1-0.7,1.5-0.8c0.4,0,0.7,0.1,1,0.5
		c0.3,0.4,0.4,0.7,0.4,1.1s-0.3,0.7-0.7,1.1c-0.5,0.4-1,0.8-1.4,1.1c-0.4,0.3-0.8,0.6-1.2,0.9s-0.8,0.5-1.2,0.7
		c-0.4,0.2-0.8,0.5-1.3,0.7c-0.5,0.3-1,0.4-1.3,0.4c-0.4,0-0.7-0.4-0.9-0.9c-0.2-0.5-0.2-0.9,0-1.2c0.2-0.3,0.5-0.6,0.9-0.8
		c0.6-0.3,1.1-0.6,1.5-0.8v-9.1H284.8z M301.8,69.1v2.7c0,0.2,0,0.4,0.1,0.5s0.2,0.2,0.5,0.2c0.2,0,0.4,0,0.6,0c0.2,0,0.4,0,0.6,0
		c0.3,0,0.5-0.2,0.5-0.4s0.1-0.5,0.1-0.9c0-0.4,0.1-0.8,0.3-1.1s0.5-0.4,0.9-0.3c0.5,0,0.8,0.2,1,0.4s0.3,0.7,0.3,1.3
		c0,0.6,0,1.1-0.1,1.5s-0.2,0.7-0.4,1s-0.4,0.4-0.6,0.6s-0.5,0.2-0.9,0.2c-0.6,0-1.1,0.1-1.6,0.1s-1,0-1.6-0.1
		c-0.8-0.1-1.4-0.3-1.8-0.7s-0.5-1.1-0.5-2.2v-2.8h-2.1c-0.2,1.5-0.8,2.7-1.7,3.7c-0.9,1-2,1.7-3.5,2.2c-0.6,0.2-1.1,0.3-1.5,0.2
		c-0.4-0.1-0.6-0.3-0.8-0.8c-0.1-0.4-0.1-0.7,0.1-1c0.2-0.3,0.6-0.6,1.1-0.8c1.1-0.3,1.9-0.8,2.5-1.3s1-1.3,1.2-2.2h-0.2
		c-0.5,0-1,0-1.3-0.1c-0.3-0.1-0.6-0.2-0.8-0.3c-0.2-0.2-0.3-0.4-0.4-0.7c-0.1-0.3-0.1-0.7-0.1-1.2V63c0-0.4,0-0.8,0.1-1.1
		c0-0.3,0.2-0.5,0.3-0.7c0.2-0.2,0.4-0.3,0.8-0.3c0.3-0.1,0.8-0.1,1.4-0.1h8.4c0.5,0,1,0,1.3,0.1c0.3,0.1,0.6,0.2,0.8,0.3
		c0.2,0.2,0.3,0.4,0.4,0.7c0.1,0.3,0.1,0.7,0.1,1.2v3.9c0,0.5,0,0.9-0.1,1.2c-0.1,0.3-0.2,0.5-0.4,0.7c-0.2,0.2-0.4,0.3-0.8,0.3
		c-0.3,0.1-0.8,0.1-1.3,0.1H301.8z M292.7,55.8c-0.5,0-0.9-0.1-1.1-0.3c-0.2-0.2-0.3-0.4-0.3-0.8c0-0.3,0.1-0.6,0.3-0.8
		s0.6-0.3,1.1-0.3h4.4c-0.1-0.4-0.1-0.7,0-0.9c0.1-0.2,0.3-0.4,0.6-0.6c0.5-0.2,0.9-0.3,1.3-0.2c0.3,0.1,0.6,0.5,0.8,1.2
		c0,0.1,0,0.1,0,0.2c0,0.1,0,0.1,0.1,0.2h4.7c0.6,0,0.9,0.1,1.1,0.3c0.2,0.2,0.3,0.4,0.3,0.8c0,0.4-0.1,0.6-0.3,0.8
		c-0.2,0.2-0.6,0.3-1.1,0.3h-1.2c0.2,0.2,0.2,0.6,0,1c-0.1,0.1-0.1,0.3-0.2,0.4c0,0.2-0.1,0.3-0.2,0.4h2c0.5,0,0.9,0.1,1.1,0.3
		c0.2,0.2,0.3,0.5,0.3,0.8c0,0.4-0.1,0.6-0.3,0.8s-0.6,0.3-1.1,0.3h-12.6c-0.5,0-0.9-0.1-1.1-0.3c-0.2-0.2-0.3-0.4-0.3-0.8
		c0-0.3,0.1-0.6,0.3-0.8c0.2-0.2,0.6-0.3,1.1-0.3h1.8c-0.1-0.4-0.2-0.7-0.3-0.9c-0.1-0.2-0.1-0.4-0.2-0.5c-0.1-0.1-0.1-0.3,0-0.6
		H292.7z M302.8,63.4c0-0.2,0-0.3-0.1-0.4c-0.1-0.1-0.2-0.1-0.4-0.1H295c-0.2,0-0.4,0-0.5,0.1c-0.1,0.1-0.1,0.2-0.1,0.4V64h8.3V63.4
		z M302.8,65.8h-8.3v0.6c0,0.2,0,0.4,0.1,0.5c0.1,0.1,0.2,0.1,0.5,0.1h7c0.3,0,0.5,0,0.6-0.1c0.1-0.1,0.1-0.2,0.1-0.6V65.8z
		 M296.8,57.1c0,0.1,0.1,0.2,0.1,0.3c0,0.1,0,0.2,0,0.3h3.3c0.1-0.2,0.2-0.5,0.3-0.7c0.1-0.2,0.2-0.5,0.3-0.8
		c0.1-0.1,0.1-0.3,0.2-0.4h-4.7c0.1,0.2,0.2,0.5,0.3,0.7C296.7,56.7,296.7,56.9,296.8,57.1z"/>
	<path class="st3" d="M27.9,83.2c0.2,0.3,0.3,0.5,0.4,0.9c0,0.3-0.1,0.6-0.2,0.8c0,0.1-0.1,0.1-0.1,0.2c0,0-0.1,0.1-0.1,0.1h1.9
		c0.4,0,0.7,0.1,0.8,0.3c0.1,0.2,0.2,0.5,0.2,0.9c0,0.4-0.1,0.7-0.2,0.9c-0.1,0.2-0.4,0.3-0.8,0.3H24c-0.4,0-0.7-0.1-0.8-0.3
		C23,87.1,23,86.8,23,86.4c0-0.4,0.1-0.7,0.2-0.9c0.1-0.2,0.4-0.3,0.8-0.3h2.7c-0.1-0.1-0.2-0.2-0.3-0.3c-0.3-0.4-0.6-0.7-0.9-1
		s-0.6-0.6-0.9-0.9c-0.2-0.3-0.3-0.5-0.3-0.8c0-0.3,0.1-0.5,0.3-0.8c0.2-0.3,0.5-0.4,0.8-0.4c0.3,0,0.6,0.1,0.8,0.3
		c0.1,0.1,0.2,0.2,0.4,0.4c0.1,0.1,0.2,0.2,0.4,0.4c0.1,0.1,0.3,0.3,0.4,0.5C27.5,82.8,27.7,83,27.9,83.2z M29.9,92.7
		c0,0.4-0.1,0.7-0.2,0.9c-0.1,0.2-0.4,0.3-0.8,0.3h-4.2c-0.4,0-0.7-0.1-0.8-0.3c-0.2-0.2-0.2-0.5-0.2-0.9c0-0.5,0.1-0.8,0.2-0.9
		c0.2-0.1,0.4-0.2,0.8-0.2h4.2c0.4,0,0.7,0.1,0.8,0.2S29.9,92.2,29.9,92.7z M30,89.6c0,0.4-0.1,0.7-0.2,0.9s-0.4,0.3-0.8,0.3h-4.3
		c-0.4,0-0.6-0.1-0.8-0.3s-0.2-0.5-0.2-0.9c0-0.5,0.1-0.8,0.2-0.9s0.4-0.3,0.8-0.3H29c0.4,0,0.6,0.1,0.8,0.3S30,89.2,30,89.6z
		 M29.8,100.9c0,0.8-0.1,1.4-0.4,1.8s-0.8,0.6-1.5,0.6h-2.2c-0.7,0-1.2-0.2-1.5-0.6c-0.3-0.4-0.4-1-0.4-1.8v-3.8
		c0-0.8,0.1-1.4,0.4-1.8c0.3-0.4,0.8-0.6,1.5-0.6h2.2c0.7,0,1.2,0.2,1.5,0.6c0.3,0.4,0.4,1,0.4,1.8V100.9z M27.8,97.8
		c0-0.3,0-0.5-0.1-0.6c-0.1-0.1-0.2-0.2-0.5-0.2h-0.8c-0.2,0-0.4,0-0.4,0.1c-0.1,0.1-0.1,0.3-0.1,0.6v2.4c0,0.4,0,0.6,0.1,0.7
		s0.2,0.1,0.5,0.1h0.8c0.3,0,0.4,0,0.5-0.1c0.1-0.1,0.1-0.3,0.1-0.6V97.8z M44.7,97.5c0,0,0.1,0.1,0.2,0.1c0.1,0,0.1,0.1,0.2,0.1
		c0.2,0.3,0.3,0.6,0.3,0.9s-0.2,0.6-0.5,0.8c-0.2,0.2-0.5,0.4-0.8,0.6c-0.3,0.2-0.6,0.4-1,0.7c0.3,0.2,0.6,0.3,0.9,0.4
		c0.3,0.1,0.7,0.2,1,0.3c0.5,0.1,0.8,0.3,1,0.6c0.1,0.2,0.1,0.6,0,1.1c-0.1,0.4-0.3,0.6-0.7,0.6c-0.3,0-0.8-0.1-1.4-0.3
		c-0.9-0.3-1.6-0.6-2.3-1c-0.6-0.4-1.2-0.8-1.7-1.2s-0.9-1-1.3-1.6c-0.4-0.6-0.7-1.3-1-2.1H37c-0.3,0.4-0.7,0.7-1,1.1s-0.7,0.7-1,1
		v1.3c0,0.1,0,0.2,0.1,0.3c0.1,0.1,0.2,0.1,0.4,0c0.2,0,0.3-0.1,0.5-0.1c0.1,0,0.2-0.1,0.3-0.1c0.1,0,0.2-0.1,0.4-0.2
		s0.3-0.2,0.6-0.3c0.5-0.2,0.8-0.3,1.1-0.2c0.2,0.1,0.5,0.3,0.6,0.7c0.2,0.4,0.2,0.7,0,1c-0.2,0.2-0.5,0.4-1,0.7
		c-0.3,0.1-0.6,0.3-0.9,0.4c-0.3,0.1-0.6,0.2-0.9,0.3c-0.3,0.1-0.6,0.2-0.9,0.2c-0.3,0.1-0.7,0.1-1.1,0.2c-0.3,0-0.6,0-0.8,0
		c-0.2,0-0.4-0.2-0.5-0.3s-0.2-0.4-0.2-0.7c0-0.3-0.1-0.7-0.1-1.2v-0.3c-0.1,0-0.2,0.1-0.3,0.2c-0.1,0.1-0.2,0.1-0.3,0.2
		c-0.5,0.2-0.9,0.2-1.2,0.1c-0.4-0.1-0.6-0.4-0.7-0.9c-0.1-0.3,0-0.6,0.1-0.8c0.1-0.2,0.4-0.4,0.9-0.6c0.6-0.2,1.1-0.5,1.7-0.9
		c0.5-0.4,1-0.7,1.4-1.1h-2.2c-0.3,0-0.6-0.1-0.8-0.2s-0.3-0.4-0.3-0.8c0-0.4,0.1-0.6,0.3-0.7c0.2-0.1,0.4-0.2,0.8-0.2h2.3v-0.8
		h-1.8c-0.3,0-0.6-0.1-0.7-0.2c-0.2-0.1-0.2-0.4-0.2-0.8c0-0.3,0.1-0.5,0.2-0.7c0.2-0.1,0.4-0.2,0.7-0.2h1.8V92H32
		c-0.4,0-0.6-0.1-0.8-0.2S31,91.4,31,91c0-0.3,0.1-0.5,0.3-0.7s0.4-0.2,0.7-0.2h2.2c0-0.2,0-0.3,0.1-0.5c0-0.2,0.1-0.3,0.2-0.4h-1.2
		c-0.7,0-1.2-0.1-1.5-0.3c-0.3-0.2-0.5-0.7-0.5-1.4V87c0-0.7,0.2-1.1,0.5-1.4c0.3-0.2,0.8-0.4,1.5-0.4h2.4c0.7,0,1.2,0.1,1.5,0.3
		c0.3,0.2,0.5,0.6,0.5,1.3v1c0,0.3,0,0.5-0.1,0.7s-0.2,0.3-0.3,0.4c-0.1,0.1-0.3,0.2-0.5,0.2s-0.4,0.1-0.7,0.1
		c0.1,0.1,0.2,0.2,0.3,0.4c0.1,0.2,0.1,0.3,0.1,0.5h3.5c0-0.2,0-0.3,0.1-0.5s0.1-0.3,0.2-0.4c-0.3,0-0.6,0-0.8,0
		c-0.2,0-0.4-0.1-0.6-0.2c-0.2-0.1-0.3-0.3-0.3-0.4c-0.1-0.2-0.1-0.5-0.1-0.8v-1c0-0.7,0.2-1.1,0.5-1.3c0.3-0.2,0.8-0.3,1.5-0.3h2.7
		c0.7,0,1.2,0.1,1.5,0.4s0.5,0.7,0.5,1.3v0.6c0,0.7-0.2,1.2-0.5,1.4s-0.8,0.3-1.5,0.3h-1.2c0.1,0.1,0.2,0.2,0.2,0.4
		c0,0.2,0.1,0.3,0.1,0.5h2.3c0.4,0,0.6,0.1,0.8,0.2c0.1,0.1,0.2,0.4,0.2,0.7c0,0.4-0.1,0.6-0.2,0.8S44.9,92,44.5,92h-2.3v0.9H44
		c0.4,0,0.6,0.1,0.8,0.2c0.2,0.1,0.2,0.4,0.2,0.7c0,0.4-0.1,0.6-0.2,0.8c-0.2,0.1-0.4,0.2-0.8,0.2h-1.8v0.8H45
		c0.3,0,0.6,0.1,0.7,0.2c0.2,0.1,0.3,0.3,0.3,0.7c0,0.7-0.3,1.1-1,1.1H44.7z M36.5,82.6c-0.1-0.3-0.2-0.6-0.1-0.9
		c0-0.3,0.3-0.5,0.6-0.7c0.4-0.2,0.7-0.3,1.1-0.1s0.7,0.4,0.9,0.8c0.1,0.1,0.1,0.3,0.2,0.4c0.1,0.1,0.1,0.3,0.2,0.5h5.5
		c0.4,0,0.6,0.1,0.7,0.2c0.1,0.1,0.2,0.4,0.2,0.8c0,0.4-0.1,0.6-0.2,0.8c-0.1,0.1-0.4,0.2-0.7,0.2H31.6c-0.4,0-0.6-0.1-0.8-0.2
		c-0.1-0.1-0.2-0.4-0.2-0.8c0-0.4,0.1-0.7,0.2-0.8c0.1-0.1,0.4-0.2,0.8-0.2H36.5z M35.7,87c0-0.1-0.1-0.1-0.2-0.1h-2.1
		c-0.1,0-0.2,0-0.2,0.1v0.7c0,0.1,0.1,0.1,0.2,0.1h2.1c0.1,0,0.2,0,0.2-0.1V87z M36.4,92.9h3.5V92h-3.5V92.9z M36.4,95.6h3.5v-0.8
		h-3.5V95.6z M43.9,97.5h-4c0.2,0.4,0.4,0.7,0.6,1.1c0.2,0.4,0.4,0.7,0.7,0.9c0.2-0.1,0.5-0.3,0.8-0.5c0.3-0.2,0.5-0.3,0.8-0.5
		c0.2-0.2,0.5-0.3,0.7-0.5C43.6,97.8,43.8,97.6,43.9,97.5L43.9,97.5z M43.2,87c0-0.1-0.1-0.1-0.2-0.1h-2.4c-0.1,0-0.2,0-0.2,0.1v0.7
		c0,0.1,0.1,0.1,0.2,0.1H43c0.1,0,0.2-0.1,0.2-0.2V87z"/>
	<path class="st3" d="M48.1,91.6c-0.4,0-0.7-0.1-0.9-0.2c-0.2-0.2-0.3-0.5-0.3-0.9c0-0.5,0.1-0.9,0.3-1c0.2-0.2,0.5-0.3,0.9-0.3h1.7
		c0-0.1-0.1-0.3-0.2-0.5c0-0.2-0.1-0.5-0.2-0.9c-0.1-0.4-0.3-0.8-0.5-1.2c-0.1-0.3-0.2-0.6-0.2-0.8c0-0.2,0.1-0.4,0.2-0.5h-0.1
		c-0.4,0-0.7-0.1-0.9-0.2c-0.2-0.1-0.3-0.4-0.3-1c0-0.5,0.1-0.8,0.3-1c0.2-0.2,0.5-0.3,0.9-0.3h2.8c-0.3-0.5-0.3-0.9-0.2-1.2
		c0.1-0.3,0.3-0.5,0.6-0.6c0.8-0.4,1.4-0.1,1.8,0.7h0c0.1,0.2,0.2,0.3,0.3,0.5c0.1,0.2,0.2,0.4,0.3,0.6h2.6c0.4,0,0.7,0.1,0.9,0.3
		c0.2,0.2,0.3,0.5,0.3,1c0,0.4-0.1,0.8-0.3,0.9c-0.2,0.2-0.5,0.3-0.9,0.3h-0.2c0.1,0.1,0.2,0.3,0.2,0.5c0,0.2,0,0.4-0.1,0.7
		c-0.1,0.5-0.3,0.9-0.4,1.3c-0.1,0.4-0.3,0.8-0.5,1.3c0,0-0.1,0.1-0.1,0.1c0,0,0,0.1,0,0.1h1.2c0.4,0,0.7,0.1,0.9,0.3
		c0.2,0.2,0.3,0.5,0.3,1c0,0.4-0.1,0.8-0.3,0.9c-0.2,0.2-0.5,0.3-0.9,0.3h-2.9V93h2.5c0.4,0,0.7,0.1,0.9,0.3c0.2,0.2,0.3,0.5,0.3,1
		c0,0.4-0.1,0.8-0.3,0.9c-0.2,0.2-0.5,0.3-0.9,0.3h-2.5v6.8c0,0.5-0.1,0.9-0.3,1.1s-0.5,0.3-1,0.3s-0.8-0.1-1-0.3
		c-0.2-0.2-0.3-0.6-0.3-1.1v-6.8h-3.1c-0.4,0-0.7-0.1-0.9-0.2c-0.2-0.2-0.3-0.5-0.3-0.9c0-0.5,0.1-0.8,0.3-1
		c0.2-0.2,0.5-0.3,0.9-0.3h3.1v-1.4H48.1z M51,97.8c-0.2,0.7-0.5,1.3-0.8,1.8s-0.5,1-0.9,1.4c-0.4,0.5-0.6,0.9-0.9,1
		c-0.2,0.1-0.5,0-0.9-0.2c-0.3-0.3-0.5-0.5-0.6-0.8c0-0.3,0.1-0.7,0.4-1.2c0.3-0.6,0.6-1.1,0.8-1.5c0.2-0.4,0.4-0.9,0.6-1.3
		c0.2-0.6,0.5-0.9,0.8-1c0.3-0.1,0.6,0,0.9,0.1c0.4,0.2,0.6,0.4,0.6,0.7C51.2,97,51.1,97.4,51,97.8L51,97.8z M51.9,88
		c0.1,0.6,0.2,1,0.1,1.2h1.6c0-0.2,0-0.4,0-0.6c0.1-0.2,0.1-0.4,0.3-0.6c0.3-0.6,0.5-1.3,0.7-2.2c0-0.2,0.1-0.4,0.2-0.5h-3.9
		c0.1,0.1,0.1,0.2,0.2,0.3s0.1,0.2,0.2,0.4c0.2,0.4,0.3,0.7,0.4,1.1C51.7,87.2,51.8,87.6,51.9,88z M57.7,101
		c-0.4,0.2-0.7,0.2-0.9,0.1c-0.2-0.1-0.5-0.5-0.7-1.1c-0.1-0.3-0.3-0.6-0.4-0.9c-0.2-0.3-0.3-0.7-0.5-1.1c-0.3-0.5-0.4-0.8-0.3-1.1
		s0.2-0.6,0.5-0.8c0.3-0.2,0.6-0.3,0.9-0.2c0.3,0.1,0.5,0.3,0.8,0.8c0.3,0.5,0.5,0.9,0.7,1.3c0.2,0.4,0.4,0.7,0.5,1.1
		c0.2,0.5,0.3,0.9,0.3,1.2S58.2,100.8,57.7,101L57.7,101z M68.1,94.3c0,0.8-0.1,1.4-0.4,1.7c-0.3,0.3-0.8,0.5-1.4,0.6v4.3
		c0,0.1,0.1,0.2,0.2,0.3c0.1,0,0.3,0.1,0.5,0.1c0.1,0,0.3,0,0.3-0.1c0.1,0,0.2-0.1,0.2-0.3s0.1-0.3,0.1-0.6c0-0.3,0-0.6,0-1.1
		c0-0.5,0.1-0.9,0.2-1.2c0.2-0.2,0.5-0.4,0.9-0.4c0.5,0,0.8,0.1,1,0.4c0.2,0.3,0.2,0.7,0.2,1.4c0,0.8,0,1.5-0.1,2.1s-0.3,1-0.5,1.3
		c-0.2,0.3-0.5,0.5-0.9,0.6c-0.4,0.1-0.9,0.2-1.5,0.2c-0.6,0-1.1,0-1.5-0.1c-0.4-0.1-0.7-0.2-0.9-0.4c-0.2-0.2-0.4-0.5-0.5-0.9
		c-0.1-0.4-0.1-0.9-0.1-1.5v-4.2h-1c-0.1,0.7-0.2,1.4-0.4,2c-0.2,0.6-0.4,1.2-0.7,1.7c-0.3,0.5-0.6,1-1,1.5
		c-0.4,0.5-0.8,0.9-1.3,1.4c-0.4,0.4-0.8,0.6-1.1,0.7s-0.7,0-1-0.4c-0.3-0.3-0.4-0.6-0.4-1c0-0.4,0.3-0.7,0.7-1.1
		c0.8-0.7,1.4-1.4,1.9-2.2c0.5-0.8,0.8-1.7,1-2.7c-0.7-0.1-1.2-0.3-1.5-0.7c-0.3-0.4-0.4-0.9-0.4-1.7v-9.8c0-0.5,0-0.9,0.1-1.2
		c0.1-0.3,0.2-0.6,0.4-0.8s0.5-0.4,0.8-0.4s0.8-0.1,1.4-0.1h4c0.6,0,1,0,1.4,0.1s0.6,0.2,0.8,0.4s0.3,0.5,0.4,0.8
		c0.1,0.3,0.1,0.7,0.1,1.2V94.3z M65.7,84.9c0-0.2,0-0.4-0.1-0.5c-0.1-0.1-0.3-0.1-0.5-0.1h-3.2c-0.3,0-0.5,0-0.5,0.1
		c-0.1,0.1-0.1,0.2-0.1,0.5v1.2h4.5V84.9z M65.7,88.4h-4.5v1.8h4.5V88.4z M65.7,92.5h-4.5v1.1c0,0.3,0,0.4,0.1,0.5
		c0.1,0.1,0.3,0.1,0.5,0.1H65c0.3,0,0.4,0,0.5-0.1c0.1-0.1,0.1-0.3,0.1-0.5V92.5z"/>
	<path class="st3" d="M72.3,94.6c-0.6,0-0.9-0.1-1.1-0.4c-0.2-0.3-0.3-0.6-0.3-1.1c0-0.4,0.1-0.8,0.3-1.1c0.2-0.3,0.5-0.4,1.1-0.4h9
		c-0.1-0.1-0.2-0.2-0.3-0.3c-0.1-0.1-0.2-0.2-0.3-0.3c-0.3-0.2-0.6-0.5-0.7-0.8c-0.2-0.3-0.2-0.6-0.2-0.9c0-0.9,0.6-1.5,1.7-1.9
		c0.7-0.3,1.4-0.5,2.1-0.8c0.6-0.2,1.3-0.5,2.1-0.8c0.4-0.1,0.6-0.3,0.5-0.3c-0.1-0.1-0.4-0.1-0.9-0.1H74.1c-0.5,0-0.9-0.1-1.1-0.4
		c-0.2-0.3-0.3-0.6-0.3-1.1c0-0.4,0.1-0.8,0.3-1c0.2-0.3,0.6-0.4,1.1-0.4h15.3c0.7,0,1.3,0.2,1.7,0.6c0.4,0.4,0.6,0.9,0.6,1.4
		c0,0.4-0.1,0.8-0.4,1.1c-0.2,0.4-0.6,0.7-1.1,0.9c-0.5,0.2-0.9,0.5-1.4,0.7c-0.4,0.2-0.9,0.4-1.4,0.6c-0.5,0.2-1,0.4-1.6,0.7
		c-0.6,0.2-1.2,0.5-1.9,0.7c-0.2,0.1-0.4,0.2-0.4,0.3c0,0.1,0.1,0.3,0.3,0.6c0.5,0.5,1,1,1.4,1.4h7.3c0.6,0,0.9,0.1,1.1,0.4
		c0.2,0.3,0.3,0.6,0.3,1.1c0,0.4-0.1,0.8-0.3,1.1c-0.2,0.3-0.5,0.4-1.1,0.4h-5.5c0.5,1.5,0.6,3.1,0.3,4.8c-0.3,1.4-0.9,2.4-1.9,3.2
		c-1,0.8-2.5,1.1-4.3,1.1c-0.8,0-1.6-0.1-2.4-0.2c-0.8-0.1-1.8-0.3-2.8-0.6c-0.5-0.2-0.9-0.4-1.1-0.7c-0.2-0.3-0.2-0.7-0.2-1.2
		c0.1-0.5,0.4-0.9,0.6-1c0.3-0.1,0.8-0.1,1.5,0c0.9,0.2,1.8,0.4,2.5,0.6c0.7,0.1,1.4,0.2,2,0.2c1,0,1.8-0.2,2.3-0.6
		c0.5-0.4,0.8-0.9,1-1.5c0.2-0.7,0.2-1.4,0.1-2.1c-0.1-0.7-0.3-1.3-0.7-2H72.3z"/>
	<path class="st3" d="M98.8,85C98.8,85,98.9,85,98.8,85c0.1,0.1,0.1,0.1,0.1,0.2v-2.9c0-0.5,0.1-0.8,0.3-1c0.2-0.2,0.5-0.3,0.9-0.3
		c0.4,0,0.7,0.1,0.9,0.3c0.2,0.2,0.3,0.5,0.3,1v4.9h1v-4.9c0-0.5,0.1-0.8,0.3-1c0.2-0.2,0.5-0.3,0.9-0.3c0.4,0,0.7,0.1,0.9,0.3
		c0.2,0.2,0.2,0.5,0.2,1v3.1c0.1-0.1,0.2-0.3,0.3-0.4c0.3-0.3,0.5-0.6,0.7-0.8c0.2-0.2,0.4-0.5,0.6-0.7c0.2-0.3,0.5-0.6,0.8-0.7
		c0.3-0.1,0.6,0,1,0.2c0.4,0.3,0.5,0.5,0.5,0.8c0,0.3-0.1,0.6-0.4,1c-0.3,0.4-0.6,0.7-0.8,1s-0.4,0.5-0.7,0.8
		c-0.3,0.3-0.6,0.5-0.9,0.6s-0.6,0-0.9-0.2c-0.1-0.1-0.2-0.1-0.3-0.2v0.5h1.9c0.5,0,0.8,0.1,1,0.3c0.2,0.2,0.3,0.5,0.3,1
		c0,0.4-0.1,0.7-0.3,0.9c-0.2,0.2-0.5,0.2-1,0.2h-0.9c0.2,0.3,0.1,0.8,0,1.5c0,0.2-0.1,0.4-0.2,0.5s-0.1,0.4-0.2,0.6h1.3
		c0.5,0,0.8,0.1,0.9,0.3s0.3,0.5,0.3,0.9c0,0.4-0.1,0.7-0.3,0.9c-0.2,0.2-0.5,0.3-0.9,0.3h-3.4V96h2.9c0.5,0,0.8,0.1,1,0.3
		c0.2,0.2,0.3,0.5,0.3,0.9c0,0.4-0.1,0.7-0.3,0.8c-0.2,0.2-0.5,0.3-0.9,0.3h-2.9v1.7c0.5-0.1,0.9-0.1,1.4-0.2
		c0.4-0.1,0.9-0.1,1.3-0.2c0.3-0.1,0.6-0.1,0.9-0.1c0.2,0,0.4,0,0.6,0.1c0.2,0.1,0.3,0.2,0.4,0.3c0.1,0.1,0.2,0.4,0.2,0.6
		c0.1,0.5,0,0.8-0.2,1c-0.2,0.2-0.7,0.4-1.3,0.5c-1.5,0.3-3,0.5-4.6,0.7c-1.5,0.2-3.1,0.4-4.8,0.5c-0.3,0-0.6,0-0.8,0
		c-0.2,0-0.4,0-0.5-0.1c-0.1-0.1-0.2-0.2-0.3-0.4c-0.1-0.2-0.1-0.4-0.1-0.7c0-0.4,0.1-0.7,0.3-0.9s0.7-0.3,1.4-0.4
		c0.6-0.1,1.2-0.1,1.8-0.2c0.6,0,1.2-0.1,1.8-0.2v-2h-3.3c-0.4,0-0.7-0.1-0.9-0.3c-0.2-0.2-0.3-0.5-0.3-0.9c0-0.4,0.1-0.7,0.3-0.9
		c0.2-0.2,0.5-0.3,0.9-0.3h3.3v-1.7h-3.6c-0.4,0-0.7-0.1-0.9-0.3s-0.3-0.5-0.3-0.9c0-0.4,0.1-0.7,0.3-0.9c0.2-0.2,0.5-0.3,1-0.3h1.3
		c0-0.1-0.1-0.3-0.2-0.4s-0.1-0.3-0.2-0.5c-0.2-0.4-0.2-0.7-0.2-0.9c0-0.3,0.1-0.5,0.3-0.7h-1.8c-0.4,0-0.7-0.1-0.9-0.2
		c-0.2-0.2-0.3-0.4-0.3-0.9c0-0.5,0.1-0.8,0.3-1c0.2-0.2,0.5-0.3,1-0.3h2.8v-0.8c0,0.1-0.1,0.1-0.2,0.2c-0.1,0.1-0.2,0.1-0.2,0.2
		C98.1,87,97.9,87,97.6,87c-0.2-0.1-0.5-0.3-0.7-0.7c-0.2-0.3-0.3-0.5-0.5-0.7c-0.2-0.2-0.4-0.5-0.7-0.9c-0.6-0.7-0.6-1.2,0-1.7
		c0.3-0.3,0.6-0.4,0.9-0.4c0.3,0,0.5,0.2,0.8,0.6c0.1,0.2,0.3,0.4,0.4,0.5c0.1,0.1,0.2,0.3,0.3,0.4c0.1,0.1,0.2,0.3,0.3,0.4
		C98.6,84.6,98.7,84.8,98.8,85z M103.3,90.3c0.1-0.4,0.2-0.6,0.3-0.9h-3.9c0.1,0.1,0.1,0.2,0.2,0.3s0.1,0.2,0.2,0.4
		c0.1,0.4,0.3,0.7,0.4,1s0.2,0.6,0.3,0.9h2.1c0.1-0.4,0.2-0.7,0.3-0.9C103.2,90.8,103.2,90.6,103.3,90.3z M115.9,86.2h0.9
		c0.5,0,0.9,0.1,1.1,0.4c0.2,0.3,0.3,0.6,0.3,1c0,0.5-0.1,0.8-0.3,1c-0.2,0.2-0.6,0.3-1.1,0.3h-0.9v11.1c0,0.7,0,1.3-0.1,1.8
		c-0.1,0.5-0.2,0.8-0.4,1.1c-0.2,0.3-0.5,0.5-0.8,0.6c-0.3,0.1-0.8,0.2-1.3,0.2c-0.2,0-0.5,0-0.7,0c-0.2,0-0.5,0-0.7-0.1
		c-0.3,0-0.6-0.1-0.9-0.2c-0.3-0.1-0.7-0.2-1.1-0.4c-0.5-0.2-0.8-0.4-0.9-0.7c-0.2-0.3-0.2-0.7,0-1.2c0.3-0.9,0.9-1.2,1.9-0.8
		c0.4,0.2,0.8,0.3,1,0.4c0.2,0.1,0.4,0.1,0.7,0.2c0.4,0.1,0.6,0.1,0.7,0c0.1-0.1,0.2-0.3,0.2-0.6V89h-3.7c-0.5,0-0.9-0.1-1.1-0.3
		c-0.2-0.2-0.3-0.6-0.3-1c0-0.4,0.1-0.8,0.3-1c0.2-0.3,0.6-0.4,1.1-0.4h3.7v-4c0-0.6,0.1-0.9,0.3-1.1s0.5-0.3,0.9-0.3
		c0.4,0,0.8,0.1,1,0.3c0.2,0.2,0.3,0.6,0.3,1.1V86.2z M112.7,95.5c0.2,0.6,0.3,1.1,0.2,1.5s-0.3,0.6-0.7,0.8c-0.4,0.2-0.8,0.2-1.1,0
		s-0.6-0.6-0.8-1.3c-0.3-0.8-0.5-1.5-0.8-2.2c-0.2-0.7-0.5-1.4-0.9-2.2c-0.4-1-0.3-1.7,0.5-2.1c0.4-0.2,0.8-0.3,1.1-0.1
		s0.6,0.5,0.8,1c0.2,0.5,0.4,0.9,0.5,1.2c0.2,0.4,0.3,0.7,0.4,1.1c0.1,0.4,0.3,0.7,0.4,1.1C112.4,94.6,112.5,95,112.7,95.5z"/>
	<path class="st3" d="M126.2,83.7c0.2,0.3,0.3,0.5,0.3,0.8h1.1c0.5,0,0.8,0.1,1.1,0.3c0.3,0.2,0.4,0.5,0.4,0.9
		c0,0.4-0.1,0.7-0.4,0.9c-0.3,0.2-0.6,0.3-1.1,0.3h-7.3c-1,0-1.5-0.4-1.5-1.3c0-0.4,0.1-0.7,0.4-0.9c0.3-0.2,0.6-0.3,1.1-0.3h2.8
		c-0.3-0.3-0.5-0.6-0.8-0.8c-0.2-0.3-0.5-0.5-0.7-0.7c-0.2-0.3-0.3-0.6-0.2-1c0.1-0.4,0.3-0.6,0.5-0.8c0.3-0.2,0.6-0.3,1-0.3
		c0.4,0,0.7,0.2,0.9,0.4c0.3,0.3,0.6,0.6,1,1C125.3,82.6,125.7,83.1,126.2,83.7z M128.3,92.3c0,0.4-0.1,0.7-0.4,0.9
		c-0.2,0.2-0.6,0.2-1.1,0.2H121c-0.4,0-0.8-0.1-1-0.2c-0.2-0.2-0.3-0.4-0.3-0.9c0-0.5,0.1-0.8,0.3-1s0.5-0.3,1-0.3h5.9
		c0.5,0,0.8,0.1,1.1,0.3C128.2,91.5,128.3,91.8,128.3,92.3z M128.3,89c0,0.8-0.4,1.2-1.3,1.2h-5.9c-0.4,0-0.8-0.1-1-0.3
		c-0.2-0.2-0.3-0.5-0.3-0.9c0-0.4,0.1-0.8,0.3-1c0.2-0.2,0.5-0.3,1-0.3h5.9c0.4,0,0.8,0.1,1,0.3C128.2,88.3,128.3,88.6,128.3,89z
		 M128.4,100.9c0,0.8-0.2,1.4-0.5,1.8s-0.9,0.6-1.8,0.6h-3.9c-0.9,0-1.5-0.2-1.8-0.6c-0.3-0.4-0.5-1-0.5-1.8v-4.3
		c0-0.8,0.2-1.4,0.5-1.8c0.3-0.4,0.9-0.6,1.8-0.6h3.9c0.9,0,1.5,0.2,1.8,0.6s0.5,1,0.5,1.8V100.9z M125.5,97.6c0-0.3,0-0.5-0.1-0.6
		c-0.1-0.1-0.3-0.2-0.6-0.2h-1.4c-0.3,0-0.4,0-0.5,0.1s-0.1,0.3-0.1,0.6v2.4c0,0.3,0,0.5,0.1,0.6c0.1,0.1,0.3,0.1,0.5,0.1h1.4
		c0.3,0,0.5,0,0.6-0.1c0.1-0.1,0.1-0.3,0.1-0.6V97.6z M130.7,85.6c-0.6,0-1.1,0-1.3-0.2c-0.2-0.2-0.4-0.5-0.4-1.1
		c0-0.6,0.1-1,0.4-1.2c0.3-0.2,0.7-0.3,1.3-0.3c0.9,0,1.8,0,2.5-0.1c0.7-0.1,1.4-0.1,2.1-0.2c0.7-0.1,1.3-0.2,2-0.4s1.4-0.4,2.2-0.6
		c0.4-0.1,0.8-0.1,1.1,0c0.3,0.1,0.5,0.5,0.6,1c0.1,0.8-0.3,1.4-1.2,1.7c-0.4,0.1-0.8,0.3-1.3,0.4c-0.5,0.1-1.1,0.3-1.8,0.4v2.6h4
		c0.4,0,0.8,0.1,1,0.4c0.2,0.2,0.3,0.6,0.3,1s-0.1,0.7-0.3,1c-0.2,0.2-0.5,0.4-1,0.4h-4v2.1h1.8c0.8,0,1.4,0.2,1.7,0.5
		s0.5,1,0.5,1.9v6.1c0,0.9-0.2,1.5-0.5,1.9c-0.3,0.4-0.9,0.5-1.8,0.5H132c-0.8,0-1.4-0.2-1.8-0.5s-0.6-1-0.6-1.9v-6.1
		c0-0.9,0.2-1.6,0.6-1.9c0.4-0.3,1-0.5,1.8-0.5h1.9v-2.1h-4.1c-0.4,0-0.8-0.1-1-0.4c-0.2-0.2-0.3-0.6-0.3-1s0.1-0.7,0.3-1
		c0.2-0.2,0.5-0.4,1-0.4h4.1v-2.1c-0.5,0.1-1,0.1-1.5,0.1C131.8,85.5,131.3,85.6,130.7,85.6z M138.1,95.6c0-0.2-0.1-0.4-0.2-0.5
		s-0.3-0.2-0.6-0.2h-4.2c-0.3,0-0.5,0.1-0.7,0.2c-0.1,0.1-0.2,0.4-0.2,0.8v3.7c0,0.4,0.1,0.6,0.2,0.8c0.1,0.1,0.4,0.2,0.7,0.2h4.1
		c0.4,0,0.6-0.1,0.7-0.2c0.1-0.2,0.1-0.4,0.1-0.9V95.6z"/>
	<path class="st3" d="M164.6,93.6c0.6,0,0.9,0.1,1.1,0.4c0.2,0.2,0.3,0.6,0.3,1.1c0,0.5-0.1,0.8-0.3,1.1c-0.2,0.2-0.5,0.4-1.1,0.4
		H160c0.7,0.7,1.4,1.4,2.3,2.2s1.6,1.7,2.4,2.6c0.4,0.5,0.7,1,0.6,1.4s-0.2,0.7-0.5,1l0,0c-0.3,0.3-0.7,0.5-1.2,0.4
		s-0.9-0.4-1.3-0.9l0,0c-0.5-0.6-1-1.1-1.3-1.5s-0.7-0.8-1-1.1s-0.6-0.7-0.9-0.9s-0.7-0.6-1-1c-0.4-0.4-0.7-0.8-0.7-1.1
		c0-0.3,0.1-0.6,0.3-1h-6.8c0.4,0.3,0.5,0.6,0.5,1c0,0.4-0.2,0.8-0.6,1.3l0,0c-0.6,0.8-1.2,1.6-1.9,2.3c-0.7,0.7-1.5,1.5-2.3,2.2
		c-0.7,0.5-1.2,0.8-1.6,0.7c-0.4,0-0.8-0.2-1-0.5c-0.3-0.4-0.4-0.8-0.3-1.2c0.1-0.4,0.5-0.8,1.1-1.2c0.7-0.5,1.4-1.1,2-1.7
		c0.6-0.6,1.1-1.3,1.6-2c0.1-0.2,0.2-0.3,0.4-0.5c0.1-0.1,0.2-0.3,0.3-0.3h-4.6c-0.6,0-0.9-0.1-1.1-0.4c-0.2-0.2-0.3-0.6-0.3-1.1
		c0-0.5,0.1-0.8,0.3-1.1c0.2-0.2,0.5-0.4,1.1-0.4h3.8v-5.7H145c-0.5,0-0.9-0.1-1.1-0.4c-0.2-0.2-0.3-0.6-0.3-1.1
		c0-0.5,0.1-0.8,0.3-1.1c0.2-0.3,0.6-0.4,1.1-0.4h3.1v-2.8c0-0.5,0.1-0.9,0.4-1.1c0.3-0.2,0.6-0.3,1-0.3c0.4,0,0.8,0.1,1.1,0.3
		c0.3,0.2,0.4,0.6,0.4,1.1V85h7.1v-2.8c0-0.5,0.1-0.9,0.4-1.1s0.6-0.3,1-0.3s0.8,0.1,1,0.3s0.4,0.6,0.4,1.1V85h2.7
		c0.5,0,0.9,0.1,1.1,0.4c0.2,0.3,0.3,0.6,0.3,1.1c0,0.5-0.1,0.8-0.3,1.1c-0.2,0.2-0.6,0.4-1.1,0.4h-2.7v5.7H164.6z M151,93.6h7.1
		v-5.7H151V93.6z"/>
	<path class="st3" d="M173,83.6c0.1,0.2,0.2,0.5,0.2,0.7c0,0.3-0.1,0.5-0.2,0.7h1.5c0.4,0,0.8,0.1,0.9,0.3c0.2,0.2,0.3,0.5,0.3,0.9
		c0,0.4-0.1,0.7-0.3,0.9s-0.5,0.3-0.9,0.3h-6.2c-0.4,0-0.8-0.1-0.9-0.3c-0.2-0.2-0.3-0.5-0.3-0.9c0-0.4,0.1-0.7,0.3-0.9
		c0.2-0.2,0.5-0.3,0.9-0.3h2.6c0,0-0.1-0.1-0.1-0.1c-0.2-0.4-0.5-0.8-0.7-1.2c-0.2-0.4-0.5-0.7-0.7-1c-0.2-0.3-0.3-0.6-0.3-0.9
		c0.1-0.3,0.2-0.5,0.5-0.7c0.3-0.2,0.6-0.3,1-0.3s0.6,0.2,0.8,0.4c0.1,0.1,0.2,0.3,0.3,0.4c0.1,0.1,0.2,0.3,0.3,0.5
		c0.1,0.2,0.2,0.4,0.4,0.6C172.6,83.1,172.8,83.3,173,83.6z M175.1,100.8c0,0.8-0.2,1.4-0.5,1.8s-0.9,0.6-1.7,0.6h-2.7
		c-0.8,0-1.4-0.2-1.7-0.6s-0.5-1-0.5-1.8v-3.6c0-0.8,0.2-1.4,0.5-1.8s0.9-0.6,1.7-0.6h2.7c0.8,0,1.4,0.2,1.7,0.6s0.5,1,0.5,1.8
		V100.8z M174.9,92.7c0,0.4-0.1,0.7-0.3,0.9s-0.5,0.3-0.9,0.3h-4.6c-0.4,0-0.7-0.1-0.9-0.3c-0.2-0.2-0.3-0.5-0.3-0.9
		c0-0.5,0.1-0.8,0.3-0.9c0.2-0.2,0.5-0.2,0.9-0.2h4.6c0.4,0,0.8,0.1,0.9,0.2C174.9,92,174.9,92.3,174.9,92.7z M175,89.6
		c0,0.4-0.1,0.7-0.3,0.9s-0.5,0.3-0.9,0.3h-4.6c-0.4,0-0.7-0.1-0.9-0.3s-0.3-0.5-0.3-0.9c0-0.4,0.1-0.8,0.3-0.9s0.5-0.3,0.9-0.3h4.6
		c0.4,0,0.7,0.1,0.9,0.3S175,89.2,175,89.6z M172.6,97.9c0-0.3,0-0.5-0.1-0.6c-0.1-0.1-0.3-0.2-0.5-0.2h-1c-0.2,0-0.4,0-0.5,0.1
		c-0.1,0.1-0.1,0.3-0.1,0.6v2.2c0,0.3,0,0.5,0.1,0.6s0.2,0.1,0.5,0.1h1c0.3,0,0.4,0,0.5-0.1s0.1-0.3,0.1-0.6V97.9z M181,101.2
		c0.2,0.3,0.3,0.6,0.1,0.9c-0.1,0.3-0.4,0.6-0.9,0.7c-0.5,0.2-1.1,0.4-1.7,0.6s-1.2,0.3-2,0.5c-0.5,0.1-0.9,0.1-1.1,0
		c-0.3-0.1-0.4-0.4-0.5-0.8c-0.1-0.4,0-0.6,0.2-0.8c0.2-0.2,0.5-0.4,0.9-0.4c0.6-0.1,1.2-0.3,1.8-0.4c0.5-0.2,1.1-0.3,1.6-0.5
		c0,0,0,0,0,0h-0.5c-0.6,0-1,0-1.3-0.1c-0.3-0.1-0.6-0.2-0.8-0.3c-0.2-0.2-0.3-0.4-0.3-0.6s-0.1-0.6-0.1-1v-4.5
		c0-0.7,0.1-1.2,0.4-1.4c0.2-0.2,0.7-0.4,1.4-0.4h8.8c0.8,0,1.4,0.1,1.6,0.4c0.3,0.3,0.4,0.7,0.4,1.4v4.4c0,0.4,0,0.7-0.1,0.9
		c0,0.2-0.1,0.4-0.3,0.6c-0.2,0.2-0.4,0.3-0.6,0.3c-0.3,0.1-0.6,0.1-1.1,0.1c0.4,0.1,0.8,0.2,1.1,0.3c0.3,0.1,0.7,0.3,1.1,0.4
		c0.4,0.1,0.7,0.3,0.8,0.6c0.1,0.3,0.1,0.5,0,0.8c-0.2,0.7-0.8,0.8-1.7,0.5c-0.3-0.1-0.5-0.2-0.8-0.3c-0.2-0.1-0.4-0.2-0.6-0.2
		c-0.2-0.1-0.4-0.1-0.6-0.2c-0.2-0.1-0.4-0.1-0.7-0.2c-0.5-0.1-0.9-0.3-1-0.6c-0.2-0.3-0.2-0.6,0-0.8c0-0.1,0.1-0.1,0.1-0.2
		c0-0.1,0.1-0.1,0.1-0.2h-3.8C180.8,100.9,180.9,101,181,101.2z M183.9,84.4v0.9h4c0.4,0,0.6,0,0.8,0.1c0.2,0.1,0.2,0.3,0.2,0.7
		c0,0.4-0.1,0.7-0.2,0.8c-0.2,0.1-0.4,0.2-0.8,0.2h-10.3c-0.4,0-0.6-0.1-0.8-0.2c-0.2-0.1-0.2-0.4-0.2-0.8c0-0.4,0.1-0.6,0.2-0.7
		c0.2-0.1,0.4-0.1,0.8-0.1h3.9v-0.9h-4.9c-0.3,0-0.6,0-0.7-0.1c-0.2-0.1-0.2-0.4-0.2-0.8c0-0.4,0.1-0.7,0.2-0.8
		c0.2-0.1,0.4-0.2,0.7-0.2h4.9v-0.7c0-0.4,0.1-0.7,0.4-0.8s0.5-0.2,0.9-0.2c0.3,0,0.6,0.1,0.8,0.2c0.2,0.2,0.3,0.4,0.3,0.8v0.7h5
		c0.3,0,0.6,0.1,0.7,0.2c0.2,0.1,0.3,0.4,0.3,0.8c0,0.4-0.1,0.7-0.3,0.8c-0.2,0.1-0.4,0.1-0.7,0.1H183.9z M189.6,90.3
		c0,0.4,0,0.7-0.1,0.9c-0.1,0.2-0.2,0.4-0.3,0.5c-0.1,0.1-0.3,0.2-0.6,0.3c-0.3,0-0.6,0.1-1,0.1h-9.7c-0.4,0-0.8,0-1.1-0.1
		c-0.3,0-0.5-0.1-0.7-0.3c-0.2-0.1-0.3-0.3-0.4-0.5c-0.1-0.2-0.1-0.5-0.1-0.9v-0.9c0-0.7,0.2-1.2,0.5-1.4s0.9-0.4,1.8-0.4h9.4
		c0.4,0,0.8,0,1.1,0.1s0.5,0.1,0.7,0.2s0.3,0.3,0.4,0.5c0.1,0.2,0.1,0.6,0.1,1V90.3z M177.9,90.2c0,0.2,0.1,0.3,0.4,0.3h1.3v-1.3
		h-1.3c-0.2,0-0.3,0-0.3,0c-0.1,0-0.1,0.1-0.1,0.2V90.2z M186.5,94.4c0-0.1-0.1-0.2-0.3-0.2h-7.2c-0.1,0-0.2,0-0.2,0s0,0.1,0,0.2V95
		h7.7V94.4z M186.5,96.4h-7.6v0.7h7.6V96.4z M186.5,98.5h-7.7v0.6c0,0.1,0,0.1,0.1,0.1s0.1,0,0.1,0h7.3c0.1,0,0.2-0.1,0.2-0.2V98.5z
		 M181.7,90.5h1.9v-1.3h-1.9V90.5z M187.4,89.5c0-0.1,0-0.2-0.1-0.2s-0.2,0-0.4,0h-1.4v1.3h1.4c0.2,0,0.3,0,0.4-0.1
		c0.1,0,0.1-0.1,0.1-0.2V89.5z"/>
	<path class="st3" d="M203.3,89.4c-0.5,0.7-1,1-1.6,0.9v9.5c0,0.9-0.2,1.6-0.6,2c-0.4,0.4-1,0.6-1.9,0.6h-4.8
		c-0.9,0-1.6-0.2-1.9-0.6c-0.4-0.4-0.6-1-0.6-2V86.4c0-0.9,0.2-1.5,0.6-1.9s1-0.6,1.9-0.6h1.1c0-0.2,0.1-0.4,0.1-0.6
		s0.1-0.4,0.1-0.7c0.1-0.6,0.3-1,0.6-1.3c0.3-0.2,0.7-0.3,1.2-0.3c0.6,0.1,0.9,0.3,1.1,0.6c0.1,0.3,0.2,0.8,0.1,1.4
		c0,0.1-0.1,0.3-0.1,0.4c0,0.1-0.1,0.3-0.1,0.4h0.8c0.9,0,1.6,0.2,1.9,0.6c0.4,0.4,0.6,1.1,0.6,1.9v0.3c0.4-0.6,0.8-1.3,1.1-1.9
		c0.4-0.7,0.7-1.5,0.9-2.5c0.1-0.6,0.3-1,0.7-1.2c0.3-0.2,0.7-0.2,1.2-0.1c0.5,0.1,0.8,0.3,0.9,0.7s0.1,0.8,0,1.3
		c-0.1,0.2-0.2,0.5-0.2,0.8h3.9c0.6,0,1,0.1,1.4,0.3c0.4,0.2,0.7,0.4,0.9,0.7c0.2,0.3,0.4,0.6,0.5,1.1c0.1,0.4,0.2,0.9,0.2,1.3
		c0,0.9,0,1.8,0,2.8c0,1,0,2-0.1,3c0,1-0.1,2-0.1,2.8c-0.1,0.9-0.1,1.6-0.2,2.2c-0.1,1.2-0.3,2.1-0.5,2.8c-0.2,0.7-0.5,1.3-0.9,1.8
		c-0.4,0.4-0.8,0.7-1.3,0.9c-0.5,0.2-1.2,0.2-1.9,0.2c-0.5,0-1-0.1-1.7-0.2c-0.6-0.1-1.4-0.3-2.1-0.6c-0.7-0.3-1.1-0.5-1.3-0.9
		s-0.1-0.7,0.1-1.3c0.2-0.4,0.4-0.7,0.8-0.8c0.4-0.1,0.8,0,1.4,0.2c0.8,0.3,1.5,0.6,2,0.7s1,0,1.3-0.2c0.3-0.2,0.6-0.7,0.8-1.3
		c0.2-0.6,0.4-1.5,0.5-2.5c0.1-0.9,0.2-2.1,0.2-3.6c0-1.5,0.1-3.4,0.1-5.7c0-0.3-0.1-0.5-0.2-0.6c-0.2-0.1-0.4-0.2-0.8-0.2h-4.2
		c-0.3,0.5-0.5,1-0.9,1.5C203.9,88.5,203.6,88.9,203.3,89.4z M198.9,87.5c0-0.3-0.1-0.5-0.2-0.6c-0.1-0.1-0.4-0.2-0.7-0.2h-2.8
		c-0.2,0-0.4,0.1-0.5,0.2c-0.1,0.1-0.1,0.4-0.1,0.6v4.2h4.2V87.5z M198.9,94.5h-4.2v4.2c0,0.3,0.1,0.5,0.2,0.7
		c0.1,0.1,0.4,0.2,0.7,0.2h2.7c0.3,0,0.5-0.1,0.6-0.2c0.1-0.1,0.1-0.3,0.1-0.6V94.5z M208.7,95.4c0.3,0.6,0.4,1.1,0.3,1.5
		s-0.4,0.6-0.8,0.8c-0.5,0.3-0.9,0.3-1.2,0.1c-0.3-0.2-0.6-0.6-0.9-1.2c-0.4-0.9-0.7-1.7-1.1-2.4s-0.8-1.5-1.3-2.2
		c-0.3-0.4-0.4-0.8-0.3-1.2c0-0.4,0.2-0.7,0.6-0.9c0.4-0.3,0.8-0.3,1.2-0.3c0.4,0.1,0.7,0.4,1,0.9c0.4,0.8,0.9,1.6,1.3,2.5
		S208.3,94.5,208.7,95.4z"/>
	<path class="st3" d="M220.1,89.6c0.5,0.4,0.7,0.7,0.8,1c0.1,0.3,0,0.7-0.4,1.2c-0.3,0.4-0.6,0.5-0.9,0.5c-0.3,0-0.8-0.2-1.3-0.6
		c-0.3-0.2-0.7-0.5-1.1-0.7c-0.4-0.3-0.9-0.6-1.4-0.9c-0.9-0.5-1.1-1.2-0.5-2.1c0.5-0.8,1.2-0.8,2.1-0.3c0.7,0.4,1.2,0.7,1.6,1
		S219.8,89.3,220.1,89.6z M221.4,96.2c-0.5,1.2-1,2.3-1.6,3.4c-0.6,1.1-1.2,2.2-2,3.2c-0.3,0.4-0.7,0.7-1.1,0.8s-0.8,0-1.1-0.3
		c-0.4-0.3-0.5-0.6-0.6-1c0-0.4,0.2-0.8,0.6-1.4c0.6-0.8,1.2-1.7,1.7-2.7c0.5-1,1-2.1,1.5-3.1c0.2-0.5,0.5-0.9,0.8-1.1
		c0.3-0.2,0.7-0.2,1.1,0c0.5,0.2,0.8,0.4,0.9,0.7S221.7,95.6,221.4,96.2z M221.8,86c-0.3,0.4-0.6,0.5-1,0.5c-0.3,0-0.8-0.2-1.3-0.6
		c-0.3-0.2-0.5-0.4-0.7-0.5c-0.2-0.1-0.4-0.3-0.6-0.4s-0.4-0.2-0.6-0.4c-0.2-0.1-0.4-0.3-0.7-0.4c-0.4-0.3-0.7-0.5-0.8-0.8
		s0-0.7,0.3-1.2c0.2-0.4,0.5-0.6,0.9-0.7c0.4,0,0.8,0.1,1.3,0.3c0.3,0.2,0.6,0.4,0.8,0.5c0.2,0.1,0.4,0.3,0.6,0.4
		c0.2,0.1,0.4,0.3,0.6,0.4c0.2,0.1,0.4,0.3,0.7,0.5c0.4,0.3,0.7,0.6,0.8,1C222.3,85.1,222.2,85.5,221.8,86z M236.9,100.5h-0.6v-4.9
		c0-0.5,0-0.9-0.1-1.2s-0.2-0.6-0.4-0.8c-0.2-0.2-0.4-0.3-0.7-0.4c-0.3-0.1-0.7-0.1-1.1-0.1h-9.6c-0.4,0-0.8,0-1.1,0.1
		s-0.5,0.2-0.7,0.4c-0.2,0.2-0.3,0.4-0.4,0.8s-0.1,0.7-0.1,1.2v4.9h-0.9c-0.5,0-0.8,0.1-1,0.3c-0.2,0.2-0.3,0.5-0.3,1
		c0,0.4,0.1,0.7,0.3,1c0.2,0.2,0.5,0.3,1,0.3h15.6c0.5,0,0.8-0.1,1-0.3c0.2-0.2,0.3-0.6,0.3-1c0-0.4-0.1-0.8-0.3-1
		C237.7,100.6,237.4,100.5,236.9,100.5z M235.5,89.7v-5.6c0-0.8-0.2-1.4-0.5-1.7c-0.3-0.3-0.9-0.5-1.6-0.5h-8.2
		c-0.8,0-1.3,0.2-1.6,0.5c-0.3,0.3-0.5,0.9-0.5,1.7v5.6c0,0.8,0.2,1.4,0.5,1.7s0.9,0.4,1.6,0.4h8.2c0.8,0,1.3-0.1,1.6-0.4
		C235.3,91.1,235.5,90.5,235.5,89.7z M224.6,95.9c0-0.2,0-0.3,0.1-0.3s0.2-0.1,0.3-0.1h1.2v5h-1.6V95.9z M225.3,84.5
		c0-0.2,0-0.3,0.1-0.3c0,0,0.1-0.1,0.3-0.1h2.8c-0.1,0.2-0.1,0.3-0.2,0.6c-0.1,0.4-0.2,0.7-0.3,1s-0.2,0.6-0.3,0.8
		c-0.1,0.2-0.3,0.5-0.5,0.7c-0.2,0.2-0.4,0.5-0.7,0.8c-0.4,0.4-0.6,0.7-0.6,1c0,0.3,0,0.6,0.2,0.8v0h-0.5c-0.1,0-0.2,0-0.2,0
		s0-0.1,0-0.2V84.5z M230.2,85.4c0.2-0.6,0.2-1-0.1-1.3h2.7c0.1,0,0.2,0,0.3,0.1c0,0,0.1,0.1,0.1,0.3v5c0,0.1,0,0.2-0.1,0.3
		c0,0-0.1,0.1-0.3,0.1h-5.2c0,0,0.1-0.1,0.1-0.1c0,0,0.1,0,0.1-0.1c0.4-0.4,0.7-0.8,1-1.2c0.3-0.4,0.5-0.7,0.7-1.1
		c0.6,0.5,1.1,1.1,1.5,1.5c0.2,0.3,0.5,0.4,0.7,0.5c0.2,0.1,0.5,0,0.8-0.3c0.3-0.2,0.4-0.5,0.4-0.7c0-0.3-0.2-0.5-0.5-0.9
		c-0.2-0.2-0.3-0.3-0.5-0.5c-0.1-0.1-0.3-0.3-0.5-0.4c-0.2-0.2-0.4-0.3-0.6-0.5C230.7,85.9,230.5,85.7,230.2,85.4
		C230.2,85.4,230.2,85.4,230.2,85.4z M228.4,95.4h1.7v5h-1.7V95.4z M233.6,95.4c0.2,0,0.3,0,0.3,0.1c0,0.1,0,0.2,0,0.3v4.6h-1.5v-5
		H233.6z"/>
	<path class="st3" d="M248,91.2h1.9c0-0.2,0.1-0.4,0.1-0.6c0-0.2,0-0.5,0.1-0.6h-1.4c-0.4,0-0.7-0.1-0.9-0.3
		c-0.2-0.2-0.2-0.5-0.2-0.8s0.1-0.7,0.2-0.8c0.2-0.2,0.4-0.3,0.9-0.3h0.8c0,0-0.1-0.1-0.1-0.1c-0.2-0.4-0.4-0.7-0.6-1
		c-0.2-0.3-0.3-0.5-0.4-0.7c-0.2-0.3-0.3-0.6-0.4-0.8c0-0.2,0.1-0.4,0.3-0.6c-0.4,0-0.7-0.1-0.9-0.3s-0.3-0.5-0.3-0.9
		c0-0.4,0.2-0.7,0.5-0.8c0.3-0.2,0.7-0.2,1.2-0.2c0.7,0,1.5,0,2.5-0.1c1-0.1,1.9-0.1,2.9-0.2c1-0.1,1.9-0.2,2.8-0.3
		c0.9-0.1,1.6-0.2,2.1-0.3c0.5-0.1,0.9-0.1,1.2,0c0.3,0.2,0.4,0.5,0.4,1c0,0.4-0.1,0.7-0.3,0.9c-0.2,0.2-0.6,0.3-1,0.4h0
		c0.4,0.2,0.7,0.5,0.8,0.8s0,0.7-0.2,1.1c-0.2,0.4-0.4,0.7-0.6,1.1c-0.2,0.4-0.4,0.7-0.7,1.1h1.3c0.8,0,1.2,0.4,1.2,1.1
		c0,0.4-0.1,0.7-0.3,0.8c-0.2,0.2-0.5,0.3-0.9,0.3h-7.4c0,0.2-0.1,0.4-0.1,0.6c0,0.2,0,0.4-0.1,0.6h8.4c0.4,0,0.7,0.1,0.9,0.3
		c0.2,0.2,0.2,0.5,0.2,0.8c0,0.4-0.1,0.6-0.2,0.8c-0.2,0.2-0.4,0.3-0.9,0.3h-8.8c0,0.1-0.1,0.3-0.1,0.5s-0.1,0.4-0.1,0.6h6.7
		c0.6,0,1.1,0.1,1.5,0.3c0.3,0.2,0.5,0.6,0.5,1.1c0,0.4-0.2,0.9-0.5,1.5c-0.3,0.6-0.7,1.1-1.2,1.6c-0.4,0.5-0.9,1-1.4,1.4
		c0.6,0.3,1.1,0.5,1.7,0.7s1.1,0.4,1.7,0.5c0.9,0.2,1.3,0.6,1.2,1.4c-0.1,0.5-0.3,0.8-0.6,0.9c-0.4,0.1-0.7,0.1-1.2,0h0
		c-1-0.3-1.9-0.6-2.7-0.9c-0.8-0.3-1.6-0.7-2.2-1.1c-0.8,0.5-1.7,0.9-2.7,1.2c-1,0.3-2,0.6-3,0.8c-0.6,0.1-1.1,0.1-1.3,0
		c-0.3-0.1-0.4-0.4-0.5-0.9c0-0.4,0.1-0.7,0.3-0.9c0.2-0.2,0.6-0.4,1.3-0.5c0.7-0.1,1.4-0.3,2-0.5s1.3-0.5,1.9-0.8
		c-0.5-0.4-0.9-0.9-1.3-1.5c-0.4-0.6-0.8-1.2-1.1-1.8c-0.4,0.9-0.8,1.7-1.3,2.4c-0.5,0.7-1.1,1.4-1.8,2.1c-0.4,0.5-0.9,0.7-1.3,0.8
		s-0.8,0-1-0.4c-0.3,0.4-0.9,0.6-1.8,0.6h-2.3c-0.4,0-0.8,0-1-0.1c-0.3-0.1-0.5-0.2-0.7-0.4c-0.2-0.2-0.3-0.5-0.3-0.8
		c-0.1-0.3-0.1-0.8-0.1-1.3V84.8c0-0.5,0-0.9,0.1-1.2c0.1-0.3,0.2-0.6,0.3-0.8s0.4-0.3,0.6-0.4c0.3-0.1,0.6-0.1,1.1-0.1h2.3
		c0.4,0,0.8,0,1.1,0.1c0.3,0.1,0.5,0.2,0.7,0.4c0.2,0.2,0.3,0.5,0.3,0.8c0.1,0.3,0.1,0.7,0.1,1.2V100c0,0,0.1-0.1,0.1-0.1
		c0,0,0.1-0.1,0.1-0.1c0.8-0.8,1.5-1.7,2-2.8c0.5-1,1-2.2,1.3-3.6H248c-0.4,0-0.7-0.1-0.9-0.3c-0.2-0.2-0.2-0.5-0.2-0.9
		s0.1-0.7,0.2-0.8C247.3,91.2,247.6,91.2,248,91.2z M241.9,91h1.8v-5.4c0-0.3,0-0.5-0.1-0.5s-0.2-0.1-0.4-0.1h-0.8
		c-0.2,0-0.3,0-0.4,0.1c-0.1,0.1-0.1,0.3-0.1,0.5V91z M243.7,93.6h-1.8v5.9c0,0.3,0,0.5,0.1,0.5c0.1,0.1,0.2,0.1,0.4,0.1h0.7
		c0.2,0,0.4,0,0.4-0.1c0.1-0.1,0.1-0.3,0.1-0.5V93.6z M251.2,86.4c0.3,0.5,0.4,1,0.1,1.3h2.4c-0.1-0.1-0.1-0.2-0.1-0.3
		c-0.1-0.3-0.3-0.5-0.4-0.8c-0.1-0.3-0.3-0.6-0.5-0.9c-0.1-0.3-0.2-0.5-0.3-0.7c0-0.2,0-0.4,0.1-0.5c-0.4,0-0.8,0.1-1.3,0.1
		c-0.4,0-0.9,0-1.3,0c0,0,0.2,0.2,0.4,0.6C250.7,85.4,250.9,85.9,251.2,86.4z M253,96.6c0.7,1,1.5,1.9,2.4,2.6
		c0.4-0.3,0.8-0.7,1.2-1c0.4-0.4,0.7-0.7,1-1.1c0.1-0.2,0.2-0.3,0.1-0.4c0-0.1-0.1-0.1-0.3-0.1H253z M255.5,86.4
		c0.2,0.6,0.2,1,0,1.3h0.8c0.2-0.3,0.4-0.6,0.5-0.9c0.2-0.3,0.3-0.5,0.4-0.8c0.1-0.2,0.3-0.5,0.4-0.7c0.1-0.2,0.2-0.5,0.4-0.8
		c0.1-0.2,0.2-0.3,0.2-0.4c0.1-0.1,0.1-0.2,0.2-0.3c-0.5,0.1-1.1,0.2-1.9,0.2c-0.7,0.1-1.5,0.1-2.2,0.2l0.1,0.2
		c0.2,0.3,0.3,0.6,0.5,0.9C255.1,85.7,255.3,86,255.5,86.4z"/>
	<path class="st3" d="M272.1,103c0,0.2,0,0.3-0.1,0.4c-0.1,0.1-0.2,0.2-0.3,0.3c-0.1,0.1-0.3,0.1-0.4,0.2s-0.3,0-0.4,0
		c-0.2,0-0.5-0.1-0.8-0.2c-0.3-0.1-0.4-0.4-0.4-0.7v-1.9h-5.8c-0.3,0-0.5-0.1-0.7-0.3c-0.2-0.2-0.3-0.5-0.3-0.8
		c0-0.3,0.1-0.6,0.3-0.7c0.2-0.2,0.4-0.2,0.7-0.2h5.8v-0.8h-3.3c-0.4,0-0.8,0-1-0.1c-0.3-0.1-0.5-0.2-0.6-0.4
		c-0.1-0.2-0.2-0.4-0.3-0.7s-0.1-0.6-0.1-1V94c0-0.9,0.1-1.5,0.4-1.8c0.3-0.3,0.8-0.5,1.6-0.5h3.3v-0.9h-5.1c-0.3,0-0.5-0.1-0.6-0.2
		s-0.2-0.4-0.2-0.7c0-0.7,0.3-1,0.9-1h5.1v-0.2c0-0.3,0.1-0.6,0.4-0.7h-5.9c-0.4,0-0.7-0.1-0.9-0.3s-0.2-0.4-0.2-0.8
		c0-0.3,0.1-0.6,0.2-0.8c0.1-0.2,0.4-0.3,0.9-0.3h5.4v-0.9h-4c-0.5,0-0.8-0.1-0.9-0.2c-0.1-0.1-0.2-0.4-0.2-0.8
		c0-0.4,0.1-0.7,0.2-0.9s0.4-0.3,0.9-0.3h4v-0.8c0-0.4,0.1-0.6,0.4-0.8c0.3-0.1,0.6-0.2,0.9-0.2c0.4,0,0.7,0.1,0.9,0.2
		c0.2,0.1,0.4,0.4,0.4,0.8v0.8h3.5c0.4,0,0.8,0.1,0.9,0.2c0.2,0.2,0.3,0.4,0.3,0.8c0,0.4-0.1,0.7-0.2,0.9s-0.5,0.2-0.9,0.2h-3.6v0.9
		h5.6c0-0.5-0.1-1.1-0.1-1.6c0-0.5,0-1,0-1.5c0-0.6,0.1-1.1,0.2-1.4c0.2-0.3,0.4-0.4,0.9-0.5c0.4,0,0.8,0.1,1,0.3
		c0.2,0.2,0.3,0.6,0.4,1.2c0,0.6,0,1.1,0,1.7c0,0.6,0,1.1,0,1.7h4.5c0.4,0,0.7,0.1,0.9,0.3c0.1,0.2,0.2,0.5,0.2,0.8
		c0,0.3-0.1,0.5-0.2,0.7s-0.4,0.3-0.9,0.3h-4.3c0,0.1,0,0.2,0,0.2s0,0.1,0,0.2c0.1,1.1,0.2,2.2,0.4,3.4s0.4,2.2,0.6,3.2
		c0.2-0.6,0.5-1.3,0.7-2c0.2-0.7,0.4-1.5,0.5-2.2c0-0.2,0.1-0.3,0.1-0.5c0-0.2,0.1-0.3,0.2-0.5s0.2-0.2,0.3-0.3
		c0.1-0.1,0.3-0.1,0.6,0c0.4,0.1,0.7,0.3,0.9,0.6c0.2,0.3,0.2,0.8,0,1.4c-0.3,1.2-0.7,2.4-1.1,3.5c-0.4,1.1-0.9,2.2-1.5,3.3
		c0.2,0.4,0.3,0.7,0.5,1s0.3,0.5,0.4,0.6c0.2,0.3,0.4,0.4,0.5,0.1c0.1-0.2,0.2-0.7,0.2-1.6c0-0.5,0.1-0.9,0.2-1.1
		c0.2-0.2,0.5-0.3,0.9-0.3c0.5,0,0.8,0.2,0.9,0.5s0.2,0.8,0.2,1.5c-0.1,1-0.2,1.8-0.3,2.4s-0.3,1.1-0.5,1.4
		c-0.2,0.3-0.4,0.6-0.6,0.7c-0.2,0.1-0.4,0.2-0.7,0.2c-0.6,0-1.1-0.2-1.7-0.7c-0.6-0.4-1.1-1.2-1.6-2.3c-0.3,0.4-0.6,0.8-0.9,1.2
		c-0.3,0.4-0.6,0.8-1,1.1c-0.4,0.4-0.7,0.6-1.1,0.6s-0.7-0.1-0.9-0.3c-0.3-0.3-0.4-0.6-0.3-0.9c0-0.3,0.3-0.7,0.7-1.2
		c0.5-0.5,0.9-1,1.4-1.5c0.4-0.6,0.8-1.1,1.2-1.8c-0.2-0.7-0.4-1.3-0.6-2c-0.2-0.7-0.3-1.4-0.5-2.1c-0.1-0.7-0.3-1.5-0.4-2.4
		c-0.1-0.8-0.2-1.8-0.3-2.8c0-0.1,0-0.2,0-0.4c0-0.1,0-0.3,0-0.4h-6.4c0.3,0.2,0.4,0.4,0.4,0.7v0.2h5c0.6,0,0.9,0.3,0.9,1
		c0,0.6-0.3,0.9-0.9,0.9h-5v0.9h3.3c0.8,0,1.3,0.2,1.6,0.5c0.3,0.3,0.4,0.9,0.4,1.8V96c0,0.8-0.1,1.4-0.4,1.7
		c-0.3,0.3-0.8,0.5-1.6,0.5h-3.3v0.8h4.7c0.3,0,0.5,0.1,0.7,0.2c0.2,0.2,0.3,0.4,0.3,0.7c0,0.3-0.1,0.5-0.3,0.8
		c-0.2,0.2-0.4,0.3-0.7,0.3h-4.7V103z M266.7,94.2h3.1v-0.8h-2.8c-0.2,0-0.3,0.1-0.3,0.3V94.2z M266.7,96.2c0,0.2,0.1,0.3,0.3,0.3
		h2.8v-0.8h-3.1V96.2z M272.1,93.4v0.8h3v-0.5c0-0.2-0.1-0.3-0.3-0.3H272.1z M275.1,95.8h-3v0.8h2.7c0.2,0,0.3-0.1,0.3-0.3V95.8z
		 M284.5,83.6c0.3,0.4,0.4,0.7,0.4,0.9c0,0.3-0.2,0.5-0.4,0.7c-0.3,0.3-0.6,0.4-0.9,0.3c-0.3-0.1-0.6-0.3-0.8-0.6
		c-0.3-0.3-0.5-0.6-0.7-0.9c-0.2-0.2-0.5-0.5-0.7-0.8c-0.6-0.6-0.7-1.2-0.1-1.8c0.5-0.5,1.2-0.4,1.9,0.3c0.3,0.3,0.5,0.6,0.8,0.8
		S284.3,83.4,284.5,83.6z"/>
	<path class="st3" d="M288.3,94c0-0.5,0.1-1,0.2-1.3h-0.2c-0.3,0-0.6-0.1-0.9-0.3c-0.2-0.2-0.3-0.5-0.3-1v-0.9c0-1,0.3-1.7,0.9-1.9
		v-4.4c0-0.5,0-0.9,0.1-1.3c0.1-0.3,0.2-0.6,0.4-0.8c0.2-0.2,0.5-0.3,0.8-0.4s0.8-0.1,1.3-0.1h2.9c0.5,0,0.9,0,1.3,0.1
		s0.6,0.2,0.8,0.4c0.2,0.2,0.3,0.5,0.4,0.8s0.1,0.8,0.1,1.3v4.3c0.4,0.1,0.7,0.3,0.8,0.6c0.2,0.3,0.2,0.8,0.2,1.4c0,0.2,0,0.4,0,0.6
		c0,0.2-0.1,0.4-0.1,0.6c-0.1,0.4-0.3,0.7-0.5,0.8c-0.2,0.1-0.5,0.1-0.7,0c0.2,0.4,0.3,0.8,0.3,1.5v7.3c0,0.4-0.1,0.8-0.2,1.1
		s-0.3,0.5-0.5,0.7c-0.2,0.2-0.4,0.3-0.6,0.4c-0.2,0.1-0.5,0.1-0.7,0.1c-0.1,0-0.2,0-0.3,0c-0.1,0-0.3,0-0.5,0c-0.2,0-0.3,0-0.5-0.1
		c-0.2,0-0.3-0.1-0.3-0.1c-0.3-0.2-0.5-0.4-0.7-0.6c-0.1-0.2-0.2-0.5-0.1-1c0.1-0.4,0.2-0.6,0.5-0.7c0.3-0.1,0.6-0.1,1,0.1
		c0.3,0.1,0.4,0.1,0.5,0c0.1-0.1,0.1-0.3,0.1-0.5v-1.3l-0.2,0.1c-0.7,0.4-1.3,0.7-1.7,1s-0.9,0.4-1.2,0.5c-0.1,0-0.2,0-0.3,0
		c-0.1,0.3-0.2,0.5-0.2,0.8c-0.1,0.2-0.1,0.5-0.2,0.7c-0.2,0.5-0.4,0.9-0.8,1c-0.4,0.1-0.7,0.1-1-0.1c-0.2-0.2-0.4-0.4-0.5-0.7
		c-0.1-0.3,0-0.7,0.1-1.2c0.1-0.3,0.2-0.6,0.3-0.9c0.1-0.3,0.1-0.6,0.2-0.9c0-0.3,0.1-0.7,0.1-1.1s0-0.9,0-1.6V94z M294.9,90.9
		c0-0.2,0-0.2-0.2-0.2h-5.1c-0.1,0-0.1,0-0.1,0.1s0,0.1,0,0.1v0.6c0,0.1,0,0.2,0,0.2c0,0.1,0,0.2,0,0.2c0.1,0,0.3-0.1,0.4-0.1
		c0.1,0,0.3,0,0.5,0h3.7c0.3,0,0.6,0,0.8,0.1c0-0.1-0.1-0.3,0-0.5C294.8,91.3,294.9,91.1,294.9,90.9z M290.2,88.4h0.5V87
		c0-0.5,0-0.9,0.1-1.2c0.1-0.3,0.2-0.5,0.3-0.7c0.1-0.2,0.3-0.3,0.6-0.3c0.3-0.1,0.6-0.1,1-0.1h1.1v-0.5c0-0.2-0.1-0.2-0.2-0.2h-3.2
		c-0.1,0-0.2,0.1-0.2,0.3V88.4z M292.7,95.1c0.4,0.2,0.6,0.4,0.7,0.6s0.1,0.4,0,0.7c-0.1,0.4-0.2,0.6-0.4,0.7
		c-0.2,0.1-0.4,0.1-0.7-0.1c-0.2-0.1-0.5-0.2-0.8-0.4c-0.3-0.1-0.6-0.3-0.8-0.3h0v2.1c0,0.1,0,0.1,0,0.2c0,0.1,0,0.1,0,0.2
		c0,0,0.1,0,0.1,0s0,0,0.1,0c0.3-0.2,0.6-0.3,1-0.5s0.7-0.4,1.3-0.8c0.2-0.2,0.5-0.2,0.7-0.2v-2.5c0-0.2,0-0.4-0.1-0.6
		c-0.1-0.2-0.2-0.2-0.5-0.2h-1.8c-0.3,0-0.5,0.2-0.6,0.5c0,0,0.1,0,0.1,0c0,0,0.1,0,0.1,0c0.3,0.1,0.6,0.2,0.9,0.3
		S292.4,95,292.7,95.1z M293.8,88.4v-1.6h-0.3c-0.2,0-0.3,0-0.4,0.1c-0.1,0-0.2,0.2-0.2,0.4v1.1H293.8z M309.1,101.5
		c0.6,0,0.9,0.4,0.9,1.1c0,0.7-0.3,1-0.9,1h-11.7c-0.6,0-1-0.3-1-1c0-0.7,0.3-1.1,1-1.1h2.6c-0.1-0.2-0.3-0.4-0.4-0.6
		s-0.3-0.3-0.4-0.4c-0.2-0.3-0.2-0.6-0.1-0.9c-0.4-0.1-0.8-0.2-0.9-0.5s-0.3-0.7-0.3-1.3v-1.5c0-0.7,0.1-1.2,0.4-1.5
		c0.3-0.2,0.7-0.4,1.4-0.4h7.4c0.7,0,1.2,0.1,1.5,0.4c0.3,0.2,0.4,0.7,0.4,1.5v1.5c0,0.7-0.1,1.1-0.3,1.4c-0.2,0.2-0.6,0.4-1.2,0.4
		c0.2,0.4,0.1,0.8-0.2,1.3c-0.1,0.1-0.1,0.2-0.2,0.3c-0.1,0.1-0.1,0.2-0.1,0.3H309.1z M309.9,92.9c0,0.4-0.1,0.6-0.2,0.8
		c-0.1,0.2-0.4,0.2-0.7,0.2h-11.2c-0.6,0-0.9-0.3-0.9-1c0-0.4,0.1-0.6,0.2-0.8c0.2-0.1,0.4-0.2,0.7-0.2H309c0.3,0,0.6,0.1,0.7,0.2
		C309.9,92.2,309.9,92.5,309.9,92.9z M307.2,82.7c0.6,0,1,0.1,1.3,0.4c0.3,0.3,0.5,0.8,0.5,1.5v4.6c0,0.8-0.2,1.3-0.5,1.5
		c-0.3,0.2-0.8,0.4-1.4,0.4h-7.9c-0.6,0-1.1-0.1-1.4-0.4s-0.5-0.7-0.5-1.5v-4.6c0-0.7,0.2-1.2,0.5-1.5s0.8-0.4,1.4-0.4h1.4V82
		c0-0.8,0.3-1.2,1-1.2c0.4,0,0.6,0.1,0.7,0.3c0.1,0.2,0.2,0.5,0.2,0.9v0.6h1.3V82c0-0.8,0.3-1.2,1-1.2c0.7,0,1,0.4,1,1.2v0.6H307.2z
		 M299.5,85.9h1.2v-1.2H300c-0.2,0-0.4,0.1-0.4,0.2c-0.1,0.1-0.1,0.3-0.1,0.5V85.9z M299.5,88.5c0,0.3,0,0.4,0.1,0.5
		c0.1,0.1,0.2,0.1,0.4,0.1h0.7v-1.3h-1.2V88.5z M306.8,96.7c0-0.1-0.1-0.2-0.2-0.2h-6.3c-0.1,0-0.2,0.1-0.2,0.2v0.8
		c0,0.1,0.1,0.2,0.2,0.2h6.3c0.1,0,0.2-0.1,0.2-0.2V96.7z M302,101c0,0.1,0.1,0.2,0.1,0.2c0,0.1,0.1,0.2,0.1,0.3h2.4
		c0.2-0.3,0.3-0.5,0.5-0.8c0.1-0.3,0.3-0.6,0.6-1l0.1-0.1H301c0.2,0.2,0.3,0.5,0.5,0.7S301.9,100.8,302,101L302,101z M302.6,85.9
		h1.3v-1.2h-1.3V85.9z M302.6,89.1h1.3v-1.3h-1.3V89.1z M305.8,84.7v1.2h1.2v-0.6c0-0.2,0-0.4-0.1-0.5c-0.1-0.1-0.2-0.1-0.4-0.1
		H305.8z M307.1,87.8h-1.2v1.3h0.7c0.2,0,0.4-0.1,0.4-0.2c0.1-0.1,0.1-0.3,0.1-0.5V87.8z"/>
</g>
</svg>
